<svg xmlns="http://www.w3.org/2000/svg" viewBox="0 0 579.95 501.85"><g id="Layer_2" data-name="Layer 2"><path d="M113.48 456.89l19.06 40.58-1.92 4-17.3-36.86-1.09 24.95q-.08 3.76-.08 3.09 0 7.31 5.64 8.06v.75l-1.17-.12q-4.68-.38-6.18-.38-2 0-7.23.5v-.75q5.31-1.38 5.77-10.87l1.21-28.54a12.06 12.06 0 00-7-4.14v-.75q3.39.38 7.23.42zM134.17 486l13.37-29.13h3.22l2 44h-1.63q-1.76 0-4.6.25l-2.76.25v-.75q5-1.38 5-9 0 .13-.08-2.8l-1.09-24.36-13.37 29.29-17.3-36.94h3.55zm21.65 14.92l-2-44h1.42q3 0 8.57-.5v.75a6.57 6.57 0 00-4.43 2.67 8.53 8.53 0 00-1.63 5.27l.08 4.47.92 20q.25 5.47 1.71 8.06a5.84 5.84 0 004.6 3.05v.75q-6.2-.5-9.25-.5zm47.72-10.11l-3.72-7.81h-15.76l-4 7.77-.21.54s-.24.43-.63 1.21a8 8 0 00-.88 3.59q0 3.18 3.51 4.51v.75a24.44 24.44 0 01-2.47-.21 37.93 37.93 0 00-4.43-.29 41.2 41.2 0 00-4.43.29q-1.8.21-2.38.21v-.75q4.6-2.34 8.36-9.65l13.87-27a12 12 0 00-4.37-5 13 13 0 00-6.5-1.92v-.75h1.5q2 0 5.39.25 3.59.25 4.68.25l21.1 44q-4.05.08-9.74.5v-.75q3.18-.54 3.18-3.43.02-1.99-2.07-6.3zM185.7 479.9h12.62l-6.06-12.7zm29.84 21l-21.1-44h4.1q.84 2.17 2.34 5.47 1.67 3.55 1.88 4.22a5.22 5.22 0 01.38.88l9.82 20.35q5.14 10.61 10.95 12.87v.75q-5.71-.5-8.38-.5zm21.35-44v44h-1.8q-1 0-3.3.25a35.44 35.44 0 01-4.51.25v-.75a6.23 6.23 0 004.43-2.63q1.75-2.34 1.75-9v-21.47q0-9.11-6.18-10.41v-.75q2.67.29 9.6.5zm4.26 44h-1.21v-44q2.51 0 5.35-.21 3.26-.29 5.31-.29 5.72 0 8.52 3.51a13.2 13.2 0 012.8 8.57q0 8.65-7.31 11.07a14.17 14.17 0 016.1 2.17 64.93 64.93 0 018 7.19q8.15 8.27 13.29 8.27a3.88 3.88 0 002.13-.71l.17.75a5.52 5.52 0 01-4.64 2.17A11.83 11.83 0 01273 497a79.37 79.37 0 01-9.74-8.86q-7.77-8-15.13-8 4.55 1.42 12.33 9.57a93.56 93.56 0 008.78 8.27 10.59 10.59 0 006.39 2.59v.38a8.38 8.38 0 01-2.8.5 12.05 12.05 0 01-7-2 39.7 39.7 0 01-4-3.45q-2.44-2.32-5.87-6a81.41 81.41 0 00-7.44-7.27 17.24 17.24 0 00-5.06-2.76v9.9q0 10 6 10.87v.75q-5.05-.55-8.31-.55zm2.26-32.55v9.07a21.66 21.66 0 005.35.63q9.4 0 9.4-9.78 0-9.15-9.32-9.15a7.85 7.85 0 00-4.68 1.21q-.76 1.67-.76 8.05zm18.93 9a17.42 17.42 0 002.72-9.49 17.17 17.17 0 00-3.13-9.49q7.19 3.05 7.19 9.61t-6.79 9.43zm33.1-20.52v44q-2.13 0-8.48.5v-.75q5.06-1 5.06-7.77v-27.56a11.32 11.32 0 00-1-5.52 6.43 6.43 0 00-4-2.59v-.75q3.98.42 8.41.5zm8.4 18.55L327 500.94h-4.6L302 478.2v14.71a9.54 9.54 0 001.13 5.18 6.62 6.62 0 004.05 2.59v.75q-5.52-.5-8.65-.5v-44q5.72-.21 8.65-.5v.75q-3.13.71-4.14 2.8t-1 9.24v7.69zm29 25.49h-1.76l-24.91-27.41 9.57-7.65q4.93-3.93 4.93-6 0-1.63-2.72-2.72v-.75q1.88 0 5.06.29 2.84.21 4.18.21t3.26-.17q2.8-.21 5.31-.33v.75Q329.9 458.65 323 464l-2.8 2.17a3.89 3.89 0 00-.54.42l-8.78 7.06 16.63 18.43q7.56 8.44 11.41 8.57v.75q-5.84-.46-6.05-.46zm16.71-44H351v44h-2.76q-1.46 0-6.18.5v-.75a6 6 0 003.43-2.13 8.82 8.82 0 001.63-3.64 56.35 56.35 0 00.46-9.19v-17.45q0-6.06-1.63-8.32a6.53 6.53 0 00-3.89-2.76v-.75zm21.1 44H354v-44h12.16q3.42 0 13-.5-.08 1.25-.08 1.88 0 .84.21 3.89.12 2 .13 2.21v1h-.71q-1.5-3.59-3.43-4.64t-7.23-1h-6.64a19.09 19.09 0 00-2.92.21q-.75 1.42-.88 6.77l-.08 2.84v6.81h9q5.1 0 6.77-.88t2.67-4.18h.92q-.33 3.76-.33 6.52 0 1.75.25 4.6.08.84.21 3.3H376q-.38-3.68-2.21-5.06t-5.89-1.38h-10.46v9.11a64 64 0 00.58 9.24 26.65 26.65 0 003.76.25h6.35a20.1 20.1 0 007.81-1.17q2.76-1.21 5.43-5.39h.84a40.62 40.62 0 01-1.38 4.43 47.93 47.93 0 00-1.63 5.64 82.4 82.4 0 00-8.51-.43zm24.86-44h13.79v44h-1.25q-2.72 0-8.11.5v-.75a6.77 6.77 0 004.76-3.55q1.25-2.63 1.25-8.78v-28.47h-10.61q-4.05 0-5.72 1.67t-2.8 6.31h-1v-1.17a17.14 17.14 0 01.17-2.13 73.4 73.4 0 00.5-8.11 53.28 53.28 0 005.52.38zm18 44h-1.09v-44h15a65.51 65.51 0 008.15-.5q0 .8-.13 2.88-.12 1.92-.13 4.81a33.77 33.77 0 01-.21 3.72h-1a9.9 9.9 0 00-1.71-5.68q-1.67-2.3-7.06-2.3h-9.49v29.92q0 5.14 1.46 7.73a6.4 6.4 0 004.51 3.22v.75q-7.33-.48-8.29-.48zm27.66-14.5h1a12.07 12.07 0 004.3 8.82 13.33 13.33 0 009 3.43 9.2 9.2 0 006.39-2.21 6.89 6.89 0 002.46-5.31 6 6 0 00-2.32-5q-2.3-1.75-9.07-4a61.41 61.41 0 01-7.73-3 10.64 10.64 0 01-4.18-3.72 9.25 9.25 0 01-1.63-5.35 11.22 11.22 0 012.21-6.48 9.88 9.88 0 00-.5 2.84 10.55 10.55 0 001.55 5.73 10.78 10.78 0 003.93 3.84 43.05 43.05 0 007.81 3.05q7.15 2.17 10.32 4.81a8.47 8.47 0 013 6.85 11 11 0 01-3.18 7.65q-3.22 3.47-9.61 3.47a37.56 37.56 0 01-7.19-1 36.21 36.21 0 00-6-.88l-.29-.33v-1.84q0-1.34-.25-4.14t-.21-4.18a24.45 24.45 0 01.21-2.99zM470.69 469h-.88a8 8 0 00-3.84-7.19 16.86 16.86 0 00-9-2.3 12.34 12.34 0 00-6.94 1.8q-2.76 1.8-2.76 4.3a4.91 4.91 0 002.17 4.22q2.26 1.67 8.9 4a64.64 64.64 0 018.65 3.47 12.33 12.33 0 014.39 4.18 11.49 11.49 0 011.75 6.23 9.77 9.77 0 01-3.84 8.19 9.29 9.29 0 001.42-5.52 11.36 11.36 0 00-1.55-5.93 13.11 13.11 0 00-4-4.18 35.73 35.73 0 00-7.9-3.38q-8.23-2.72-10.74-4.64t-2.51-6.1a8.67 8.67 0 013.84-7.48q3.84-2.63 10.91-2.63a51.61 51.61 0 0111.74 1.67v.29l.08 1.59q0 1.25.08 3 .12 2.13.13 3.76-.02 1.03-.1 2.65zm-39.45-200H398.8l24.74 23.77zm-251.48-40.65l-4.82-9.35-5.22 9.32zm266.18 35.3v-67.51a2.69 2.69 0 00-1.38-.33h-135.7V67.45a1.47 1.47 0 00-1.58-1.26h-20.16a1.47 1.47 0 00-1.58 1.26v128.36H141.93a2.73 2.73 0 00-1.4.33v67.5a2.72 2.72 0 001.4.33h302.63a2.67 2.67 0 001.38-.32zm-178.67-49a6.38 6.38 0 01.3 8.46 7 7 0 01-3.55 2.45 8.86 8.86 0 002-5.83 10 10 0 00-1.13-4.78 6.41 6.41 0 00-2.69-2.91 8.82 8.82 0 015.06 2.6zM183 244.14v-.55q2.52-.4 2.52-2.51a11.71 11.71 0 00-1.66-4.72l-3-5.7h-12.43l-3.16 5.7-.17.4s-.19.32-.5.89a5.47 5.47 0 00-.7 2.64q0 2.33 2.79 3.31v.55q-.57 0-2-.15a32.62 32.62 0 00-3.52-.21q-1.43 0-3.52.21-1.43.15-1.89.15v-.55q3.65-1.72 6.64-7.08l11-19.81A9.08 9.08 0 00170 213a11 11 0 00-5.17-1.41v-.55H166q1.56 0 4.29.18t3.72.18l16.78 32.32q-3.23.11-7.79.42zm17 0q-4.52-.37-6.64-.37l-16.78-32.32h3.26q.66 1.59 1.86 4 1.33 2.61 1.49 3.1a3.7 3.7 0 01.3.64l7.81 14.93q4.09 7.79 8.7 9.44zm10.17-.37h-2.06a43.19 43.19 0 00-4.95.37v-.55a5.52 5.52 0 003.36-2.85 16.63 16.63 0 00.9-6.38V219.7q0-4.69-1.33-6.19a5.52 5.52 0 00-2.92-1.87v-.55l7 .37zm24.62-2.88a17.88 17.88 0 00-1.06 3.25 42.68 42.68 0 00-5.78-.37h-15.3v-32.32q2.26-.06 5-.25l2.39-.12v.55a5.4 5.4 0 00-3.62 2.42 11.49 11.49 0 00-1.06 5.55v13.34a38.86 38.86 0 00.33 5.37 6.41 6.41 0 00.7 2.85 3.1 3.1 0 001.93.37h7a15.14 15.14 0 006.11-1.07 9.64 9.64 0 004.25-4.23h.66a25.35 25.35 0 01-1.47 4.66zm11.36 2.88q-2.89.09-7 .37v-.55q4.25-1.07 4.25-8.31v-16q0-6.38-4.25-7.67v-.55q3.45.31 7 .37zm10 .37q-2 0-4.25-.21-2.06-.15-3.26-.15v-32.33l5.68-.37a9.22 9.22 0 016.71 2.42 8.42 8.42 0 012.46 6.22 7 7 0 01-4.45 6.81q7.18 1.5 7.18 8.62a9.26 9.26 0 01-2.36 6.29q-2.34 2.7-7.66 2.7zm13.94-4.14a8.29 8.29 0 01-4.42 2.88 10.15 10.15 0 003.06-7.6 10.64 10.64 0 00-3.19-8q6.31 2.12 6.31 7.79a7.68 7.68 0 01-1.76 4.93zm13.29 3.74h-2.19q-1.16 0-4.92.37v-.55A4.84 4.84 0 00279 242a6.23 6.23 0 001.3-2.67 38.25 38.25 0 00.37-6.75v-12.82q0-4.45-1.3-6.1a5.21 5.21 0 00-3.09-2v-.55l6 .37h1.1zm23.75-3.74a33.22 33.22 0 00-1.3 4.14q-3.79-.37-6.78-.37h-13.28v-32.32h9.67q2.73 0 10.3-.37-.07.92-.07 1.38 0 .61.17 2.85.1 1.5.1 1.63v.77h-.56a6.7 6.7 0 00-2.72-3.4q-1.53-.74-5.75-.74h-5.28a16.43 16.43 0 00-2.32.15q-.6 1-.7 5l-.07 2.09v5h7.18q4.05 0 5.38-.64a4.88 4.88 0 002.13-3.07h.73q-.27 2.76-.27 4.78 0 1.29.2 3.37.07.61.17 2.42h-.73a4.91 4.91 0 00-1.76-3.71 8.51 8.51 0 00-4.68-1h-8.34v6.68a43.42 43.42 0 00.47 6.78 23 23 0 003 .18h5a17.2 17.2 0 006.21-.86 10.45 10.45 0 004.32-4h.66a28 28 0 01-1.08 3.26zm38-20.36q0 4.88-5.38 6.87a11.59 11.59 0 00-.33-13.92q5.75 2.23 5.75 7.05zm-25.61 24.13h-1.43q-.83 0-2.62.18a30.55 30.55 0 01-3.59.18v-.55a5 5 0 003.52-1.93q1.4-1.72 1.4-6.62v-15.76q0-6.68-4.92-7.63v-.55q2.13.21 7.64.37zm34-1.13a9.91 9.91 0 01-5.28-1.75 61.63 61.63 0 01-7.74-6.5q-6.18-5.89-12-5.89 3.62 1 9.8 7a72.34 72.34 0 007 6.07 8.82 8.82 0 005.08 1.9v.28a7.14 7.14 0 01-2.23.37 10.17 10.17 0 01-5.58-1.5 31 31 0 01-3.21-2.53q-1.94-1.7-4.67-4.4a62.68 62.68 0 00-5.91-5.34 14.1 14.1 0 00-4-2v7.27q0 7.33 4.78 8v.55q-4-.37-6.58-.37h-1v-32.35q2 0 4.25-.15 2.59-.21 4.22-.21 4.55 0 6.78 2.58a9.21 9.21 0 012.23 6.29q0 6.35-5.81 8.13a11.88 11.88 0 014.85 1.59 50.51 50.51 0 016.35 5.27q6.46 6.05 10.55 6.05a3.26 3.26 0 001.69-.52l.13.55a4.54 4.54 0 01-3.68 1.6zm16.15 1.13h-1q-2.16 0-6.45.37v-.55A5.35 5.35 0 00366 241q1-1.93 1-6.44V213.6h-8.47q-3.22 0-4.55 1.23a9.79 9.79 0 00-2.23 4.63H351v-.86a11.7 11.7 0 01.13-1.56 49.72 49.72 0 00.4-5.95q1.76.21 4.39.28l2.82.09h11zm12.76-30.17h-7.53v22a11 11 0 001.16 5.67 5.09 5.09 0 003.59 2.36v.55q-5.88-.37-6.64-.37h-.86v-32.36h12a56.59 56.59 0 006.48-.37q0 .58-.1 2.12t-.1 3.53a22.83 22.83 0 01-.17 2.73h-.8a6.86 6.86 0 00-1.36-4.17q-1.37-1.69-5.66-1.69zm33.26 30.54v-.55q2.52-.4 2.52-2.51a11.71 11.71 0 00-1.66-4.72l-3-5.7h-12.47l-3.16 5.7-.17.4s-.19.32-.5.89a5.47 5.47 0 00-.7 2.64q0 2.33 2.79 3.31v.55q-.57 0-2-.15a32.63 32.63 0 00-3.52-.21q-1.43 0-3.52.21-1.43.15-1.89.15v-.55q3.66-1.72 6.64-7.08l11-19.81a9.08 9.08 0 00-3.47-3.65 11 11 0 00-5.17-1.41v-.55h1.16q1.56 0 4.29.18t3.72.18l16.78 32.32q-3.14.05-7.66.36zm17 0q-4.52-.37-6.64-.37l-16.78-32.32h3.26q.66 1.59 1.86 4 1.33 2.61 1.49 3.1a3.71 3.71 0 01.3.64l7.82 14.95q4.09 7.79 8.7 9.44zm-25.24-80.7c10.34-6.78 21.85-6 33.61-3.49a37.63 37.63 0 00.5-10.95c-13-.55-25.55 2.42-37 12.06zm-147.73 65.34a15.44 15.44 0 00-5-.61h-3.32v5.52q0 5.79 1.36 7.33a6 6 0 003.49.83q3.89 0 5.55-2.09a7.8 7.8 0 001.59-4.87 6.92 6.92 0 00-1-3.83 5.72 5.72 0 00-2.67-2.28zm-.83-4.39a7 7 0 00-.13-9.32 6.62 6.62 0 00-4.45-1.59 3.75 3.75 0 00-2.29.64 18.79 18.79 0 00-.6 5.7V226H254a7 7 0 004.89-1.61zm153.52 4l-4.82-9.39-5.22 9.32zm-75.94-8.52q0-6.72-7.41-6.72a6.64 6.64 0 00-3.72.89q-.6 1.23-.6 5.89v6.65a18.61 18.61 0 004.26.42q7.46 0 7.47-7.18zm-79.74-119.1c-3.2 9.72-6.52 20.57-7.29 30.81 8.87-11.9 21.46-21.9 11.15-43.68-14.15 9.49-21.19 23.82-14.49 43.29 2.74-10.56 5.25-21.19 10.63-30.42zM198.13 269l-29.2 28.27 25.35 24.35 30.41-29.21L200.31 269zM155 269l8.53 22.91.92.08 23.94-23zm8.79 23.62a.85.85 0 010 .1v-.1zM338.1 269l19.71 18.93 19.7-18.93zm48.76 0l-24.38 23.42 30.92 29.7 25.3-24.31.07-.67-29.3-28.14zM138 155.3c.29.88 14.25 17.48 30.65 35.5h64.18a38.33 38.33 0 01-7.83-41.67c-.46 5.8-1.36 13.08.76 20.77a58.29 58.29 0 0010.61 20.91h44.18v-56.89c-5.35-6.22-12.13-9.24-19-8.29-10 1.38-9.47 10.72-17.85 13.42-5.44 1.75-10.64-2.4-17.1 1.61-4.82 3-8 8.34-9.43 12.2-3 8.1-1.69 17.35 1.64 25.95-15.76-14.74-34.3-31-48.38-43.8 0 0 4.64 7.8 10.64 18.42l-25.45-23 5.92 10.9c-4.42-2.8-7.8-4.79-9.54-5.63-6-2.9-11.91 2.44-12.48 8.3-.23 2.4 4.73 9.29 11.73 17.76q-5.25-3.08-10.65-6.14zm105.29-17.6l3-1.32a51.93 51.93 0 00-29.77-22.64 38.27 38.27 0 00-1.76 10.39c10.7 1.3 20.87 4.06 28.5 13.57zm181.17 43.5a42.19 42.19 0 01.68 9.61h7.08a26.9 26.9 0 00-.26-3.17 29.5 29.5 0 00-7.29-15.43c-6-6.25-12.51-3.94-17.93-7.59-8.34-5.61-5.59-14.7-16-19.59-13-6.14-29 1.06-37.55 20a67.77 67.77 0 00-5 15.83c.38-3.08.82-6.48 1.2-9.43v-.23a56.26 56.26 0 00.93-7.32s11.28-20.71.9-34.08a10.89 10.89 0 00-1.24-1.46c.24-.57-.33-1.55-.65-1.87.29-.48.18.21.63 0 1 .05 1.52.81 2.22 1.3.51-.23-.52-.6 0-.77.71-.22 1.05 1.31 1.59.68.35-.22.92.23 1-.27-.6 0-.19 0-.7-.28.43-.08.74-.23.8-.53 0-.7-.88.23-1-.21l-.08-.29a1.6 1.6 0 01-1.15-.8c-.06-.33.42.09.74-.19 1.31-.45 1.8 1.56 2.77 1-.22-.4-.66-.43-.75-1.06.66-.35.81.17 1.29.13.19.4.83 1.12 1.22.46-.6.09-.08-.51-.63-.62l.59-.15.59-.15c.83.78 1.75 2.54 2.9 2.06-.23 0-.79-.45-.49-.66.12.29.47.19.71.29.38.56 1.06.6 1.84.46.09 0 .18 0 .19.11-.15 0-.14.17-.26.22.86.52 1.36 1.65 2.49 1.7.71-.3-.3-.75-.63-.62 0-1 2 .88 2.8-.11 0-.15-.17-.14-.23-.25.47.13.56-.55.18-.52a1.27 1.27 0 00-1.44-.09c-.2-.57-1.22.25-1.58-.05-.46.08-.68-.26-1-.36 0-.21-.47-.06-.22-.25h.15c.58.09 0-.52.33-.56 0 .27.24.31.52.18a.7.7 0 00.4-.26c0 .37.35.25.34.7l.44-.12c-.08-.21-.09-.55-.3-.55-.08-.57-.47-.62-.71-.91 0-.09-.07-.17-.19-.11.1-.42.71 0 1.07-.12.53-.06.62.64 1.11.65s.63.91 1.19.94c.17-.93-.94-1.51-1.46-2l.59-.15a.75.75 0 001.07-.12.6.6 0 00-.89-.4c-1 .19-2.23.84-2.76.25l1.76-.46.88-.23c-.06-.4-.33-.43-.7-.29l-1.76.46c-.86-.24-2.05.11-2.77-.37.87-.54 2.63.23 2.6-.84v-.15c.16-.07.1-.27 0-.48s.1-.27.22-.37c.91 1 2.25 1.26 3.34 1.95 1.16 1.7 2.71 2.74 3.84 4.48.41-.17-.42-1.08 0-1.25 1 0 1.24 1.43 2.26 1.45.33-.29-.32-.68 0-.77.52-.12.77.25 1.29.13.11.4.79.17.92-.08 0-.48-.48-.32-.74-.43l-.44.12c-.29-.42.14-.42.14-.66-.22 0-.31-.18-.52-.18a5.92 5.92 0 01-3.58-.47c-.09 0-.18 0-.19-.11-.1-.75.59.24 1.07-.12.12.41 1.17.34 1.07-.12a1.56 1.56 0 00-.37-.22c-.15.24 0 .42.1.42-.15 0-.24-.18-.1-.42-1.2-.51-3.07.14-3.66-1.39.29 0 .45.22.81.1a.41.41 0 00.52.18c.39.4 1.17.11 1.77.16.32.38 1.12-.07 1.59.05.23 0 .5-.15.51.18a.87.87 0 001 .21c.12.29.47.19.7.29a2.77 2.77 0 001.18.32c.79.49 1.3 1.46 2.19 1.78.26-.66-.61-.85-.82-1.35l.44-.12c1 .77 1.65-.73.18-.52a4.84 4.84 0 01-2.29-.34c-.19 0-.25-.13-.48 0a.41.41 0 00-.52-.18c.07-.49.55 0 .88-.23.2.22.54.2 1 .06s.79.06 1.36-.2l.74-.19c-.06-.48-1-.53-.71-.91.31 0 .39.32.7.29.45.29 1 .42 1.33.9.44.31.79.78 1.45.72-.14-.41.48-.52-.16-.59-.43-.39-1-.47-1.37-1.05 1.43 0 2.3 1 3.62 1.25.57-.19 1 .69 1-.27v-.15a3.51 3.51 0 00-1-.06h-.15c-.07-.23-.4 0-.41-.36.94-.33 1.28.36 2.32-.14v.15c.27.17.79-.07 1.21-.16a.71.71 0 010-.48c-.33 0-.51-.25-1-.06-.79.36-1-.26-1.84.17 0-.46 1.25-.18 1.25-.64 1.08-.46 2.8.52 3.12-.66-1.87 0-3.68-.08-5-1l.73-.19h.15a3.37 3.37 0 001.29.13c.77-.18.9.73 1.7.49.57-.13.81.32 1.44.1-.15-.74-.94-.37-1.41-.57 0-.57.74-.18 1.18-.31a.86.86 0 00.55-.3c0-.29-.25-.28-.3-.55-.75.29-1.18 0-1.95.35-.71-.35-2 .25-2.91.29h-.15c-.09-.2-.31-.18-.41-.36l.29-.08c1.88-.46 3.35-.2 5.18-.58.15 0 .14-.17.25-.22-.21-.78-1.36.05-1.92-.12l-.59.15c.7-.73 2.25-.21 2.71-1-.05-.27-.24-.3-.52-.18s-.5.15-.52-.18v-.15c-.32-.39-1.14 0-1.51.24s-1.32.14-1.25.64c-1.25.27-1.64 1-3 1.25a13.13 13.13 0 01-3.34 1c-1.22.32-1.94-.22-3.24.22l-.3.08c-.32-.38-1-.09-1.58-.06.35-.36-.21-.56.29-.7.38 0 1.67-.08 1-.56h-.15c0-.48-.7.07-.85-.25.18-.06.34-.14.22-.37s-.74.13-1.07.12c-.15-.37-.79.06-1-.21h.15c1-.47 3-.4 3.45-1.22-.16-.28-.7.15-.41-.36h.15a10.07 10.07 0 011.83-.79h.15c.36-.63-.52-.37-.78-.58.54-.06.72-.32.77-.67l-.29.08a.73.73 0 00-.26-.4c.17-.07.42-.08.4-.26.43 0 .22-.37.51-.45l.42 1.62c.35 0 1.19.08 1.14-.46v-.15a.84.84 0 00-.31-1.17l-.08-.29c-.19-.36-.08-.54.33-.56a3 3 0 012.61 2.77l.88-.23v-.15c.48-.17-.1-1 .32-1.18.09.2.37.08.52.18.2.37.12 1.21.5 1.28.36.5-.33.39-.1.81-.33.43.64.44 1.14.17.1-.23 0-.58.1-.81s-.4-.82-.08-.92c1.52 0 3.27 1.68 4.68.5-.45-.22-1.19 0-1.51-.39v-.15c-.08-.06-.77 0-.37-.22l.44-.12v.15c.18.09 1.38.08 1.14-.46a.87.87 0 00-1-.21c-.23-.32-.69-.23-1.14-.17h-.15v-.15a2.47 2.47 0 00-1.1 0c-.68.24-.9-.3-1.58-.06-.07-.33.61-.22.84-.38.35.19 1-.15 1.51-.24l.44-.12c.22.33 1.51.14 1.47-.38.17-.06.33-.14.22-.37-.39-.26-1.23.27-1.8.32-.38-.27-1.05 0-1.69.13s-.81 0-1.36.2L385 113c-.4-.46-1.47.25-2 .06-.59.38-.51-.4-1-.21-.22-.14-.72-.64-.11-.44l.29-.08v.15c.35-.09.5.14.92-.08a3.8 3.8 0 001.51-.24l.59-.15a3.67 3.67 0 002.94-.77c.43-.08.81-.19.62-.63l-1.32.35-2.2.58-.59.16c-.24-.18-1.19-.22-1.36.2a1.71 1.71 0 01-1.25 0c.14-.42 1.25-.26 1.21-.79.33-.43 2-.74 1.75-1.09a.63.63 0 00-1 .27c-.32.39-1.26.42-1.87.65-.21-.49-1 0-1.55.09.21-.5 1.26-.51 1.46-1h.15c.25-.37 1.07-.42 1.47-.38 1 0 3.23 0 3.75-.67a4.32 4.32 0 00-1.69.13h-.15c.57-.57 2.48-.62 2.9-.92.29.28 1-.21 1.51-.24l.29-.08c.4.1.8.19 1.18.32.4 1-.68 1.09-.6 1.88 1.44-.07 1.48-1 2.12-1.5.8.62 1.65 1.14 2.49 1.7.4.57.94.06 1.55-.09 0-.35-.18-.54-.45-.51s-.39-.19-.74-.43c0-.46.35.06.59-.15.86-.23 2 .56 2.76.21-14.2 17.36-3.45 31.34 3.13 45.87 1.53-10.44.46-22.39-.73-33.17 3.65 11 3.88 22.5 4.4 34 11.62-17 7.38-33.68-5.55-48.06a2.82 2.82 0 001.46-.71c-.44-.29-.16-.49-.52-.8h-.15c-.06-.24.38-.19.36-.41.57-.33.66.16 1.11 0 .48.61 1.16-.26 1.06-.75-.64.17-1-.18-1.58-.06-.23 0-.5.15-.52-.18l.59-.15c.75.23 1.66-.52 2.31-.76-.16-.24.27-.72-.19-.74-.1.35-.68 0-.8.53l-.44.12-1.32.35c-.42.21-1.31.14-1.43.53l-1.76.46c-.66.07-1.61.63-2.09.39.43-.16.41-.59 1.1-.6.39.26 1.3-.23 1.43-.53l.88-.23 2.64-.69c.56 0 1.22-.52.76-.67a8.62 8.62 0 00-4.85 1.27l-.44.12-.08-.29c-.06-.11-.17-.14-.33-.07.16-.4 1.11-.35 1.58-.57.67-.15 1.36-.28 1.17-.93a.72.72 0 01-.48 0c-.38.15.24-.67-.41-.37l-1.47.39c-.48.09-.55.42-1.14.46-.71.21-.76.48-.7-.29a4.12 4.12 0 01.25-.85c-.27-.36-1.26-.1-1.32.35-.76.72-.21 2.2-1.7 2.49-.59.09-.83.63-1.21.16-.07-.24-.13-.49-.19-.73l-1.17.31c-.47.37.62 1.37-.16 1.77-.48 0-.36.37-.84.38 0 .4-1.19.13-.91.71h-.14a47.72 47.72 0 01-4.81 1.42c-.85-.15.63-.29.91-.71-.68-.19-1.82.42-2.68.55.09-.58-.52 0-.56-.33.6-.19 1.51-.19 1.35-.83-.53 0-1.51.74-1.69.13-.11-.31.51-.2.7-.34l1.32-.35 1.76-.46c.5-.12 1-.22 1.1-.6-.28-1-3.77 1-4.41.53l.73-.19a9.16 9.16 0 011.73-.61c2-.7 4.73-.94 6.37-1.83a.4.4 0 00.28-.17l.17-.1c-.13-.42-.68-.11-1.11 0 .12-.3.65-.36.58-.78l.74-.19a5.76 5.76 0 001.69-.75c-.24-.76-2.22 0-2.39.47l-.74.19c-.9.13-1.41.76-2.2.58-.23 0-.53.19-.62 0 .64-.41 1.4-.75 2-1.17 0 .09.07.17.18.11 1.71-.08 3.88-1 5.77-1.36.43-.08.74-.23.8-.53.09 0 .17-.07.11-.19-1.2-.49-3.58 1-5 .83l.44-.12a12.6 12.6 0 012.9-.92c.64-.09 1.84-.49 1.35-.83-.08-.42-.87.36-1-.06.72-.28 1.1-.77 1.75-1.09-.24 0-.43-.12-.67-.14-.51.32-1.53.35-1.65.9-.68.11-1-.49-1.88 0a.73.73 0 010 .48c-.51.2-.51.7-.84 1-.48 0-.45.4-1 .42-.36.19-.54.08-.55-.33l-.08-.29h.15a1 1 0 000-.77c-.51-.16-1.25-.05-1.43.53a1.28 1.28 0 00.08.92c.23.42-.14.5.09.92-.27.3-1.1.27-1.06.75l-.29.08c-.57 0-.89.71-1.14.46-.22-.42 0-.57-.08-.92v-.15c.72-1.15-1-.36-1.23-1.09.37-.24 1-.32 1.24-.64h.15c.19-.14.81 0 .7-.34.15-1.11 1.64-1.45 2.77-2 .44.25 1.33-.29 1.95-.35a12.94 12.94 0 012.68-.55l.59-.15a4.17 4.17 0 003.2-.89c.17-.08 0-.19-.08-.29-.11-.44 1.14-.08.77-.67-.29-.28-1 .21-1.51.24s-.45.4-1 .42c-.22 0-.53.19-.62 0h.15c.27-.3 1.1-.27 1.06-.75.28-.17 1.08 0 .8-.53-1.46.14-2.59 1.55-4 2.15-.42-.35-1.57.56-2 .21l.29-.08c.28-.38 1.39-.27 1.35-.83l.29-.08c.28-.38 1.39-.27 1.35-.83l.29-.08c0-.4 1.19-.13.91-.71l.29-.08c.42-.17.87-.32.91-.71a14.69 14.69 0 002.41-2.2c.39-.06.62-.22.47-.59-.11-.06-.79-.16-.73.19-.47.51-.58 1.24-1.49 1.49a.72.72 0 00-1.24.64.79.79 0 01-.73.82c-.19.26-.95.19-.76.67l-.44.12c0-.22.18-.31.18-.52.23-.7 1-1.09 1.64-1.53-.2-.6-1.26.18-1.28.49-.92.71-1.19 1.79-2.18 2.46-.22.37-1.19.3-1.21.79-.39-.11-.45.52-.59.15a9 9 0 01.76-1.3c.35-.25.77-.46.69-1a5.27 5.27 0 012-1.46c.11-.06.29-.08.25-.22-.4-.36-1.41.08-1.58.57-.69.88-1.6.88-3.12 1.29-.12 0-.29.07-.33-.07.17-.07.42-.08.4-.26.19-.1.23-.28.55-.3.27-.3 1.1-.27 1.06-.75.57-.65-.71.24-1.32.35-.31-.14-.07-.76-.67-.76-.82.42-1.09-.11-1.73 0 .09-.6 1-.37 1.76-.46 1.15-.33 1.76.26 3.05-.33l-.16-.59c-.47-.19-1.32.26-1.84.17-.18 0-.41.14-.48 0 1.15-.69 3-1 3.18-2.25-.2-.62-1.15.16-1.14.46a10 10 0 00-1.79.94c.34-.79 1-1.42 1.3-2.22h.15a2.18 2.18 0 001.86-1.27c-.27-.5-.46 0-.92.08a6.89 6.89 0 01-2.93.77 5.53 5.53 0 01-1.73 0c1-.59 1.85-1.41 3.41-1.37v.15c.44.13 1.64-.14 1.72-.61h.15l.44-.12c.19-.06.16-.24.4-.26-.19-.44 0-.76.32-.56-.12-.24.12-.43-.12-.44-.06-.1-.08-.29-.22-.25-.05-.4.71-.33.76-.67l.88-.23.73-.19-.12-.44c-.55-.43-2.45.24-2.79.73l-1 .27c-.08-.23-.11-.51-.41-.37a.76.76 0 01-.56-.32.78.78 0 00-.56-.33c-.37.33-.6-.54-.12-.44.31-.15-.2-.78.06-1l.44-.12c.32-.2.94-.56 1.32-.35.86.24 1.29 1.2 2.22 1.3.2-.25.5-.46.39-.89a13 13 0 01-1.82-1.56l.73-.19c.63-.2 1.12-.62 1.76-.46.36 0 .61.09 1.07-.12.37-.49-.2-.88-.12-1.07.6-.23.64-.79 1.5-.86a1.14 1.14 0 00.5-1.07c-.16-.05-.93-.45-.73.19h-.15c-.27 0-.62.6-.88.23.21-.08 0-.39 0-.63-1.85.62-1.76 3-3.9 3.07 1.12-.84 1.6-2 2.5-3 .36-.13.8-.85.36-1-1.08.2-1.11 1-1.64 1.53-.35.25-.77.46-.69 1a9.47 9.47 0 00-1.92 2.86l-.59.15c-.39.31-1.32.31-1.35.83l-.3.08c-.45 0 .16-.29 0-.48 1-1.64 3.17-2.62 3.85-4.46A23 23 0 00390 79.4c-.18 0-.41.13-.48 0a10.57 10.57 0 001.48-2.15h.15c.42-.82-1.08-.57-.92.08-1.6 2-2.81 4.25-5.42 5.66-.07.14-.74.54-.88.23 1.46-1.3 2.94-2.59 3.56-4.39-.55-.28-1.26.42-1.17.93-1.16 1-1.56 2.49-3.24 3.2-.12.34-1 .22-.91.71-.08.29-.31.48-.8.53-.22-.4-1.18.45-1.4.05 1.71-1.08 3.88-1.88 4.19-3.77-.93.2-.76 1-1.72 1.24-.29.2-.77.29-.76.67l-.29.08c-.34.26-1 .35-1.06.75h-.15c-.56.05-1 .8-1.25 0h-.15c0-.6.93-.83.61-1.26 2.63-1.32 4.08-4.41 6.33-6.37.31-.4 1.36-.36 1.5-.86a3.57 3.57 0 011.83-.79c.33.57.8.89 1.16 1.42a.86.86 0 00.84-1 7.45 7.45 0 01-.9-1c1.12-2.32 3 .28 4.71-.61-.11-.27.08-.37 0-.62-.51-.4-1.41-.13-1.78-.79.12-.3.88-.23.77-.67.29-.66 1.73-.65 1.45-1.64.34-.14-.27-.36-.41-.36.12-.22.35-.38.1-.81a6.4 6.4 0 00-1.93 1.61l-.06-.27-.08-.29c-.05-.19-.29-.07-.37-.22 1.23-1.15 2.72-2.14 3.09-3.79-.12-.44-1.15-.15-.84.38-1.21 1.43-2.59 3.43-4.34 3.81.64-1.66 2.4-2.66 3.49-4.05a5.81 5.81 0 011.68-1.38h.15c0-.38.49-.46.21-1-.3 0-.38-.35-.81-.1 0 .48-.79.53-.84 1 0 .64-1.06.7-1.24 1.27-.15-.71.19-1.13.16-1.77 0-.31 0-.64.25-.85.06-.38.38-.61.17-1.14a1 1 0 00-1.05 1.37c0 .19-.13.25 0 .48-.11.06-.29.08-.26.22h-.15c0 .87-.3 0-.4.26.37.42.09.67 0 1.1v.15c-.56 0 .24-1.08-.52-.8l-.29.08a1 1 0 000-.77c-.48-.08-.88.1-1 .56a21 21 0 01-1.87 3.63c-.23-.38.11-.43 0-.77.34-.18.18-.64.21-1-.27-.78.35-1 0-1.88l-.88.23a8.06 8.06 0 01-.51 3.43l-.5-1.91c-.48-.57-1.34.35-1 1 .2 1.15.89 2.59.78 3.56-.06-.1-.17-.14-.33-.07h-.15c-.11-.43-1.29-.12-1.17.31-.22.2-.2.55-.06 1a1.43 1.43 0 011.62.2c.09.2.31.18.41.36a1.23 1.23 0 00-.06 1 3.34 3.34 0 01-1.12 2.33c-1.77 2.08-3.77 4.11-5.45 6.14a32.77 32.77 0 00-2.55 2.24c-.07-2.77 1.9-4.36 3.76-6 .7-.17 1.41-.34 1.13-1.08-.26-.35-1.19.05-1.28.49h-.15c-.42.17-.87.32-.91.71a2.3 2.3 0 01-1.31 1 13.21 13.21 0 014.09-5.94c.58 0 .06-.85-.08-.92-.3.2-.77.29-.77.67a16.06 16.06 0 00-2 2.42 1.94 1.94 0 00-.87 1.48 5.69 5.69 0 00-.9 2c-.5-.11 0-.68-.27-1a3.12 3.12 0 01.09-1.44 1.22 1.22 0 00.5-1.08c.11-.39.5-.62.5-1.07a6.82 6.82 0 001.45-2.26c.27-.13 0-.6.47-.59a.82.82 0 00.69-1l-.08-.29c-.28-.52-1.17.05-1.14.46a11.75 11.75 0 01-.76 1.3 3.59 3.59 0 00-1.19 2c-.26.13 0 .6-.47.6 0-1.11.58-1.9.63-3 .45-.11.49-.46.77-.67 0-.48-.37-.37-.38-.84.16-.36.11-.85.32-1.18.42-.09.33-.47.25-.85-.27-.11-.75-.35-.73.19a8.93 8.93 0 00-.71 2.07c-.22-.42 0-.57-.08-.92l-.12-.44c.44-.2 0-.91.13-1.29-.23-.38.11-.43 0-.77-.36-.21-.55.31-1 .42l.12.44h-.15c-.26.18.25.81-.06 1-1.16.2-1.74.72-2.9.92l-1.91.5.08.29c-.28 0-.82.4-.92.08a26.83 26.83 0 003-2.83l-.27-1-.88.23c-.28 1.41-1.48 2.28-2.8 3.09-.64.43-1.05.36-1.54.72-.65.4-.71-.21-1.25 0 0-.3-.28-.24-.41-.36 2-1.21 4.26-2.89 3.66-5.2-1.32 1.51-2 4-4.48 4.47.49-.71.43-1.74.74-2.55.28-.13.23-1.49-.35-1.32-1.6.18-.75 1.8-1.74 2.34-.27 0-.32.32-.44.12a21.2 21.2 0 01.59-3.14 2.12 2.12 0 00.54-.92 8.16 8.16 0 011.59-2.3 3.32 3.32 0 011.91-.5c.26.26.66.28.82.73s.39 1 .79 1.21l.12.44.88-.23-.27-1c-.09-.35-.37-.36-.38-.84.19 0 .25.13.48 0 1.19.3 2.4.58 3.55 1a.57.57 0 00.43-.74 6.87 6.87 0 00-2.07-.71c.32-.54 1.11-.07 1.76-.46l.88-.23-.23-.88-.44.12c-.63-.33-1.8.24-2.61.21-.12 0-.29.07-.33-.07.83-.55 1.28-1.33 2.56-1.61.13-1.2-1.09-1.59-1.9-1.86.33-.43 1.27-.5 1.65-.9-.21-.22-.6-.1-.63-.62a3.83 3.83 0 01-1.51.24c0-.15-.17-.14-.22-.25.52-.07.33-.56.58-.78-.19-.33-.81-1-1.08-.5a10.19 10.19 0 01-2 3.81c-.23 0-.11-.88-.16-1.21.28-1.12.43-2.32 1.59-2.93l-.23-.88c-1.39.56-1.75 1.71-2.07 2.9-.15 0-.21-.07-.33-.07-.06-.17-.13-.34-.37-.22-.05-.19-.29-.07-.37-.22a1.45 1.45 0 00.39-.89c.15 0 .14-.16.25-.22-.28-.52-1.91.16-2.24.43-.12.18.1.55-.32.56-.2-.81-1.13-.34-1.59-.68.35-.16-.33-.25-.52-.18.14.33.32.59.63.62.73.74 2.06 2 1.14 3.15a8.58 8.58 0 00-1.82-.94c-.43 0-.22.37-.51.45.49.79 1.33 1 2 1.52.42.48 0 1 .32 1.8l.12.44c-.23.37 0 1-.09 1.44s-.75.64-.8 1.15a4.85 4.85 0 00-1.23 1.89c-.29.12-.18.47-.47.6 0-.19.13-.25 0-.48v-.15h.15a2.37 2.37 0 000-1.25c0-.15-.17-.14-.23-.26-.44.33-.35 1-.39 1.51-.42.09-.14-1-.56-1 0-.09-.07-.17-.18-.11s-.13-.14-.08-.29l-.16-.59-.88.23h-.15c0 .28-.47.22-.51.45.12.36.22.71-.1.81-.06-.11-.08-.29-.22-.26-.23-1.67.85-2.57 1.72-3.59.51.09.17-1.21-.23-.88l-.44.12c-.23 0-.21-.34-.52-.18-.88.48-.59 1.64-1.3 2.23 0-2.3 1.33-3.78 2.88-5.15l-.19-.74c-1.92.75-2.27 2.41-3.27 3.68-.52.05-.45-1.2.08-1.43h.16a13.86 13.86 0 002.74-5.11v-.15c-.42.23-.39-.33-.81-.1-.12.08-.54.57-.18.52.12.28-.12.34-.18.52-.49.21-.5.7-.65 1.11 0 .56-.44.82-.61 1.26-.42 0-.52.85-.8.53-.79-2.58 1.62-3.28 2.48-4.89-.28 0-.22-.47-.45-.51a15.44 15.44 0 00-1.64 1.53c-.54-1.29 1-1.93.7-2.7 0-.64-.42-.69-.49-1.28s-.15-1.45-.68-1.39c.25.33-.5.68 0 .77a1 1 0 01-.36 1 .64.64 0 00-1.1 0c.66.69 1.63 2.8.59 3.45-.33-.84-1.1-.94-1.53-1.64s-1-.62-1.44-.1c.05.48.34.55.63.62a19.9 19.9 0 002 1.82 3.85 3.85 0 01.24 1.51v.15c-.44.39.13 1.31-.73.82s-1.32-2.14-2.71-2c-.19.35.15 1 .24 1.51-.31.23.09.88-.17 1.14l-.59.16a1 1 0 000 .77c-.68.23.26.64.16 1.21 0 .27.34.7-.14.66-.18 0-.41.14-.48 0 .22-.2.2-.54.06-1-1 .07-.61 1-.68 1.59-.51.24.08 1.13.13 1.69.2.37.3.9.6 1.1a7.15 7.15 0 01-.48 3c-.35 0-.05.47-.33.56-.27-1.26-.83-2.6-1-3.34a2.83 2.83 0 01-.16-1.21l-.08-.29h.15a3.4 3.4 0 00.06-1c-.28-.54.58-.41.21-1-.82-.14-1 .82-1 1.52h-.14a3.4 3.4 0 00.09 1.55c-.84.17-.62 1-1.24 1.26h-.15l-.29.08c-.36-.38.35-1.2.12-1.91-.2-.53.49-.54.17-1.14-1.5.78-1 2.71-1.24 4.25a.71.71 0 01-.48 0 12.19 12.19 0 01-.51-2.53c-.21.08-.55.09-.55.3h-.15c0 .56.19 2.31.8 2.46a8.46 8.46 0 01-.54 1.55c-.5-.56-.21-1.52-.76-1.69l-.73.19.08.29h-.15a2.06 2.06 0 010 1.25 1.24 1.24 0 01-.67-.77 1.33 1.33 0 00-1.09.6c.11.45.33.71.67.77.37.22.82.3 1.11.65a2.86 2.86 0 01.46 1.14c-.25.35.5 1.29-.09 1.44-.29-.35-.74-.43-1.11-.65-.34-.57.07-.71 0-1.1-.88-.31-.17.73-.87.86-.33-.53-.69-.53-1.29-.13-.15-.31-.44-.39-.63-.62l-.19-.74v-.15c-.24-.4-.45.21-.73.19a5.35 5.35 0 01.24 1.51c.13.57-.32.81-.09 1.44-.73-.67-.62-3.89-1.55-3.52-.57 0-.05.63-.06 1 .2.73.39 1.47.58 2.2l.16.59c-.31.48.1 1.39-.31 1.81.22.42-.14.5.08.92h-.15a5.72 5.72 0 00.05 1.4c0 .18 0 .36-.22.37-.33-.35-.56-.88-1.26-.61v.15a2.06 2.06 0 01-.5-1.91c.2-.8 0-1.81.26-2.58.53-.61-.08-1.87-.29-2.91-.06-.4-.33-.43-.7-.28-.29.49.56 1.65.25 2.13-.16-.65-.35-1.24-1-1 .34-.51-.78-1-.7-.29.21.58.28 1.07-.13 1.29-.08-.23-.12-.51-.41-.36s.13.74.13 1.07v.15c-.19 0-.25-.14-.48 0-.05-.48-.34-.55-.63-.62v-.15l-.51-1.43-.08-.3c-.33-.69.51-1.35-.17-1.84-.25.44-.61.81-.39 1.51 0 .33.44.92.13 1.07-.49 0-.5-.85-.68-1.39v-.15c-1 0-.61 1.43-.05 1.58 0 .48.37.37.38.84L332 70c-.63-.2-.7-1.36-1.45-1.35-.39 1.52 1.77 2 2.72 2.58a1 1 0 00-.7.34c.15.61.29 1.21.68 1.39.11.66.62.65.79 1.21-.37.35-1.05-.61-1.59-.68-.3-.18-.49-.58-.82-.73 0 .25-.43.25-.14.67h-.15c-.36-.57.14-1.28-.5-1.28-.93-.32-.77.92-.68 1.59h-.15c-.12.34.08.88 0 1.25a3.58 3.58 0 01-.53 2.18c-.27.09 0 .51-.33.56 0-.19.14-.25 0-.48s-.08-.29-.12-.44h.15c.19-.35-.15-1-.24-1.51l-.15-.59a1.62 1.62 0 00-.39-1.47c-.22-.34 0-1.34-.6-1.1-.07-.16-.27-.1-.48 0-.77.78.74 2.5.53 3.78l.19.73a17.3 17.3 0 01-.2 5.23c-.27 0-.4-.17-.45-.51-.31-.18-.34-.83-.49-1.28l-.77-2.94c.17-.07.1-.27 0-.48h.15c.17-.4-.22-1.12-.09-1.54v-.15h.15c.12-.34-.08-.88 0-1.25l-.08-.29c.25-.56.81-.94.83-1.63.4-1.71 1.13-3.23.78-5.38.42-.09.1-1.25-.2-1.36 0-.53-.52-.11-.81-.1.07.46-.32.64 0 1.25.09.35-.14.5.08.92a13 13 0 01-.09 2.06c-.18.08-.24.31-.33-.07l-.08-.3a4.76 4.76 0 00-.52-3.16c.06-1.2-1.5-1.58-1.37-.43v.15c.12.93.95 1.78.69 2.64-.3-.12-.23-.88-.67-.77a25.65 25.65 0 00-2.05-2.44v-.15a.65.65 0 10-.13 1.29c.9 1.37 2.08 2.25 2.77 4-.14.75.43 1.3.25 2.13v.15h-.15c-.12.34.08.88 0 1.25v.15c-.58-.09 0 .52-.32.55l-.62-2.35c-.34.09-.5-.14-.92.08 0 .38.46 1 .16 1.21a.41.41 0 01-.41-.36c-.17-.43-.32-.87-.71-.91a.62.62 0 00-.93-.54c-.18.31.11.89.2 1.36 0 .31-.64.21-.47.6-.57.54.55 2.07.25 2.76-.06-.11-.08-.29-.22-.25a1 1 0 01-.34-.7c0-.5-.28-.66-.42-1s-.08-1.57-.68-1.39c-.22.08-.56.09-.55.3-.09 0-.17.07-.11.19a1.63 1.63 0 00.39 1.47c.12.5.22 1 .6 1.1 1.65 2.78 4.29 3.87 6.19 6.22a5.43 5.43 0 001 3.19l.27 1a9.19 9.19 0 00.61 1.72c-.68 0-.91-.86-1.52-1a1.22 1.22 0 00-1-.69c-1.52-1.22-3.26-2.08-4.35-4-.17-.35-.23-.89-.67-.76l-.11-.44c-.25-.28-.28-.94-.71-.91-.49-.36-.67-1.26-1-1.94s-.37-1.49-.9-1.65c-.33-.44-.46-1.19-1.08-1.13-.5.52.25 1 .32 1.8.23.67.43 1.39.9 1.65l.08.29c.38.27.27 1.38.83 1.35.32.51.81.75.9 1.65l-.29.08c-1-.74-2.1-1.22-2.72-2.58-.2-.3-.29-.77-.67-.77-.05-.55-.55-.33-1-.21l.23.88c.17.35.23.89.67.76 1.74 2.85 5.08 2.94 7.06 5.37-2.18-.67-4.53-1-6-3-.71-.45-1.13.93-.36 1 .27.32.71.34.86.87a3 3 0 001.11.65c2.92 1 6 1.78 8.58 3.4.25.35.46.77 1 .69s.71.92.9 1.65.48.75.53 1.43c.14.53.22 1.18.64 1.24l.08.29c.37.71.46 1.9 1.06 2.23l.08.29c.38.41.32 1.58.9 1.65l.12.44c.38.27.27 1.38.83 1.35l.16.59a9.48 9.48 0 01-2.34-1.74c-.63-.69-.58-1.63-.69-2.64-.2-.75 0-1.22-.57-1.58-.91.25-.16 1.48-.38 2.14-.07-.23-.12-.51-.41-.36v-.15c-.31-.32-.24-1.29-.79-1.2a1.07 1.07 0 00-.88.23 13.1 13.1 0 002.51 3.58c.11.26.82 1.2.2 1.36-1-.39-2.19-.51-3-1.25 0-.18.19-.22.4-.26.48-.33-.25-1.5-.61-1.72l-.12-.44c-.24-.93-.49-1.86-.73-2.79l-.23-.88c.09-.51-1.21-.17-.88.23l.12.44a5.5 5.5 0 001 3.82c0 .23.19.53 0 .63-1.74-.64-2-2.5-1.93-4.36a3.09 3.09 0 00-.73-2.79c-.31-.45-.55-1-.86-1.5-.28-.7-.8.27-.8.52.34.27.27 1.25.79 1.21l.15.59.39 1.47c0 .23.37.71 0 .77a.42.42 0 00-.41-.36c-.22-.41-.82-.16-1.07-.5a.82.82 0 00-1.11-.65c-.06 1.6 1.44 2.15 2.21 3 .34.34.34 1.26.83 1.35.07.26.62.75.27 1a7.9 7.9 0 01-2.85-1.29c0-.48-.48-.17-.49-.66-.26.14-.94 0-.66.49.46 1.69 2.94 1.77 4.3 2.64 2.41.07 3.71 2 6.07 2.17 0 .31 1.18.22.45.51-1 .59-2.2.39-3 1-.57.33-.65-.16-1.11 0-.12-.58-1 .09-1.29-.13l-.44.12a1.31 1.31 0 00.08.92l.3-.08c.14.47.75.14 1.14.17.48-.25.62.07 1.07-.12a1.54 1.54 0 001.25 0l.11.44v.14l.08.3-1.76.46.08.29h-.15c-.17.35.06.18.16.59-.49 0-.85.73-.58.78a.45.45 0 00.37.22c0 .24-.3.19-.44.11-.41.13-.46-.35-.85-.25 0-.57-1.06-.08-.88.23.77 1.16 2.18 1.23 3.52 1.43.47.68 1.48.45 2.11.86l-.73.19-.29.08c-.18-.39-.78-.08-1.14-.17a6.32 6.32 0 01-2.55-.74 3.05 3.05 0 00-1.11-.65c-.38-.05-.51-.54-.82-.73-.45-.75-.86.42-1.1.6a.42.42 0 00-.52-.18c-1.54-.13-2.11-1.93-3.78-1.83 1.06 2.45 3.47 2.58 5.56 3.25a7.71 7.71 0 001.55.54c.67 0 .93.67 1.7.49-.26.42-1.35.48-1.76.46h-.15c-.28-.92-1.3.84-.59.16 0 .48.29.5.38.84.42-.22.5.14.92-.08v.15a1.29 1.29 0 00.92-.08l.88-.23c-.64.55-1.26.5-2.17.73v.15c-.65.33-.7-.36-1.4.05.08.29.16.59.23.88l.44-.12c.22.47.89.18 1.44.09 2.63-.65 3.59-3.3 6.52-2.65.45.76.09.55-.25.85-.36.12-.52-.1-.7-.29-.4-.7-1.27.79-.43.74.54.56 1.49.43 2.43.3.06.19.24.15.26.4.62.93 1.64 1.16 2.16 2.26-.27.09-.46.22-.51.45v.15c-.36 0-.41-.44-.85-.25-.66.58.78 1 1.12 1.28.66 1.07-.41 0-.92.08a2.38 2.38 0 01-1.12-1.28.84.84 0 00-.55.3c-.7-.37-.94-1.51-1.82-1.56l.12.44c.1.53.33.85.71.91.89.81 2 1.18 2.89 2.06-.38 0-.88.24-1-.21s-.64-.2-.77 0 .52.45.15.59h-.15l-.25.06-.19.05c.13.5.52.57.93.59h.32c.11.59 1-.23 1.29.13-.4.14-.42.51-.52.83a.88.88 0 01-.13.28.35.35 0 00-.25.21l.28.26c-.1.25-.31.43-.17.83a1.67 1.67 0 01.31-.69l.52.51a6.41 6.41 0 01-.53.72c0 .14.21.07.33.07.14-.2.26-.4.39-.6l.32-.52c.32-.5.64-1 .95-1.52.4 0 .56.32 1 .21a8.59 8.59 0 01-1.55 1.74l-.43.39c-.21.19-.41.38-.61.58a3.13 3.13 0 00.46.56c-.26 0-.52.05-.76.1l-.12-.13a2.59 2.59 0 01-.48.25c-.33.08-.65.17-1 .26a5.76 5.76 0 00-1.43.38 7.92 7.92 0 00-2.49 1.61c-1.19.12-2.13 1.27-3.18 2l-.24.39c-.32.21-.56.73-.9.87l-.13-.08-.48.77c-2.94 1.57-6.23 26.83-6.23 26.83-1.37 4.13-2.45 8.29-3.66 12.39-.18.61-.34 1.21-.51 1.82l-.33 1.16c-.14.49-.29 1.07-.46 1.7v18.48h109c.74-3.43 1.12-6.73 1.54-9.63zm-24.07-73.28c-.29.33-.55.65-.82 1-.9.05-1.5-.42-2.36-.46-.07-.33.61-.22.84-.38a3.28 3.28 0 001.36-.2l.44-.12a.62.62 0 00.5.16zm-1.91-1.23v.15c.33.15.86-.06 1.14.17l-.88.23c-.52.26-.75 0-1.22.16l-.44.11c-.52-.38-1.6.18-2.32.14h-.15v-.15c-.45 0-1 .07-1.4.05-.2.07-.41.13-.48 0s-.86.13-.37-.22l.73-.19v.15c.72-.23 1.84 0 2.35-.62 1.4-.67 1.72.51 3 .03zm-7.66.13c.59-.51 1.29-.25 1.87-.65 1.17-.08 2.65-1.1 3.27-.7a8.08 8.08 0 01-3.41 1.37c-.5-.29-1.48.26-2 .06zm1.54-22.22c.55-.32.82-.16 1.62-.43.23 0 .08.24-.07.33a7 7 0 01-2.35.62 1.23 1.23 0 01.77-.52zm-1.19-.94l.73-.19c0 .15.17.14.23.25a12.1 12.1 0 01-2 1.31c-.06-.12 0-.15.11-.19h.15l-.12-.44c.14-.34 1.05-.22.87-.74zm-.82-.73l.3-.08c.26-.09.38.05.41.36l-.88.23c-.09 0-.18 0-.18-.11a.42.42 0 00.32-.4zm-.86-16.41a3.08 3.08 0 00.65-1.11c-.16-.3.23-.28.18-.52.21 0 .22.33.3.55-.45.11-.23.61-.21 1a11.36 11.36 0 01-2.48 4.89.71.71 0 01-.4.26 11 11 0 011.93-5.07zm1.77 3.15c.07.16.27.09.48 0a23.43 23.43 0 01-3.08 3.33c-.22.29-1 .26-1.1.6-.14 0-.16-.15-.23-.25 1.24-1.26 1.54-3.07 3.9-3.68zm-19.61-12.44l1.17-.31c.44-.25.51.11.81.1 0 .14-.15.16-.25.22-.35.17-.89.23-.77.67h-.15c-.27.3-1.1.27-1.06.75h-.15c-.27.34-1.25.27-1.21.79-.67.29-1.05.1-1.66.28a4.32 4.32 0 013.27-2.5zm-3.19-2c.09 0 .18 0 .19.11.12.61-.35.87-.05 1.58-.26.22-.17.65 0 1.11-.63.59-1.05 1.29-1.71 1.86-.2 0-.18-1-.2-1.36a34.94 34.94 0 011.76-3.29zM322.9 76c.2-.63-.4-1.72-.51-2.54 0-.09 0-.18.11-.18.74 1 2 1.15 2.21 3 .22 1.11.81 2.73.89 3.38a10.53 10.53 0 01-2.7-3.66zm25.82 51.13c.16-.05.3-.09.33.08a1.82 1.82 0 01.17.41zm2.94-3.74c-.14-.12-.38-.06-.41-.36.15-.08 0-.32.22-.37.38-.15.08.86.59.47 0 .14.21.07.33.07.56-.26-.17-.69.06-1 .18 0 .25-.1.26-.22.38-.23.43.11.77 0 0 .37.35.25.34.7.47.65-.38.52-.21 1l-.29.08c-.87.39-1.09-.3-1.66-.39zm2.68-47.16c.42 0 1.12-.49 1.36-.2-.41.67-.18 1.72-.82 2.25-.37.21-.08-.72-.45-.51-.18 0-.19-.24-.26-.4h.15c.11-.37-.2-.92.02-1.16zm1.13-1.08l-.88.23-.08-.29c0-.09 0-.18.11-.19.29-.29.63-1.72.94-1.19a.85.85 0 010 .62c0 .22-.18.31-.18.52zm4 6.47a.49.49 0 01.53.8c-.2.09-.08.37-.18.52-.64.28-.56.33-.56-.32-.16-.52.48-.52.26-1.02zm1.92-2.86c.24-.34 1-.77 1.32-.35a1.83 1.83 0 01-1.2.79c-.18.08-.24.31-.33-.07.22-.13.38-.13.26-.39zM364 75.4l.11.44c-.33.14-.14.58-.62.63 0-.24.12-.43.14-.66-.17-.59-.01-.35.37-.41zm.37 3.2v.15c0 .18.14.41 0 .48-.38.78-1.63.55-2.13.25.3-.24.34-.63.91-.71h.15c.16-.31.97-.6 1.09-.17zm5.33 6c-.21.13 0 .5-.51.45-.12-.36.11-.51.1-.81.61-.24.37-.07.43.33zm2 7.64c-.27-.07-1.62.29-1.69.76-.4.18-.32.64-.91.71 0-.64.52-.94.72-1.44.73 0 .33-.72 1.06-.75v.15c.23 0 .71-.37.77 0-.24.2.45.33.07.54zm3-1.58c-.33-.21-.34.22-.88.23l.27 1-1 .27c.31-.58-.43-.68-.49-1.28.44-.55 1.24-1.58 2-1.17a1.29 1.29 0 00.16.91zm1.54 16.34c0-.43 1.12-.82 1.11 0-.57.38-.66-.11-1.11 0zm1.13 1.9c0 .44-.54.51-.54.93-.25-.21-.6-.25-.67-.77.27.2.78-.06 1.21-.13zm-1.08-1.13a.57.57 0 01-.73.19l-1 .27c-.15-.34.69-.09.32-.56.17-.07.42-.08.4-.26.55-.24.64.32 1.01.39zm-9.8 8.69l-.29.08a3.52 3.52 0 012.2-.58c-.62.26-1 1.29-1.94 1 .78.04.89-.96.03-.46zm-1-15.75c.18-.27.22-.62.76-.67.44-.54 1.25-.25 1.91-.5l.59-.15c.19.44-.65.29-.62.63a1.87 1.87 0 00-1.24.64c-.44-.76-.74.4-1.14.46-.17.05-.22-.12-.26-.37zm-.38 2.14l-.08-.29c-.05-.36.43.06.62 0 .21.61-.27.19-.54.33zm.75-7.89c.48-.05.21-.54.8-.53.09.47.38 1.05.2 1.36-.2.09-.18.31-.36.41a1740.21 1740.21 0 01-.82-.73c.06-.13.32-.19.19-.47zm4.82 8.78c.06.19.24.16.26.4s-.07.21-.07.33c-.34-.08-1-.12-.78-.58-.09-.33.49-.13.59-.11zm1.68-4.36l-.44.12c0-.29-.25-.28-.3-.55a1 1 0 00.77 0c.04.18-.13.24-.03.47zm-.44 9.69c0 .66-1.38 1.39-1.94 1-.29-.42.14-.42.14-.66.21-.37.81-.31 1.17-.31s.55-.21.63 0zm-1.31-1.39a4.25 4.25 0 01-.94-.21 4.18 4.18 0 00.95.24zm-2.75 3.32c-.33.13-.53.45-.88.23-.27 0-.7.34-.67-.14a2.28 2.28 0 001-.27c.46.47.08-.85.7-.34a1.25 1.25 0 011.14.17c0 .67-.58 1-1.24 1.27h-.15c-.5 0 .21-.26.4-.26-.01-.36.18-.72-.3-.66zm-1.94-5c.65.18.63-.35 1.28-.49 0 .18.14.41 0 .48-.34.16-1.2.7-1.28.01zm3.07 3.9c0-.17.27-.18.22-.37s-.16-.14-.22-.26l.44-.12c.34 0 .32.75.23.88-.38.2-.38-.23-.66-.15zm-.15-3.57l-.12-.44c-.09-.41-.32-.23-.15-.59.23-.2.31-.48.62-.63s.69.09.78.58a6.17 6.17 0 01-1.14 1.06zm-1.49 8.08h-.15a3.24 3.24 0 01-1.28.5v-.15c.13-.22 1.15-.61 1.43-.37zm.32-.56c-.17-.62-1.26.32-1.58-.06.19-.14.8 0 .69-.34.34 0 .88.13.84-.38.27 0 .26-.26.55-.3a1.08 1.08 0 00-.52-.18c0-.18.23-.19.4-.26.34-.3 1.12-.34 1.21-.79h.15a4.18 4.18 0 002.26-1.54h.15c.58 0 .66-.36 1.14-.45-.6.6-.7 1.5-1.52 2-.11.12-.21.25-.29.08-1.43 0-2.15 1.6-3.48 2.2zm6.19-6.33v-.15l.29-.08c0 .21-.13.34 0 .63-.42.09-.16.57-.8.53-.05-.19-.29-.07-.37-.22.02-.42 1.15-.15.88-.73zm-1.71 7.83a5.46 5.46 0 001.51-.24l.73-.19c.35.4.86.52 1.19.94-.73 0-1.59.31-2.28.28-.82.21-1.23-.3-2-.27.32-.19.36-.49.84-.54zm2.22-2.31c-.48 0-.37.37-.84.38-.24 0-.54.22-.62 0a3.7 3.7 0 012.71-1c.2.58-.89.36-1.26.58zm.42-2c.37-.12.44-.4.62-.63.18 0 .19.24.26.4-.42-.08-.59.61-.89.19zm-.61-8.31c.17-.29.77-.25 1.07-.12-.47.1-.89.23-1 .57h-.15l-.44.12a2.5 2.5 0 01.51-.59zm-.52-3.16c-.66.2-1.32.4-.85-.25.21-.35.37-.11.74-.19h.15c.09.16-.09.23-.05.42zm1.8 3.29c.13 0 .13-.09.11-.19.19-.34.44 0 .77 0a1.73 1.73 0 01-.83 1.63c-.1-.69-.89-.19-1-.83.41-.2 1.04-.2.95-.63zm-.53-1.43c.28-.55 1-.95 1.36-.2l.12.44c-.49.6-.89-.39-1.49-.26zm-1.67-4.58c-.09.13-.34.33-.44.12a1.8 1.8 0 00.94-1.19c.41 0 .8-.67 1.17-.31-.77.31-.8 1.08-1.68 1.36zm-.49 8.29c.49 0 1.74.11 1.58-.57l.58-.16a.54.54 0 01.23.88c.25.44-.3.4-.29.7-.42 0-1.12.49-1.36.2a.42.42 0 00.36-.41c-.15-.67-.82-.44-1.47-.24-.09-.27.05-.39.36-.42zm-2.08-7.3c-.06-.33-.54.07-.77 0 .08-.49 1.2-.38 1.17-.93.63 0 .69-.42 1.28-.49v.15a4 4 0 01-1.68 1.24zm-1.33-3.26c.13 0 .12-.09.11-.19.65-.58 1.76-.88 2.08-1.64.11-.06.29-.08.25-.22a1.23 1.23 0 01.53.8c-.99.31-2 1.29-2.97 1.22zm0-8.47c.12 0 .29-.07.33.07h-.15c.07.52-.38.67-.48 0zm.12 13.62c0-.23.32-.23.55-.3.36.63-.08.78-.17 1.14-.45 0-.33.31-.69.34-.18 0-.41.13-.48 0 .31-.42.68-.71.77-1.2zm-.74-10c-.13 0-.19-.11-.33-.07h-.15c-.29-.57-.81-1.15-.65-1.87l-.29.08-.08-.29c.52 0 .88.2 1.44.09.56.66.17 1.43.03 2.03zm-1.19 2c.23.38-.11.43 0 .77v.15c-.63 0-.17.56-.81.52-.1-.18-.32-.16-.41-.36h.15a1 1 0 000-.77zm-.85-.73c-.11-.32 0-.5.33-.56l.16.59c-.19.08-.42.15-.49-.03zm-.29-2.28c-.68.38-.74-.29-1.29-.13 0-.32.66-.28.62-.63.46-.08.45-.62.84-.38s-.27.68-.16 1.15zm.07 8.62c-.16.57-.16 1.23-.87 1.48h-.15a2.28 2.28 0 00-1.58-.06l-.29.08c-.27-.4-1-.06-1.44-.09 0-.22.18-.31.18-.52.23-.2 0-.65.62-.63.68-.42 1.65.08 1.72-.61-.16-.23-.51-.12-.7-.29.57-.09 2.09-.15 2.51.65zm-3.87 12.16c-.18-.06-.83-.4-.92.08 0 .26-1 .53-1.17.31a13.8 13.8 0 011.86-1.28 1.25 1.25 0 011.44.09l-.88.23q.28.56-.33.58zm-.37 5.75l-.74.19-.59.15c-.26-.67.73-.62 1.1-.6.06.12.19.12.23.27zm-5.49-3a.71.71 0 01-.4.26c0-.35-.47-.05-.56-.32h.15c.07-.14.73-.54.88-.23-.1.04-.13.18-.07.34zM354.2 99c.38.13.85.11 1 .69-.62.22-.23 1-.95 1.19a9.92 9.92 0 01-.05-1.88zm.4-.26a2.57 2.57 0 01.71-2.07c1.28.33.21 1.08.21 2-.41.21-.52-.15-.92.07zm2 11.39c-.13-.33.38-.28.33-.56.25-.54 1.56-1.49 2.16-.72-.48 0-.37.37-.84.38-.19.26-.95.19-.77.67zm7.12-5.16a11.6 11.6 0 01-1.26-.61c.07-.44.77-.2 1-.27l.29-.08c.25.44-.28.45.02.99zm-1.46 1a.41.41 0 01-.52-.18c.54-.14.33-.72.5-1.07.44.17.91.29 1.15.8.04.36-.75.28-1.08.48zm1 .83c0 .22-.42.17-.36.41-.18 0-.41.14-.48 0 .38-.37.39-.75.9-.4zm-1.77-3.15a.85.85 0 01-.55.3l-.27-1c.65-.26 1.83-1.56 2.5-.66-.84.26-.58 1.2-1.62 1.38zm-.94 1.82c.19-.06.15-.24.4-.26.27-.17.5-.67.74-.19 0 .24-.12.43-.14.67-.39.1-.83.28-1.07.12.06-.12.17-.18.13-.33zM361 101l.29-.08h.15c.23.31.88-.09 1.14.17a3.78 3.78 0 00-1.79.94h-.15c-.23-.56.36-.65.36-1.03zm1.95-.35c-.18 0-.41.13-.48 0 .35-.34-.81.14-.85-.25.48 0 .37-.37.84-.38h.15c.39-.43.59.57.39.61zm-1.06-2.86c-.42.14-.58.77-1 .56.18-.14-.12-.57.14-.66s.88-.45.86.08zm-.09-.92c.22-.12 0-.5.51-.45.15.31.8-.23.85.25h-.15c-.37.02-1.01.49-1.21.18zm-1.53-5.25l-.08-.29c0-.27.2 0 .44-.12v.15c.09.35.37.37.38.84-.51.28-.24-.82-.74-.6zm-1.09 13.79c-.37.28-.62.19-1.07.12 0-.41 1.11-.18.91-.71 0-.13-.09-.12-.18-.11a.74.74 0 01-.26-.4c.76 0 .52-.53 1.1-.6.08-.07.47-.51.59-.15-.28.21.36 1 .2 1.36-.31.71-.89-.13-1.29.47zm1.2 1.57a.45.45 0 00-.21.37c-.2.09-.18.31-.36.41-.24-.22-.8.09-1.1 0 0-.12.11-.18.07-.33.19-.06.15-.24.4-.26.4-.45.68-.54 1.19-.17zm-2.47-6.42c.31-.36.36-.87 1.17-.93.18 0 .41-.14.48 0-.23.5-1.14.59-1.66.91zm1.92.75a.41.41 0 01-.18.52l-.44.12c-.26.09-.38-.05-.41-.36l.3-.08zm.08-5.67a.42.42 0 00-.41-.36c-.54-.14.69-.61.1-.81-.18-.5-.58.44-.62 0 .07-.25.1-.52.47-.59s.28.38.55.32a1.1 1.1 0 01-.09 1.42zm-.57-11.15c-.27.18-.34 1.12-.73.82a9.84 9.84 0 01.42-2c.17 0 .18.27.37.22.1.37.31.83-.06.94zm-.51-2.54c-.33.06-.41-.29-.49-.66h.15c.06.11.17.14.33.07.11.22-.08.32.01.58zm-.37 9.36c.24 0 .54-.22.63 0 .28.45-.39.35-.66.49a.71.71 0 00.03-.51zm.1 5.15h-.15a3.42 3.42 0 01-.8.52c-.06-.11-.19-.11-.23-.25.71 0 .16-.74.91-.71.43-.51.51.11.27.43zm-1.68-5.21c.33-.18 1.11-.1 1.13-.46.61.21-1.01 1.39-1.13.45zm1.06 21.38c.37 0 .25-.35.69-.34-.12.3-.65.37-.58.78l-.59.15c.08-.22.1-.53.48-.6zm.42-2c.2.44.91 0 1.29.13h.15c-.05.8.83.65.49 1.28-.33 0-.23.28-.18.52-.63-.36-2.11-1.33-1.76-1.93zm2 9.22a.86.86 0 010 .63l-.44.12c-.13-.27-.6 0-.6-.47.46.06.37-.13.98-.29zm-1.24-9.85c-.23 0-.53.19-.63 0a12.87 12.87 0 001.53-1.34 1.14 1.14 0 00.69-1c0-.12-.07-.29.07-.33.2.22.47.33.63.62-.15.49-.79.7-.94 1.19-.34.33-1.26.33-1.35.86zm4.14-2.19c.31-.15.38-.44.62-.63.8-.4 1.33-.09 1.11.65a.76.76 0 01-.32.56c-.3-.54-1.08-.21-1.41-.62zm.36-16.57c-.64 0-1.48-.17-1.33-.91.28-.25.24-.68.54-.93a5.73 5.73 0 011.11 0h.15v.15c.26.12.65 0 .85.25-.49.4-.87.92-1.33 1.4zm.35-5.27a1.29 1.29 0 01-.94 1.82 12.25 12.25 0 01.46-1.85c.29-.08.08-.45.51-.45 0 .15-.15.21 0 .44zm-1.18-3.3v-.15c.42-.08-.43-.92.25-.85.36-.12.71-.22.81.1a1.12 1.12 0 01-1.07.86zm.68-1.59c-.38.23-.43-.11-.77 0-.09-.2-.31-.18-.41-.36l.29-.08c.1.32.64-.1.92-.08a.72.72 0 00.26.4zm-1.07 6.09c-.16.49 0 1.13-.57 1.41l-.23-.88c-.08-.37-.17-.71-.38-.84a1.24 1.24 0 01.91-.71c.43.02.19.71.25.97zM361.1 84c0 .1.05.2.08.29-.13.22-.47.3-.84.38-.13-.49-.26-1 .36-1 .19-.1.23-.28.55-.3.06.27-.36.27-.15.63zm-.4 3.87l.15.59c.47.58-.79.77-.95.56.14 0 .07-.21.07-.33.34-.21.14-.74.73-.81zm-1.41-7.16c-.18 0-.41.13-.48 0s-.43 0-.52-.18c.48-.05.45-.4 1-.42v.15c-.13.05-.02.28 0 .46zm-1-1c.18-.43.25-.93.43-1.37.22 0 .36.24.45.51-.64.15-.33.77-.92.89zm.12 4c-.2.47-.23 1-.39 1.52-.06-.19-.24-.15-.26-.4-.1-.43-.1-1.55-.54-2.05a.94.94 0 01.17-1.14h.3l.08.29a4.58 4.58 0 01.6 1.85zm-1.9-8.45c-.08-.27 0-.34.25-.22.3.33.76.39 1 .83-.49.66-1.19.13-1.29-.53zm1.13 2.74a18.53 18.53 0 01-.78 2.4h-.15c-.16.07-.27 0-.33-.07s-.09-.42-.26-.4c-.07-.33-1.06-.15-.63-.62S357 78 357.64 78zm-1.5 6.83l.44-.12.12.44c-.16.4-.76.35-.52-.18zm-1-4l-.23-.88c.45-.12.5.42.67.76v.15c.33 1.64.06.21-.48.02zm.05 1.4c.36 1 .61 1.54-.36 1-.66-.35-.93-1.39-1.46-2a5.41 5.41 0 011.78 1.05zm.42 4.6c0-.15.07-.21.07-.33-.26-.95.43-.15.84-.38.41.09.5-.59.74-.19a5.65 5.65 0 000 1.1l.08.29c-.48.17-.46.64-.5 1.07h-.15c-.3.2-.77.29-.77.67h-.15c-.19.1-.23.29-.55.3v-.15c.56-.46.48-1.3.94-1.81s-.34-.35-.59-.53zm-.34 5.27c.72.76 1.93 3.46.6 4.08l-.23-.88c-.52-.08-.5.09-1 .27l-.08-.29c.09 0 .17-.07.11-.19.56 0 .09-.7 0-.77-.67.11-1.07.37-.84 1-.59.38-.53-.38-.67-.77.72-.25-.17-.44-.19-.73a4 4 0 00.25-.85c.49-.29 1.79-.11 1.69-.75zM353 99.31l-.58.15-.12-.44c.4-.14.7-.11.7.29zm-.26 3.21l.08.29-.33.55c-.39.07.14-.3-.15-.59l-.12-.44c.24.01.33.21.55.19zm-.18 13.07c.18.19.53.09.81.1.5-.3.51.25 1 .06.07.33-.61.23-.84.38-.4-.23-1.22.25-1.58-.05h.15c.41-.08.2-.41.5-.49zm1.39 8.89l-.59.15c-.22-.5.32-.56.77-.67s.36-.37.84-.38a1 1 0 01.34.7c-.53.26-.84.08-1.31.21zm1.18-9.25c-.4 0-.56-.32-1-.21-.05-.48-.7.07-.85-.25.11-.1.23-.2.21-.37a5 5 0 011.86-1.9c.05.19.29.07.37.22-.66.54-.66 1.49-.55 2.51zm.5-1.07a.74.74 0 000-.48c-.16-.47.34-.54.4-.89 0 .09.07.17.18.11 0 .25-.43.25-.14.67-.32.05.11.59-.4.59zm1.26.61l.11.44c-.28 0-.82.4-.92.08-.23-.49.57-.35.85-.52zm.88 8.72l-.12-.44-.44.11c-.24 0-.54.22-.63 0s-.45-.08-.45-.51a9 9 0 011.72-.61 10.54 10.54 0 011.34 1.53h.15c0 .47-.35-.06-.59.16a.87.87 0 01-.94-.25zm4.54 1.16a1 1 0 01-.34-.7h.15c.47.55.89 1.16 1.38 1.68.07.08.51.47.15.59a3.15 3.15 0 00-2.14-.38c-.56-.33-1.23-.46-1.78-.79-.42 0-1.16-.55-1-.83a3.55 3.55 0 011.7.49l.08.29c.58 0 .4-.87 0-.77a4.08 4.08 0 01-.85-.25c0-.22.18-.31.18-.52.12-.64-1.52-1.22-1.2-2.2.2.16.47.19.6.47.4.24.67.69 1.15.79a4.84 4.84 0 001.57 2.41l.08.29c.32.53.65-.04.31-.57zm-1.09-4.74c-.06-.33.29-.41.66-.49 0 .13.09.12.19.11.1.33-.57.23-.81.38zm.77 2.94c.18-.06.34-.14.22-.37h-.15c0-.7 1-.11 1.21-.79-.27.1-.37-.08-.63 0s.1-.5.14-.67l.29-.08h.15c.33.21.36.94.53 1.43-.42.16-1.22.75-1.75.47zm2.13-3.86c-.05-.27-.24-.31-.52-.18.07-.37.91-.3 1.28-.49l.44-.12c0 .34-.81.19-.62.63l-.44.11zm.38 1.47l-.12-.44v-.15l.88-.23a1.05 1.05 0 00.41.36c.09 0 .18 0 .19.11.02.89-.74-.11-1.31.35zm2.34 1.74c-.7-.36-1.37-.78-2-1.19.44-.19.59.13 1.06-.12h.15c.07.17.3.05.48 0 .15.27.66.98.36 1.31zm1-1.67c0-.09-.07-.17-.18-.11-.19-.58-.18-.6.32-.55.28-.06.23.46.56.32.12.31-.49.2-.68.34zm1.22.46a.67.67 0 01.66.14c.06.19.24.15.26.4l-.73.19a7 7 0 01-.93-.54c.04-.46.52-.03.76-.18zm2 .9l-1.76.46a2.29 2.29 0 011.7-.46zm11.88-.77c1.08-.07 1.76.52 2.7.71-.91.65-1.82.61-3 1a.74.74 0 01-.81-.1c.66-.2 2.49 0 2.42-1l-.29.08-1 .27c-.59-.26-1.59.17-2.32.14l-.44.12c.36-.57 2.69-.39 1.86-1.27a3.48 3.48 0 00.87.05zm-3.61 0v.15c.24.15.68 0 1.07-.12a3.77 3.77 0 001.51-.24c-.12.39-1 .32-1.43.53-1 0-2.09.31-2.84 0 .7-.33 1.03-.05 1.68-.31zm-3.9.08h.15c.73.38 1.72.33 2.19 1.15v.15c.17.35.23.89.67.77 0 0 .05.13 0 .15-1 .74-3.94.05-5.55.36-.62.22-.91-.14-1.44-.09-.18-.33-.64-.18-1-.21a3.76 3.76 0 01-1.55-.53c1.78-.84 3 .45 4.2-.16-.19 0-.13-.14-.08-.29s.25-.1.26-.22a.41.41 0 00-.41-.36c-.41.14-.8.23-.85-.25h.15c.17-.07.1-.27 0-.48 1.11-.01 2.19-.01 3.25.02zm-2.28-2.7c-1.54.37-3.34 1.17-4 .12l.73-.19c.57 0 .56-.42 1.14-.46s.72-.32.77-.67c-.48-.15-1.91.21-2 .69-.23 0-.53.2-.62 0 .35-.25.77-.46.69-1 0-.78-1.18.46-1.18-.32a3 3 0 011.68-.76 3.71 3.71 0 00.74.43.83.83 0 00.93.54c0 .09.07.17.19.11a.82.82 0 00.93.54c.74-.1.55.29 1.14.17.06.61-.63.66-1.15.82zm3.15-1.77a3.25 3.25 0 01-1.76.46c.09-.58-.52 0-.56-.33l.44-.11c.08.29 1.54.21 1.62-.42.17-.07.1-.27 0-.48h.15c.27-.11.37.08.62 0 .5.29-.54.47-.53.9zm1.3-2.22c-.5 0-.2.46-.47.59s-.7.21-.81-.1c0-.14-.21-.07-.33-.07-.13-.41.94-.12.8-.52.18-.06.34-.13.22-.37s-.57-.16-1-.06l-.88.23c0-.36.6-.31.62-.63l.73-.19a2.61 2.61 0 011.62-.42l.12.44a3.08 3.08 0 00-.64 1.11zm.95-7.15c-.19-.65.27-.92.8-1.15.55.12.59-.79.46-1.22.38 0 1-.46 1.21-.16-.1.06-.14.17-.07.33a2.64 2.64 0 01-2.42 2.21zm1.21 2.82l-.44.12c.07-.14.5-.63-.11-.44 0-.21.2-.3.18-.52.85-.39 1.12.2 1.88 0-.27.4-1.35.38-1.53.85zm1.14-6.42a.42.42 0 01-.59.15c0-.13.11-.18.07-.33.29 0 .28-.25.55-.3s.62-.6.88-.23c-.1.38-.57.51-.93.72zm-2.06.54c-2 0-1.78 1.94-3.48 1.7.29-.79.45-1.41 1.31-1.6a10.44 10.44 0 012.16-.72c.55-.13 1.22-.2.87-.86-.61.06-1.51.6-1.95.35l.29-.08.29-.08h.15a2 2 0 001.1-.6c.48 0 .37-.37.84-.38.51-.22 1.39-.78 1.58.05-1.18.66-1.92 1.59-3.18 2.23zm-1.62-3.81c.29 0 .28-.25.55-.3.2.23.51.26.53.8a2.17 2.17 0 00-1 .9c-.17.22-.32.25-.48 0v-.15a1.38 1.38 0 00.38-1.24zm1.34.91c0 .34.18.54.45.51l.08.29c-.35.09-.37.37-.84.38-.12-.29-.47-.18-.6-.47a.42.42 0 01.36-.41c.26-.03.26-.24.52-.29zm3.44-4.2c0 .09 0 .18-.11.19s-.29.08-.26.22c-.68-.05.21-1.2.37-.41zm.13 7.66c-.25-.77 1.07-.62 1.65-.9.13.41-.25.52-.62.63-.53-.07-.72.65-1.05.27zM382 101l.44-.12c.33 0 1-.5 1 .06a1.23 1.23 0 01-.8.53c-.14-.33-.41-.35-.64-.47zm3.1 3.42l.29-.08c0 .44-1.14.16-1.1.6-.23 0-.71.37-.77 0h.15a3.8 3.8 0 011.45-.56zm-.39-2.09c-.5.12.15.92-.36 1-.33 0-.92.43-1.07.12.18 0 .25-.1.25-.22a1.24 1.24 0 00.81-.53c-.61 0-1.22.6-1.47.39a2.12 2.12 0 01.36-1 .84.84 0 010-.63c.29 0 .28-.25.55-.3a.78.78 0 01.9 1zm.36-4c-.37.41-1.27.5-1.46 1-.8.44-.86-.37-1.58-.06l-.29.08c.26-.3.83-.43.5-1.08a18.46 18.46 0 012.85-1.69c.02.54-.33.92 0 1.69zm-3.1-.44c.07-.46.83-.51.83-1 .33 0 1-.5 1 .06h-.15c-.27.3-1.1.27-1.06.75h-.15c-.18.08-.27.36-.44.13zm6.51-.3l-.3.08c-.34.3-1.11.34-1.21.79h-.15c-.27.3-1.1.27-1.06.75-.27 0-.32.31-.44.12a.77.77 0 01.33-.56c.29-.2.77-.3.76-.67h.15c.58-.2 1.14-.41 1.35-.83l.3-.08c.71-.31.35.05.3.34zm-3-1.25c.6-.2.64 0 .6.47l.08.29c-.09.16-.38.19-.36.41-.63-.06-.04-.72-.29-1.23zm1.15.8h.15c.35-.09.37-.37.84-.38 0 .27-.17.4-.51.45l-.44.12zm4.09-3c.42 0 1.12-.49 1.36-.2-.77 1-1.18 2.13-2.4 2.82a8.66 8.66 0 01-1.44-.72c.17-.07.42-.08.4-.26.18-.39 2.7-.61 1.46-1-.63 0-.69.42-1.28.49-.08-.5.89-.39.88-.86zm-1.2-1.14l.73-.19c0 .15-.07.21-.07.33-.29 0-.28.25-.55.3-.09 0-.17.07-.11.19-.23 0 0-.2-.12-.44s.03-.13.12-.19zm-.37-.21a2.14 2.14 0 00-.54.93 7.12 7.12 0 01-.4.89c-.13.21-.48.3-.84.38-.1-.23.07-.29 0-.48s.12-.43.14-.66c-.46-.21-.68.52-.69 1-.11.1-.23.2-.21.37l-1.62.42h-.15c-.09-.27-.51 0-.56-.33a1.24 1.24 0 00.8-.52c.18 0 .25-.1.26-.22.93-.33 1.77-.71 1.6-1.67a1.65 1.65 0 01-1.59-.68 8 8 0 013.8.59zm.13-4.9c.36.31 1 .05 1.58.05.12 0 .48-.13.48 0 0 .82-2 2.38-3 2.83v.15h-.15c.28-1 1.47-1.37 1.74-2.34-1.55.21-2 2-3.91 2.44-.18 0-.41.13-.48 0 .35 0 .54-.18.51-.45.52-.53 1.66-.68 1.27-1.75-1.17.69-1.85 1.65-3.18 2.25-.23 0-.71.37-.77 0 0 0-.06-.13 0-.15a10.65 10.65 0 011.82-1.42c-1.39-.24-3.14 1.38-4.77 2.06 1.63-.68 3.38-2.3 4.77-2.06a13 13 0 014.08-1.59zm-4 .12l.88-.23c.09 0 .18 0 .18.11-.61.18-.72.65-1 1-.37 0-.25.35-.7.34s-.54-.36-.78-.58c-.07-.23-.4 0-.41-.36.4.25 1.18-.16 1.77-.29zm.65-1.11c0 .18-.19.22-.4.26s-.5-.14-.92.08c-.61-.92.77-.15 1.26-.32zm3.7-1.44c-.38.19-.52.53-.91.71a.84.84 0 01-.55.3c-.08-.29.35-.29.14-.66a.77.77 0 00.32-.56c.25.15.87-.25.95.23zm-.83-5c.17-.07.26-.35.44-.12-.79.37-.17 1.56-1.45 1.64-.08-.15-.32 0-.37-.22.46-.34.73-.89 1.33-1.24zm-1.37 2.56c.47-.1.89-.23.95-.56.21-.08.56-.09.55-.3.57.19-.21 1.46-.79 1.78-.49 0-.83-.28-1.33-.28-.49-.2.1-.5.57-.59zm-4.54 1.82c.28-.17 1-.07 1-.42a2.85 2.85 0 011.21-.16c1.17-.15 1.72.74 2.84.67.14.67-.83.67-1.13 1.08-.44.25-.59 0-.81-.1-.44-.17-.84-.41-1.26-.61l-.44.12a1 1 0 00-.7.34c-.07-.51-1.02-.56-.77-.86zm-.89 1.69c.29-.14.42 0 .63 0l.12.44c-.35 0-.54.18-.51.45-.35.17-.89.23-.76.67h-.15l-.29.08-.19-.73a.71.71 0 01.4-.26c.34-.18.88-.18.75-.65zm-1.4-.53c.45-.23-.11-.85.62-.63 0 .6.7.07.67.77-.79.16-1.2 1.3-2 .69-.2-.58.54-.56.71-.83zm-1.79 4.55c.57-.19 1.13.1 1.28-.49.13-1 2-.39 2.94-.77v.15c.09 0 .18 0 .19.11-.48.09-.55.42-1.14.46a3.34 3.34 0 00-1.83.79l-1.76.46a.45.45 0 00-.37-.22q.14-.42.69-.54zm-1.19-.94a6.34 6.34 0 01.73-.82c.44.24.32.47.42 1h-.15c-.57 0-.56.42-1.14.46.02-.25.12-.45.14-.69zm0 4.24h.15a2.45 2.45 0 001.4-.05h.15c-.16-.71.4-1 1.28-1.12.79.12 1.65 1.09 2.58.27-.09-.42-.51-.26-.74-.43s-.31-.24.07-.33c1.41-.21 2.1.81 3.15 1.21.68.43-.66.44-.54.92h-.15c-.51.2-1.13.34-1.21.79-.12 0-.29.07-.33-.07.27-.15.22-1.1-.16-1.21-.48.34-.2 1.13-.35 1.66-.51.49-1.22-.24-1.76.46-.24 0-.54.22-.62 0h.14c.3-.2.77-.29.77-.67.44-.15.46-.56.72-.82a.42.42 0 00-.52-.18c-.35.17-.89.23-.76.67h-.15c-.38 0-.5.68-.7.34-.19-.61.82-.52.65-1.11-.17-.28-1 .07-.84.38a10.23 10.23 0 01-1.4.05c-.42-.16-1.39.42-1.69.76-.35-.21-.11-.37-.19-.73h.15c.2-.44.89-.44.91-.85zm-.62-6.64c0 .24.37.71 0 .77a8.49 8.49 0 00-1.76.14h-.1a2.12 2.12 0 00-1.33.82c-.12-.18-.17-.37-.81-.1-.06-.28.46-.23.32-.56 1.06-.87 1.68-2 3.06-2.69a5.84 5.84 0 01.62 1.62zm-.28-17.82c0 .62-.85.37-1.28.49h-.15c.12-.34 1.01-.28 1.43-.49zm-9.44 1.7a2.66 2.66 0 012.25.19c-.13.43-.89 1.13-1.13 1.08s-.47-.47-.89-.39c-.2-.37-.57-.45-.82-.73zm1.45 4.33c-.65-.53-1.92.41-2.36 0l-.08-.29c.45-.08.36-.67.84-.38l.15.59c.48 0 .52-.36.8-.52l-.08-.32-.19-.73c.36-.11.38-.39.73-.19a6.39 6.39 0 001.71 1.12c.27-.09.46-.23.51-.45-.17-.35-.52-.39-.67-.76s-1-.46-.75-1.06a5.82 5.82 0 01.87-.86c.26.12.47.33.85.25a6.09 6.09 0 012 1.67c.45 0 .33-.31.7-.34-.37-1.15-1.27-1.37-1.94-2 .42-.22.57 0 .92-.08a5.6 5.6 0 012.9 2.06c0 .19-.14.13-.29.08-.42-.25-.56.2-1 .27l.19.73a1.64 1.64 0 001.07.5l.08.29c.34.26.36 1.08.79 1.21a5.24 5.24 0 01.11 3.42c-.8-1.18-1.56-2.43-2.79-2.87-.16.28-.6.39-.39.89.52.46 1.19.66 1.49 1.49 0 .18 0 .36-.22.37h-.15c-.35-.63-2 .37-1.39.68l.12.44c1.16-.14 2.28-.22 2.74.85a1.85 1.85 0 01.42 1.62l.08.29c-.39.19-.09.78-.17 1.14a40 40 0 01-3.39 3.24c-.11-.2-.24-.2-.11-.44.54-.63 1.41-1.08 1.7-1.86-1.21-.78-1.4 2.14-2.63 1.32.53.33.19-.44-.23-.26-.21-.37.72-.08.51-.45.26-.14.94 0 .66-.49l.29-.08c.13-.38 1.19-.22 1.06-.75l.29-.08c.43-.17.87-.32.91-.71.18-.06.34-.13.21-.37-.65-.42-1.67 1.06-1.91-.12.7-.13 1.2-.38 1.17-.93a.42.42 0 00-.52-.18c0-.36.44-.41.25-.85-1-.35-.89 1-2.13.87l-.23-.88c-1.5.28-.78 1.86-2.44 2.05-.09 0-.18 0-.19-.11.35-.21.39-.6.17-1.14a1.29 1.29 0 00-.92.08c-.28.63-.19 1.47-.57 2a1.34 1.34 0 00-.65 1.11c-.54.35-.43 1.08-1.42 1.16-.06-.32-.54.07-.77 0v-.15c.66-.15.62-.71 1.35-.83a1.15 1.15 0 00.95-1.19c-.28-.23-.78-.08-1.14-.17s-.7.34-.67-.14c0-.23.32-.23.55-.3 0-.29-.25-.28-.3-.55.14-.37.56-.58.69-1 .92-.62 1.85-1.24 1.89-2.38-.85.42-1 1.25-1.75 1.71-.13-.2-.31-.31-.45-.51l-.88.23a18.25 18.25 0 011-1.52c.47-.16.95-1.14.32-1.18-.16.2-.5.29-.66.49s-.21.25-.29.08.08-.21.07-.33c.26-.14.29-.41.65-.49l-.15-.59a.85.85 0 000-.62c-.23.07-.58.08-.55.3-.42.23-.5-.14-.92.09H365c-.1-.18-.32-.16-.41-.36.54-.18.73-.57 1.21-.79h.14l2.06-.54c.39-.1.88-.15.8-.53zm-3.86 1.38l-.07.06.07-.06a2.24 2.24 0 011.23-.8 2.25 2.25 0 00-1.23.8zm.42-9.11c.24 0 .19.3.12.44-.16 1.07-1.07 1.7-2.26 2.16.31-1.1 1.74-1.55 2.14-2.6zm-2.6.84c.53-.19.39-.77.65-1.11.2-.5.25-1.62.87-1.48-.65 1.41-.6 4.53-2.45 4.41h.15c.14-.38.65-.54.5-1.07-.05-.36.31-.44.27-.75zm-1.77-3.15c-.26-.77.59-.9.54-1.55.22 0 .23.32.3.55a4.15 4.15 0 01-.88 3.21 1 1 0 000-.77c.5-.18-.25-1.11.04-1.44zm1.27 1.24c.18 0 .22.19.26.4a1.38 1.38 0 00-.43.74 1.21 1.21 0 00-.5 1.07c-.37.33-.17 1-.8 1.15-.11-1.46.94-2.26 1.46-3.36zm-1.68 11a.42.42 0 00.18-.52 3.85 3.85 0 00.46-1.85.87.87 0 00.21-1c0-.3-.72 0-.4.26-.37.07-.17-.49-.15-.59.37-2.77 3.76-3.14 5.22-1.05v.15a1.07 1.07 0 00-.18.52l-.44.12c-.59-.26-.22 1.11-1.13 1.08l-.12-.44a3 3 0 00-.1-2.17c-.57.21-.69.68-.61 1.26v.15c-.33.18-.18.64-.21 1-.5.07-.55-.62-.75-1.06s-.45.21-.73.19a6.86 6.86 0 01.66 3.12c.19.44-.29.49-.25.85-.14 0-.16-.15-.22-.26.16-.36.11-.85.32-1.18-.93-.17-.45 1.23-1 1.67a.87.87 0 01-.91.71 1.25 1.25 0 01.15-1.01zm.14 2.94a1.27 1.27 0 00.93.54c.06.18.24.15.26.4-.09 0-.17.07-.11.19-.24.07 0 .43-.18.52-.37-.7-1.17-.69-1.7-1.12a1.24 1.24 0 01.8-.57zm-.76-14.87c.3.43-.45.24-.14.66-.33.26-.26.76-.13 1.29-.42-.29-.52-1.46-.5-1.91v-.15c.33-1.12.18-1.01.77.07zm-2.64-2.29c0 .33.44.92.12 1.07a.71.71 0 00-.48 0c-.51-.41.05-.87.36-1.11zm-.73 3.18c.08-.46-.62-.61-.56-.33-.58-.09 0 .52-.32.55-.39-1-2 .22-.95.56.09.27.51 0 .56.33-.23.32-.19 0-.59.15-.74.11-.87-.62-1.58-.05h-.15c0-.41.33-.63.91-.71s.2-.46.47-.6a2.24 2.24 0 00.94-1.19c.33-.14.14-.58.62-.63.19.45.69.37.85.87-.53.08.12.83-.21 1.01zm-.38-3.83c-.2.05-.07.29-.22.37l-.08-.29c.08-.53-.35-1.36.39-1.51.06.19.24.15.26.4.08.42-.66.4-.35.99zM355 55.47c.57 1.08 1.7 1.21 2.09 2.59-.35.29-.17.9-.09 1.44s.25.89-.21 1l-.08-.29c-.17-.35-.23-.89-.67-.77q-.11-.56-.49-.66c0-.37-.35-.25-.34-.7a2.58 2.58 0 01-.42-1.62c-.1-.46-.32-.93.21-.99zm-.25 3.83c.1.25 0 .78.45.51.11.36.4.38.19.74-.45.11-.23.61-.21 1a2.63 2.63 0 01-.6-.47v-.15c-.18-.68.15-1.07.19-1.63zm-1.57 1.2c.08.37.16.71.38.84 0 .19-.13.25 0 .48-.43-.32-.45-.72-.5-1.28zm-.33 5.9a1.68 1.68 0 00.42-1.37c.38-.4 0-1.27.53-1.55.32.09.46.49.78.58a.84.84 0 000 .62 20.53 20.53 0 00-1.58 2.16h-.15c-.04-.14-.15-.38.02-.44zm0 2.5c.32-.51.17-.49.84-.38.93.11 1.56.73 2.55.74.11.45.61.23 1 .21l.29-.08a6 6 0 001.55.53c.09 0 .18 0 .18.11.3.27.27 1.1.75 1.06.34.74-.08 1-.24 1.48a1 1 0 00-.34-.7.57.57 0 00-.43.74 11.34 11.34 0 00-.42 2 .77.77 0 00-.33.56c-.34 0-.37-.87-.27-1 .22-.83.56-1.58.78-2.4.5-.21.24-.78 0-1.11-.48.05-.62.3-.43.74-.38.73-.26 1.76-1 2.3-.44-.67-.5-2-1-2.57l-.29.08c-.35.72.22 1.37.43 2.24 0 .28.4.82.08.92-.06-.1-.08-.29-.22-.25-.21-.49-.15-1.45-.68-1.39-.2.09-.18.31-.36.41-.53-.07-.86.52-1.17.93.23-.94-.1-2.22.11-3.17.46-.17.09-1.06-.27-1-.1.19-.53.19-.33.56-.14 1.41-.06 2.95-.28 4.31l.11.44v.15a.74.74 0 00-.1.81h-.15l-.15-.59a9.37 9.37 0 00-1-1.94v-.15l-.08-.29c.28-1.52.79-2.8.91-4.3zm-.83 7.59h.15c.15-.28 0-.74.21-1a4.9 4.9 0 01.68 1.39l.08.29c.26.34.35 1 .75 1.06l.16.59c-.65.12-1-.31-1.41-.57-.18-.4-.83 0-.82-.73-.01-.43.35-.59.24-1.03zm.44 6.48l.29-.08a20 20 0 002.63 1.66c-.82.64-.53 1.92-1.18 2.66-.11.06-.11.19-.25.22.05-.92-1-.47-.77 0-.14.42-.14.91-.28 1.33-.56.05-.66-.71-.82-1.35-.31-.4.22-.93-.27-1l-.12-.44a4.54 4.54 0 00.82-2.97zm-.41 18.16c-.61.05-.49.54-.36 1l.08.29c-.4.06-.3.41-.29.7-.3 0-.27-.54-.7-.28-.14-.29 0-.42 0-.63-.14-.54.24-.77.32-1.18.71-.6-.42-.53-.78-.58.16-.2.51-.28.47-.59.44-.12.4-.51.76-.67l.08.29zm-2.35.62c.1-.23 0-.58.29-.7s.32-.32.44-.12a10.37 10.37 0 01-.39 1.51h-.15c-.29.1.11-.38-.14-.7zm1.15-24.31c-.45 0-.12-.63-.23-.88v-.15c.17-.07.26-.35.44-.12a1.25 1.25 0 01-.17 1.14zm.52 6.77l.11.44c-.29.12-.18.47-.47.59l-.12-.44c.34-.13.37-.41.53-.6zm0 9.43c.19 0 .13.14.08.29s-.08.2-.26.22-.42.64-.55.3v-.15c.36-.16.3-.56.74-.68zm.22-18.89c-.29.12-.19.47-.29.7-.33 0-.1.82-.36.41l-.19-.74c.23-.2.26-.51.8-.52zm-.37-9.16c-.3.19.16.84.16 1.21-.42 0-.2.38-.33.56a.86.86 0 01-.21 1 2.76 2.76 0 01-.1-2.17c.36-.05.16-1.01.49-.62zm-1.06-2.23c.28-.49.34.12.45.51l.19.74c-.17.07-.42.09-.4.26v.15c-.13.21-.24-1.56-.22-1.68zm.28 29.75c-.51.45-.29 1.33-1.16 1.56-.46 0 .06-.35-.15-.59.15-.45.9-.55 1-1 .11-.08.28-.14.33 0zm-1.24 7.23h-.15c.12.55-.12.42-.51.45 0 .64-.49 1-.49 1.7-.46-.16-.12.72-.4.26v-.15a.87.87 0 00.21-1c.11-.81.8-1.27.3-2.43l-.08-.3a1.05 1.05 0 011.27 1.24c-.16.02-.15.11-.14.2zM345.34 94c-.23 0 0-.13-.08-.3v-.14a1 1 0 000-.77c.59.22.22-1 .05-1.58.16-.06.29.15.29-.08-.18 0-.13-.14-.08-.29.52-.52.17-1.55.34-2.29.46.06.19 1.38.79 1.2l.08.3.16.59c-.34.18-.18.64-.21 1-.62.14-.43.74-.65 1.11a1.22 1.22 0 00-.5 1.08c-.21-.06-.2.03-.19.17zm.13-13.84c-.17.06-.34.13-.22.37-.22 0-.23-.32-.3-.55l-.08-.29h.15c.19 0 .25.13.48 0 .05.13-.13.19-.02.42zm.6.47v-.15c.22 0 .17.42.41.36.47 1.77-.26 2.83-.65 4.09l-.29.08a9.08 9.08 0 01-.4-2.72v-.15a5.22 5.22 0 00.93-1.56zm3.11 4.68c-.37.11-.16.57-.06 1-.21 0-.3-.2-.52-.18-1.48-.52-.49-1.95.08-2.69.31-.17.29.23.52.18.35.69-.11 1-.02 1.63zm-.62-2.35c-.75.06-.55.67-1 .89a.77.77 0 01-.55-.32c.42-.5.45-1.23.79-1.78h.15c.07-.6.1-.42.44-.12l.12.44c-.05.2.37.73.06.84zm-1.38 10.88c.47 0 .36 1.67-.68 1.59a1.3 1.3 0 01.32-1.18c.31-.08.45-.25.36-.47zm.29 5.26c-.33.14 0 .68-.25.85a1.08 1.08 0 00-.41-.36l-.12-.44c.24-.03.72-.43.78-.15zm.34 7.29a.74.74 0 00.81.1c0 .12-.08.2-.25.23l-1 .27-.12-.44c.38-.16.2-.39.56-.22zm-.51-18.7h.15c.26.53-.31.56-.21 1-.25 0-.21.21-.4.26l-.15-.59c-.35-.62.22-.62.61-.73zm-.61 20.31v-.15c.19 0 .25.13.48 0v.15h-.15a2.54 2.54 0 000 1.11c0 .09 0 .18-.11.18-.14-.46-.62-.36-.82-.73l-.08-.29c.43.12.31-.2.68-.27zm0 10.83c.29-.14.42 0 .63 0 .23.38-.11.43 0 .77h-.15c-.37.21-1 .66-.81-.1.05-.23-.05-.58.35-.64zm2.16 2.26l-1 .27c-.18 0-.41.13-.48 0l-.19-.73c.82-.24 1.54-.39 1.69.49zm-.39-11.67l-.12-.44a.71.71 0 00.4-.26c0 .15.08.29.12.44-.22.01-.19.7-.39.29zm.07-1.48c.21 0 0-.42.52-.4-.5.01-.29.46-.51.46zm.16-10.2l-.08-.29c.38-.23.43.11.77 0h.15a1.25 1.25 0 01-.06 1c-.39-.04-.58-.35-.77-.67zm1.13-22.59c.35.83 0 1.27 0 1.88l-.44.12.19.73c.32.23 0 .19.16.59-.42.22-.5-.14-.92.08 0 .78.62.51.75 1.06v.29c-.51.08-.08.7-.21 1v.15c-.68-.54-.41-2.71-1.25-3l-.08-.29a14.71 14.71 0 00.82-2.25c.11-.06.11-.19.26-.22zm-.5-10.85l.29-.08c.19.44-.36.45-.06 1-.31.11-.2-.5-.34-.7.11-.03.19-.06.13-.18zm-.13 4.9c.76-.12.07.58.23.88v.14c-.66 0 .07.87-.54.93-.09-.47-.13-.9.36-1 .08-.27-.34-.81-.02-.91zm-.73-2.79a.73.73 0 00.48 0c.22.5-.43.5-.21 1a1.14 1.14 0 01-.25-.96zm-.37 6.37a1 1 0 01.34.69v.15l.11.44c.1.39-.38.44-.25.85a.77.77 0 00-.32.56c-.06.59-.46.65-.52-.18l-.31-1.17a1.37 1.37 0 01.43-.74c.34-.1.04-.56.55-.56zm-.55-2.68v.15l.15.59c-.31-.07-.37.57-.59.16s0-.57-.08-.92v-.15c.25.01.34.21.55.21zm-1.51 3.22l.08.29c0 .22-.28.25-.36.41-.21-.31.15-.94.31-.66zm.17 1.84c.14 1.22.93 2.07.81 3.08h-.15l-.12-.44-.11-.44-.44.12a.73.73 0 00-.4.26c-.06-.11-.17-.14-.33-.07s-.15 0-.19-.11a.76.76 0 01-.26-.4c.14 0 .07-.21.07-.33.22-.2.13-.58.25-.85.18-.37.12-.98.9-.78zm-1.78-3.77c.4.22 1 .06.82.72v.15c-.51.3.08 2.31-.94 1.19-.15-.74-.61-2.21.15-2.02zm-1.94 9.93l-.12-.44c.2-.09.19-.31.37-.41l.12.44c0 .42.49 1.12.2 1.36-.62.21-.54-.43-.53-.8zm.49-1.7c.44-.19.59.13 1.07-.12 0 .21-.14.34 0 .63v.14c-.59 0 0 .74 0 1.1a8.89 8.89 0 01-1.04-1.71zm1.21 11.77c-.34-.09-.46-1.09-.35-1.32v-.3a.72.72 0 00.4-.26l.08.29c-.31.43.06 1.2-.1 1.63zm.06 11l.19.73.12.44c-.38.15-.08-.86-.59-.47-.12 0-.29.07-.33-.07.44-.07.24-.52.63-.62zm-2.34-30.46c.46-.15 0-.84.54-.93.07.73.7.51.79 1.21-.29.24.19.94.2 1.36h-.15c0-.35-.33-.13-.41-.36-.09.16-.38.19-.37.41-.32.06.07.54 0 .77.24.51 1 .14 1.26.61a2.74 2.74 0 01-.13 1.92c-.06-.11-.17-.14-.33-.07.37-.61-.37-.27-.59-.47.35-.45-.26.38-.22-.25l-.19-.73c-.52.07-.83.26-.58.78a3.66 3.66 0 00.57 1.58c-1 .39-.4 1.75-.56 2.66l.08.29-.44.12-.08-.29c0-.37-.35-.25-.34-.7.28-.29-.21-1-.24-1.51l-.12-.44c-.19-.57.39-.68.13-1.29.33-.18.18-.64.21-1l-.12-.44c.4-.24-.21-.45-.19-.73a9.82 9.82 0 001.3-2.49zm-6.74 28.14c-.32 0-.28-.66-.63-.62-.1-.46-.57-.74-.31-1.17l.29-.08c.53.36 1.34.25 2 .42-.11.06-.14.16-.07.33-.13.66.3 2.18.91 2.27.12.44.51.4.67.76.08.15.32 0 .37.22s.34.7-.14.66c-.38-.34-1-.24-1.19-.94 0-.37-.35-.25-.34-.7-.56-.18-.61-1.23-1.16-1.42.01-.29-.7-.03-.38.27zm1.67-11.58c-.64 0-.35-.94-.16-1.21.07.17.09.42.26.4.1.23-.07.29 0 .48s-.08.21-.08.33zm-.52-3.16l-.23-.88c.26-.09.38.06.41.36s.17.51-.16.52zm0 5.82c-.21.57.43.86.2 1.36v.15c.06.12 0 .15-.11.19l-.29.08c-.28.06-.23-.46-.56-.33v-.15c-.12-.64.58-.82.74-1.3zm0 4.09c.2.3.3.77.67.76v.15l.31 1.17h-.15c-.18-.18-.34-.41-.7-.29-.12.06-.16 0-.19-.11a8.19 8.19 0 00-1.11-.65l-.08-.3a.78.78 0 01.32-.55c.24-.42.43-.32.88-.18zm1-5.61c.29-.2.23-.61.4-.89.1-.06.14-.17.07-.33.4 0-.06.62.27 1-.2.55-.6 1-.5 1.7h-.15c-.2-.66-.37-.69-.16-1.21-.05-.08.07-.15.06-.27zm.74-3.18c.1-.37 1.09-.46 1.11 0 .25.42.79.35 1.11.65h.15a27.61 27.61 0 01.62 3c-.59-.27-.8-1.18-1.34-1.53a2 2 0 00-1.37-1.05c-.32.14 0 .64-.25.85-.25-.52.09-.7-.16-1.21.15 0 .21.07.33.07zm3 5.34c-.3-.83-1.17-.69-1.38-1.68 0-.36-.87-.94-.27-1a1.24 1.24 0 01.71.91c.17.35.23.89.67.77 0 .14.08.29.12.44s.47.45.1.56zm-3.65-6.73v-.15l-.08-.29c.2-.07.28.38.33.07.19-.05.2.22.37.21.1.22-.7.43-.66.16zm.54 14.61c-.24.13-.43-.12-.44.12-.22 0-.66-1.12-.12-1.07l.29-.08c.33.24-.03.54.23 1.03zm-.37 3.39c.17.48.76.25 1 .69 0 .09.07.17.19.11 0 .33.43.92.12 1.07a6.06 6.06 0 01-1.42-1.82zm1-11.72a1.21 1.21 0 01.5-1.08c.58 1.35 1.66 1.84 2.36 3v.15c0 .21-.2.3-.18.52-.38.08-.36-.52-.74-.43 0-.33-.28-.23-.52-.18 0-.59-.47-.32-.53-.8-.21.12 0 .49-.51.45a2.9 2.9 0 01-.41-1.63zm1.4-9c-.1-.39-.21-.78-.31-1.18l-.27-1c1.28.65 3.55 3.36 1.86 4.69.09.27.22.47.45.51v.15c.35.21 0 .29.19.73v.15c-1.56-.39-.89-2.69-1.95-4.05zm.08-8.65c.37-.33.1-1 .61-1.26l-.12-.44a4.8 4.8 0 00.49-1.7c.18-.06.34-.13.22-.37h.15v.15c0 .05.1.39.15.59a6.53 6.53 0 01-1.65 3.88c.01-.33.24-.54.1-.85zm-.78 4.31c.27 0 .56 1.15.35 1.32a.76.76 0 00-.55-.33c-.07-.42.31-.58.2-.99zm-.49-1.28c.41.44 0 .6 0 1.11-.39.17-.28-.51-.59-.47v-.15l-.19-.73-.12-.44c.59-.39.36.78.89.65zm-3.14-7.18c.37.14.33 1 .75 1.06l.12.44c-.25.52.21 1.45.06 2v.15c-.43 0-.18-1.25-.75-1.06l-.39-1.47v-.15c.06-.34.14-.66.2-1zm-2.3 2c0-.18.19-.22.4-.26s.17.14.33.07c.06.18.24.15.26.4l.08.29c.22 0 .31.18.52.18.28.38.78.37.79 1.21a9.16 9.16 0 01.61 1.72c-.31 0-.39-.32-.7-.29 0-.09-.07-.17-.19-.11a.42.42 0 00-.41-.36 5.12 5.12 0 01-1.7-2.87zm.62 3c-.11 0-.23.15-.35.25.12-.16.23-.31.39-.32zm-1 20.69a.42.42 0 00-.18.52h-.15l-.08-.29-.15-.59c.1-.5.68 0 1-.27 0-.12.08-.2.26-.22a1.46 1.46 0 000 .15v.15c.02.25-.28.4-.66.49zm.85-5.72c-.21 0-.42.09-.4.26v.15c-.38.15-.08-.86-.59-.47l-.08-.29c-.61-.66-.89-1.88-1.58-2.41 0-.56-.46-.5-.89-.39s.13.74.12 1.07c.3.34.34 1.12.79 1.21.21.13.49.15.48.66-.26.38.49.85.64 1.24s0 .77.45.51v.3c.42.69-.8-.16-1.25 0-.26.18-.29.49-.25.85.42.13.75.42 1.33.28v.15c.24.36.87.07.86.87-.59 0-1.28.2-1.84.17 0-.21-.09-.42-.26-.4l-.11-.44c-.5-.77-.53-2.36-1.21-2.82l-.15-.59c-.16-.73-.55-1-.65-1.87a20.51 20.51 0 00-.88-2.75c-.14-1.57.8-2.51 1.21-3.77a1.22 1.22 0 00.5-1.08c.71-1.5 2.5-2.35 3-3.94.19-.06.15-.24.4-.26.27.24.74.16 1.14.17a4 4 0 01.85.25c.15.38.69.1.89.39a.77.77 0 00.55.33v.15a1.74 1.74 0 01.38 1.47c0 .31.15.45.41.36.06.18.25.15.26.4.54 2 1 2.84 1.57 4.77-.49-.25-.93-.07-1 .56-.14 0-.16-.15-.22-.25-.24-.38-.63-.48-.75-1.06-.31-1 .15-1.57-.21-2.61l-.19-.73-.35-1.32c-.31 0-.45.15-.36.41-.41 1.13.59 3.08.34 4.3-.33.13-.27-.38-.56-.33h-.15l-.19-.73v-.15c.54-.1 0-.83.17-1.14l-.15-.59h.15a6.87 6.87 0 00-.13-1.69l.1-.71v-.15l-.59.15h-.15c.27.58 0 .81.2 1.36l.15.59c-.34.3 0 1-.09 1.44l.15.59c-.31.11-.5 0-.56-.33s-.35-.4-.6-.47c-.23-.52-.78-.51-.82-1.35-.06-.11-.19-.11-.22-.26-.5 0-.4.35-.66.49.17.34.23.89.67.76.07.66.47.76.75 1.06s.22.62.59.47c0 .48.47.49.23.88-.48 0-.57-.59-1.08-.5v-.15c-.05-.48-.34-.55-.63-.62-1 .69.52 1.37.69 2l-.59.15c.12.72.45 1.07.93 1.17.33-.13.27.38.56.33.09.63.45 1.42 0 1.73-.58-.24.39-1-.42-1-.07-.17-.3-.05-.48 0-.58-.09 0 .52-.33.56-.09-.69-.72-.47-.79-1.21-.17-.42-.32-.87-.71-.91-.22-.33-.58-.42-.6-1.1-.19.14-.8 0-.7.34-.11.06-.11.19-.25.22.25.28.28.94.71.91v.15c.3.27.27 1.1.75 1.06a3.16 3.16 0 001.3 1.38c-.4.23.23.75.56 1 .18 0 .19.23.26.4.43.32.48.67.49 1.28-.59.19-.54-.76-.92-.97zm1.27-4.73l-.3.08a1.07 1.07 0 01-.41-.36c.07-.31-.57-.37-.15-.59.16.45.78.09.86.81zm-2.22 17.84c.18.33.1 1.11.46 1.14l.46 1.76c-.72-.1-1.69-2.44-.93-2.95zm-1.46 1l.29-.08c.37.07.3.91.5 1.28-.34.15-.1-.69-.56-.33-.16-.57-.28-.41-.24-.91zm2.38 5.49c-.35-.37-.48.06-.81-.1-.16-.58-.8-.34-.89-1a1.37 1.37 0 00-1.11-.65 7.53 7.53 0 00-2.74-1.48c0-.35.72-.32.77-.67l.44-.12h.15c.12 0 .29-.07.33.07.11.45.33.71.67.77.21.22.21.79.63.62a8.48 8.48 0 002.08 1.34 3.24 3.24 0 01.79 1.21zm.26-6.19c-.34 0-.25-.71-.42-1 .15 0 .21.07.33.07l.29-.08c.15.53.73.31 1 .69-.18.86-.89-.38-1.24.28zm.79 7.8l-.29.08c-.07-.17-.09-.42-.27-.4.14-.55.64 0 .81.1v.15zm.53.81l.29-.08c.09.35.37.37.38.84-.27-.23-.66-.2-.68-.8zm.3-2.44c-.32-.39-.07-.54-.31-1.17l.44-.12c.17.59 1 .78.83 1.35a3.42 3.42 0 00-.97-.1zm1.51 3.37c-.31-.3-1-1.09-.53-1.43l.59-.15c.19.44-.13.59.12 1.07-.27.05-.35.19-.18.47zm.34-5.27l-.44.11c-.2-.22-.2-.79-.63-.62a2 2 0 01-.82-1.35.74.74 0 00-.26-.4c0-.42-.49-1.12-.2-1.36a1.25 1.25 0 00.53.8h.15c.59.76 1.4 1.16 1.83 2.19l.11.44c-.19-.05-.27 0-.27.15zm.35 1.32l-.08-.29a4 4 0 01.25-.85c.45 0 .12.63.23.88s-.2.3-.18.52c-.14-.01-.16-.19-.22-.3zm.71 4.52l-.44.12c-.34-.53.4-.43.06-1l.29-.08c.05.48.54.21.52.8zm.61-1.26c-.37.21-.37-.23-.56-.33 0-.43.19-.71.17-1.14.28-.13.47-.09.52.18.38.24.23 1.02-.13 1.26zm.25-9.8h-.15c0-.28-.41-.82-.09-.92.06.1.08.29.22.26-.07-.29.35-.29.14-.66 0-.09 0-.18.11-.19.23.42 0 .57.09.92s-.21.37-.31.56zm.45 20.31a.43.43 0 01.45.09zm.73-27.28h-.15c-.31 0-.28-.51-.59-.47l-.23-.88c.14 0 .2.07.33.07.2.29.59.26.67.77a.7.7 0 00-.03.51zm1.48 26c-.32.2-.94.55-1.32.35-.15-.34.69-.09.33-.56.4-.19.79-1 1.2-.79.1.45-.47.49-.21 1zm.67-30.31c-.27.09 0 .52-.14.66s-.11.47-.25.23-.11-.39-.15-.59h.15c-.2-.57 0-.88-.24-1.51a3.65 3.65 0 01.43-.74c.31.11.07.94.39 1.47a.42.42 0 00-.18.5zm.08-5.67c-.23-.55.07-.79-.2-1.36.31 0 .21.64.59.47l.08.29.16.59-.44.12c-.03-.07-.03-.13-.18-.13zm.38 26l-.12-.44c0-.14.15-.16.26-.22a.42.42 0 01.59-.15v.15c-.5.01-.18.57-.72.64zm.72 8.13a.72.72 0 00-.26-.4l.29-.08a6.56 6.56 0 01.82.73c-.01.6-.86.37-.84-.28zm.64-17.28v-.15c.13-.42.69-.59.65-1.11h.15c-.28-.45.39-.35.66-.49v.15c-.11.06-.14.17-.07.33a.42.42 0 00-.18.52c-.18.19-.41.34-.29.7s-.19.47-.29.7-.23.2-.22.37c-.33-.04-.23-.77-.4-1.05zm.66 18.66c-.29-.84.3-1.15.87-1.48a1.46 1.46 0 01-.86 1.45zm.9-2l-.29.08c-.24 0-.19-.3-.12-.44l.44-.11c.12.23-.06.29-.02.48zm.25 2.76c.2-.07.41-.13.48 0s.18.11.22.25l-.88.23c-.03-.19.36-.17.19-.47zm.35 1.32h.15c.5-.08 0-.76.77-.67.45.57-.59.93-.91.68zm2 2.29a2.49 2.49 0 012 .57c.09.4.32.23.16.59-.48.25-.66 0-1-.06-.11-.37-.61-.09-.85-.25a3.85 3.85 0 01-1.7-.5c.25-.44.91.02 1.42-.34zm-1.21.79c.44.1.92.11 1.11.65-.52.11-.99.06-1.08-.64zM258.4 269L234 292.39l29.2 28 25.68-24.67L261 269zm67.73 0l-27.88 26.78 25.69 24.67 29.2-28L328.76 269zm-116.47 0l19.7 18.92 19.7-18.92zm60.7 0l23.22 22.3L316.8 269zm-82.63 104.6c-3.42 1.62-8.14 3.44-11.14 6a12.67 12.67 0 00-4 8.76c0 2.94 2 4.13 4.5 4.46 3.34.45 5.44-1.21 7.74-3.05a12.13 12.13 0 01-1.28-4.81c-.09-5.32 4.59-11.13 4.18-11.38zM365 397.42c-2.58 4.76-4.16 8.58-4.52 12a14 14 0 002.15 8.76c6.24-4.87 10.7-13.36 9.69-20.82-3.26.59-4.88.64-7.32.06zm-240.07-34.59l-5.53 5c-1.28 1.14-3.45 2.89-3.42 5 .05 4.37 8 7.3 11.18 7.94 8.91 1.76 22.72-2.39 22.67-6.47-.09-5.16-20.83-10.51-24.9-11.47zm-62.62-38.45C14.87 333.3 0 354.8 0 354.8c2.51 7.3 26.66 24.26 26.66 24.26C17.93 400.64 13 436 13 436c40.71-32 70.66-27.57 70.66-27.57l-33.43-11.89zm439.45-30.18q-5.63 2.33-11.28 4.49a213.41 213.41 0 0017.14-84C507.62 96.31 411.31 0 292.93 0S78.25 96.31 78.25 214.68A213.36 213.36 0 0096.83 302C82.18 297.42 74 294.2 74 294.2l-15 96.39c246.88 102.21 460.54 0 460.54 0zm-409.9-79.52c0-110.87 90.2-201.07 201.07-201.07S494 103.81 494 214.68a199.75 199.75 0 01-21.58 90.52c-3.24 1.1-6.47 2.14-9.7 3.16a191.86 191.86 0 0024-93c0-106.5-86.65-193.14-193.15-193.14s-193.18 86.61-193.18 193.11a191.89 191.89 0 0024.91 94.76q-5.7-1.48-10.83-2.91a199.74 199.74 0 01-22.61-92.5zm309.35 108.85q-6.67 1.21-13.31 2.25l-30.1-28.91-29.2 28 6.79 6.52q-4.44.27-8.85.48l-2.62-2.51-2.86 2.74q-4.84.18-9.63.28l7.82-7.51-25.69-24.68-25.68 24.67 7.56 7.26q-4.92-.17-9.77-.41l-2.46-2.36-2.19 2.1q-4.41-.25-8.75-.56l6.28-6-29.2-28-29.51 28.34q-7.2-1.06-14.08-2.23l-16.54-15.71 5.1 13.69q-7.9-1.45-15.3-3c-9.62-2-18.58-4.08-26.79-6.13a186.82 186.82 0 01-26.75-96.53c0-103.68 84.35-188 188-188s188 84.35 188 188a186.81 186.81 0 01-26 95.22l-3.76 1.12q-16.24 4.69-32.35 8.2c-1.7.37-3.4.72-5.11 1.08L419 306.3zm-38.82 31.79c.05 4-3.64 9.43-8 9.89-2.44.25-4.09-1.51-4.13-3.93-.06-4.14 4.78-8.26 8.74-8.71a2.86 2.86 0 013.39 2.75zM122.1 391.19c-7.21-1.09-17.21-5.86-17.33-15.11 0-3.27-.56-3.82 10.83-16.76-2.8-.81-9.19-2.59-9.24-6-.06-4.33 13.92-1.38 16.92-1.71 6.43-5 12.93-12.23 23-10.44-.68 1.59-1.37 2.82-9.58 11.09 22.68 1.07 28-5.32 27.73-8-.13-2.27-3-6.17-14.69-7.33-2.31-.21-13-.68-28.12 1.68.6.43 1.41 1 1.42 1.82 0 1.52-2.28 1.65-3.57 1.57-6.19-.33-8.07.15-13.83.73a9 9 0 01-3.08 0 3.15 3.15 0 01-2.53-3.34c0-.71 1.44-4 4.47-7.43 2.06-2.35 4.9-5.53 8.28-6.09 9.63-1.51 28.34-1.75 38.83 0 17.34 2.87 21.6 10.17 21.66 15.69.2 16.58-30.33 16-42 15.79l-2 1.43c7.12 2.9 31.82 9.14 32 18.76.06 5.57-12.27 17.71-39.17 13.65zm350.82-70.1c-.58 9.7-3 19.54-24.45 45.94a12.11 12.11 0 00-.61 7.13c.93 2.11 2.36 3.8 5.06 3.15 5.51-1.32 13.11-9.74 17-14.44l1.43 2.65c-5.4 7.22-14.65 19.82-23.27 21.83-7.32 1.7-9-5.14-9.1-11.08-5.48 6.75-14.44 17.71-21 19-3.73.71-6-2-6-5.55 0-3 1-6.06 2-8.87l-.2-.16c-3.89 4.17-10.53 14.46-16.1 15.36-5 .81-7.77-4.44-7.83-8.78v-1.4a56.44 56.44 0 01-10.2 8.65 20.36 20.36 0 01.18 5.54c-.65 12.16-14.7 25.16-22.11 27-4.67 1.21-6.12-8.07-6.16-11.4-.09-6.57 4.18-15 6.85-21.06a16.94 16.94 0 01-1.64-1.69c-4.79 5.58-11.45 11.75-17.47 12.24s-8.85-6.19-8.92-11.35v-1c-6.16 6.18-15.77 15.57-23.58 15.87-4 .16-6.46-2.5-6.52-6.55 0-3.34 1.23-7.23 2.51-10.21l-.21-.19-3.81 3.19c-5.52 5.68-12.79 12.92-18.41 12.94-3.88 0-5.76-3.23-5.8-6.67-.08-6.07 5.34-12.74 8.54-17.43l-.21-.2A82.09 82.09 0 00267.44 399c-1.5 1.91-5.21 6.81-8 6.74-4.49-.11-5.69-6.53-5.84-10a11.94 11.94 0 010-1.28c-5.61 5.39-14.16 13.31-20.51 12.92-3.77-.22-6-3.51-6.09-7.06 0-3 1-5.8 2-8.37l-.21-.22c-3.92 3.2-10.62 11.82-16.21 11.34-5-.43-7.8-6.38-7.85-10.73 0-.56 0-1.12.06-1.68-3.67 3.22-7.69 4.37-13.61 3.69-4.2 3.87-9.12 6.51-15.49 5.65-5.26-.71-10.18-6.72-10.7-16-.3-7.64 3.37-12.13 9-15.71a31.4 31.4 0 0118.84-5.13c2.23.15 5.59 1.52 5.63 4.25 0 1.52-1.19 2-2.3 2.49 3.05 1.14 3.69 3.32 3.73 6.36.06 4.46-1.92 7.8-3.8 11.54 4.47 1.29 7.27-2.28 10.38-4.31v.17a30.83 30.83 0 0112.05-14.31 7.26 7.26 0 014.46-.78c1.42.11 6.6-.46 6.23 2.54-.18 1.61-2.89 4.27-4 5.1-3.11 3.33-3.7 4.19-7.63 6.72-3.12 2-5.53 4-5.47 8.25 0 .51.12 1.53.83 1.59 1.83.16 7.38-2.32 12.11-6.25q5-4.16 10-8.39c2.11-1.78 12-10.94 14.51-10.87.82 0 1.94.37 2.42 5.65.24 2.44-2.48 4.67-4.1 6-3.22 2.82-10.35 10.47-10.28 15 0 1.62.95 2.28 2.58 2.36 3.7.2 11.79-6 15.13-8.58a38.78 38.78 0 0110-13.89c1.31-1.09 2.23-1.18 4-1.17 6.12.25 5.63 1.65 5.64 2.26.05 4-12.66 14.07-12.63 16.46a1.17 1.17 0 001.14 1.13c.71 0 1.62-.88 2-1.38 8-10.12 26.62-22.78 29.58-22.92.41 0 1 .48 1.66 1.88a23.15 23.15 0 011.6 5.42c.05 4-12.39 11.93-12.3 18.88a1.89 1.89 0 001.86 1.8c2.45 0 6.89-3.67 8.7-5.24l6.05-5.25.16.8a49.33 49.33 0 008.78-11.09c-6.22.27-4.29-.21-9.68.8l1.1-1.86c5.39-9.12 6.18-10.72 17.08-11.73 3-4.33 5.18-9.21 11.09-9.63 1.33-.1 3.26.06 3.28 1.68 0 1.82-2.88 5.38-3.88 6.87h6.32c-4.66 10-5.42 13.83-16.64 13.81-3.41 4.66-9.1 13.23-9 19.3 0 2.22.76 3.51 3.11 3.39 3.25-.18 6.87-3.34 17.28-11.52 3.28-9.72 12.37-18.25 17.28-18.75 1.73-.17 4.48.16 4.51 2.38.07 5.07-9.88 15.06-14.12 18.32-.76 4.21.8 6.32 5.48 5.89 3.76-.34 7.43-3.31 10.67-6.22.35-3.34 2.87-4.67 5.55-6.46 6-3.92 9.14-9.08 12.21-15.25 2.57-5.26 15.33-31.14 20.49-32 2.23-.35 2.47 2.44 2.49 4.06.05 3.94-2.89 11.5-5.07 15q-9.29 14.64-18.6 29c3 1.34 4 4.53 5.38 7.28q6.57-5 13.14-10.14a43.51 43.51 0 0112.55-18.91 8.73 8.73 0 014.43-1.89c1.41-.24 6.55-2.1 6.18 1-.18 1.65-2.87 5-4 6.09-3.08 4.1-3.68 5.11-7.58 8.62-3.1 2.75-5.5 5.37-5.44 9.61 0 .51.12 1.5.83 1.38 1.82-.29 7.34-4.15 12-9.26q4.94-5.39 9.87-10.85c2.09-2.31 11.83-13.91 14.34-14.47.8-.17 1.91-.11 2.38 5.05.23 2.38-2.45 5.29-4 7-3.18 3.62-10.22 13-10.16 17.57 0 1.61.94 2 2.55 1.72 3.47-.68 10.79-8 14.36-11.74a64.73 64.73 0 0110.3-27c8.67-13.07 18-24.92 21.21-25.78 1.73-.3 2.16 2.01 2.08 3.35zm107 34.6s-16.27-21.47-63.73-30.4l13.49 72.16-33.47 11.92s30-4.39 70.69 27.56c0 0-4.92-35.39-13.66-57 .04.02 24.19-16.93 26.71-24.24zm-129.6 1.38l.2.16c7-8.35 13.08-19.63 14.8-25.84-4.83 3.69-10.4 14.18-14.97 25.69z" fill="#92bc5b" id="Layer_1-2" data-name="Layer 1"/></g></svg>