<svg width="10" height="15" viewBox="0 0 10 15" version="1.1" xmlns="http://www.w3.org/2000/svg"><g id="Vendors" stroke="none" stroke-width="1" fill="none" fill-rule="evenodd"><g id="Vendor-Profile" transform="translate(-95 -3286)" fill="#FFF" fill-rule="nonzero"><path d="M103.88 3294.13l-5.844 5.843c-.2.2-.444.3-.73.3-.287 0-.53-.1-.73-.3l-.946-.988c-.2-.2-.3-.444-.3-.73 0-.287.1-.53.3-.731l4.125-4.125-4.125-4.125c-.2-.2-.3-.444-.3-.73 0-.287.1-.53.3-.731l.945-.988c.2-.2.444-.301.73-.301.287 0 .53.1.731.3l5.844 5.844c.2.2.3.444.3.73 0 .287-.1.53-.3.731z" id="chevron"/></g></g></svg>