<?xml version="1.0" encoding="UTF-8"?>
<svg width="10px" height="15px" viewBox="0 0 10 15" version="1.1" xmlns="http://www.w3.org/2000/svg" xmlns:xlink="http://www.w3.org/1999/xlink">
    <!-- Generator: Sketch 56.3 (81716) - https://sketch.com -->
    <title>chevron</title>
    <desc>Created with Sketch.</desc>
    <g id="Vendors" stroke="none" stroke-width="1" fill="none" fill-rule="evenodd">
        <g id="Vendor-Profile" transform="translate(-95.000000, -3286.000000)" fill="#FFFFFF" fill-rule="nonzero">
            <path d="M103.879943,3294.12929 L98.0362069,3299.97303 C97.8356863,3300.17355 97.5921977,3300.27381 97.3057399,3300.27381 C97.019282,3300.27381 96.7757934,3300.17355 96.5752728,3299.97303 L95.6299626,3298.98475 C95.429442,3298.78423 95.3291821,3298.54074 95.3291821,3298.25429 C95.3291821,3297.96783 95.429442,3297.72434 95.6299626,3297.52382 L99.7549528,3293.39883 L95.6299626,3289.27384 C95.429442,3289.07332 95.3291821,3288.82983 95.3291821,3288.54337 C95.3291821,3288.25691 95.429442,3288.01342 95.6299626,3287.8129 L96.5752728,3286.82462 C96.7757934,3286.6241 97.019282,3286.52384 97.3057399,3286.52384 C97.5921977,3286.52384 97.8356863,3286.6241 98.0362069,3286.82462 L103.879943,3292.66836 C104.080464,3292.86888 104.180723,3293.11237 104.180723,3293.39883 C104.180723,3293.68529 104.080464,3293.92877 103.879943,3294.12929 Z" id="chevron"></path>
        </g>
    </g>
</svg>