<svg width="23" height="17" viewBox="0 0 23 17" version="1.1" xmlns="http://www.w3.org/2000/svg"><g id="Vendors" stroke="none" stroke-width="1" fill="none" fill-rule="evenodd"><g id="Vendor-Profile" transform="translate(-392 -565)" fill="#7F9DC6" fill-rule="nonzero"><g id="Group-7" transform="translate(284 561.5)"><path d="M128.437 3.5c.573 0 1.06.2 1.461.602.401.4.602.888.602 1.46v12.376c0 .572-.2 1.06-.602 1.46a1.989 1.989 0 01-1.46.602h-17.876c-.572 0-1.06-.2-1.46-.602a1.989 1.989 0 01-.602-1.46V5.563c0-.573.2-1.06.602-1.461a1.989 1.989 0 011.46-.602h17.875zm0 2.063h-17.875v1.761c1.003.802 2.937 2.32 5.801 4.555l.387.344c.573.487 1.031.83 1.375 1.03.544.373 1.003.56 1.375.56.372 0 .83-.187 1.375-.56.344-.2.802-.543 1.375-1.03l.387-.344c2.864-2.206 4.798-3.724 5.8-4.555V5.563zm-17.875 12.375h17.875V9.945l-4.984 3.953c-.716.602-1.303 1.032-1.762 1.29-.773.458-1.504.687-2.191.687-.688 0-1.432-.23-2.234-.687-.43-.258-1.017-.688-1.762-1.29l-4.942-3.953v7.993z" id=""/></g></g></g></svg>