<?xml version="1.0" encoding="UTF-8"?>
<svg width="20px" height="20px" viewBox="0 0 20 20" version="1.1" xmlns="http://www.w3.org/2000/svg" xmlns:xlink="http://www.w3.org/1999/xlink">
    <!-- Generator: Sketch 56.3 (81716) - https://sketch.com -->
    <title></title>
    <desc>Created with Sketch.</desc>
    <g id="Vendors" stroke="none" stroke-width="1" fill="none" fill-rule="evenodd">
        <g id="Vendor-Profile" transform="translate(-355.000000, -563.000000)" fill="#7F9DC6" fill-rule="nonzero">
            <g id="Group-7" transform="translate(284.000000, 561.500000)">
                <path d="M80.6249771,6.8086252 C81.512996,6.8086252 82.3365613,7.0306301 83.0956743,7.47463924 C83.8547873,7.91864838 84.4563483,8.52020944 84.9003575,9.27932244 C85.3443666,10.0384354 85.5663715,10.8620007 85.5663715,11.7500197 C85.5663715,12.6380386 85.3443666,13.4616039 84.9003575,14.2207169 C84.4563483,14.9798299 83.8547873,15.581391 83.0956743,16.0254001 C82.3365613,16.4694092 81.512996,16.6914141 80.6249771,16.6914141 C79.7369581,16.6914141 78.9133928,16.4694092 78.1542798,16.0254001 C77.3951668,15.581391 76.7936058,14.9798299 76.3495966,14.2207169 C75.9055875,13.4616039 75.6835826,12.6380386 75.6835826,11.7500197 C75.6835826,10.8620007 75.9055875,10.0384354 76.3495966,9.27932244 C76.7936058,8.52020944 77.3951668,7.91864838 78.1542798,7.47463924 C78.9133928,7.0306301 79.7369581,6.8086252 80.6249771,6.8086252 Z M80.6249771,14.9726682 C81.512996,14.9726682 82.2721083,14.657565 82.9023154,14.027358 C83.5325224,13.3971509 83.8476256,12.6380386 83.8476256,11.7500197 C83.8476256,10.8620007 83.5325224,10.1028884 82.9023154,9.47268135 C82.2721083,8.8424743 81.512996,8.5273711 80.6249771,8.5273711 C79.7369581,8.5273711 78.9778458,8.8424743 78.3476387,9.47268135 C77.7174317,10.1028884 77.4023285,10.8620007 77.4023285,11.7500197 C77.4023285,12.6380386 77.7174317,13.3971509 78.3476387,14.027358 C78.9778458,14.657565 79.7369581,14.9726682 80.6249771,14.9726682 Z M86.9413682,6.59378196 C86.9127223,6.90888516 86.790978,7.18102036 86.5761347,7.41018627 C86.3612915,7.63935217 86.096318,7.75393545 85.7812148,7.75393545 C85.4661116,7.75393545 85.1939764,7.63935217 84.9648105,7.41018627 C84.7356446,7.18102036 84.6210613,6.90888516 84.6210613,6.59378196 C84.6210613,6.27867877 84.7356446,6.00654356 84.9648105,5.77737766 C85.1939764,5.54821176 85.4661116,5.43362848 85.7812148,5.43362848 C86.096318,5.43362848 86.3684532,5.54821176 86.5976191,5.77737766 C86.826785,6.00654356 86.9413682,6.27867877 86.9413682,6.59378196 Z M90.2069855,7.75393545 C90.2356314,8.55601709 90.2499541,9.88804516 90.2499541,11.7500197 C90.2499541,13.6119942 90.2284698,14.9511839 90.1855011,15.7675882 C90.1425325,16.5839925 90.0207882,17.2929752 89.8202676,17.8945363 C89.5624557,18.6106806 89.1685763,19.233726 88.6386298,19.7636724 C88.1086834,20.2936189 87.485638,20.6874984 86.7694937,20.9453102 C86.1679326,21.1458308 85.4589499,21.2675751 84.6425456,21.3105438 C83.8261413,21.3535124 82.4869516,21.3749967 80.6249771,21.3749967 C78.7630025,21.3749967 77.4238128,21.3535124 76.6074085,21.3105438 C75.7910042,21.2675751 75.0820215,21.1315075 74.4804605,20.9023416 C73.7643161,20.6731757 73.1412707,20.2936189 72.6113243,19.7636724 C72.0813778,19.233726 71.6874984,18.6106806 71.4296865,17.8945363 C71.2291659,17.2929752 71.1074216,16.5839925 71.064453,15.7675882 C71.0214843,14.9511839 71,13.6119942 71,11.7500197 C71,9.88804516 71.0214843,8.54885543 71.064453,7.73245112 C71.1074216,6.91604682 71.2291659,6.20706414 71.4296865,5.60550307 C71.6874984,4.88935872 72.0813778,4.26631334 72.6113243,3.7363669 C73.1412707,3.20642047 73.7643161,2.81254098 74.4804605,2.55472909 C75.0820215,2.35420852 75.7910042,2.23246424 76.6074085,2.18949559 C77.4238128,2.14652694 78.7630025,2.12504262 80.6249771,2.12504262 C82.4869516,2.12504262 83.8261413,2.14652694 84.6425456,2.18949559 C85.4589499,2.23246424 86.1679326,2.35420852 86.7694937,2.55472909 C87.485638,2.81254098 88.1086834,3.20642047 88.6386298,3.7363669 C89.1685763,4.26631334 89.5624557,4.88935872 89.8202676,5.60550307 C90.0207882,6.20706414 90.1496941,6.92320848 90.2069855,7.75393545 Z M88.1444904,17.4218811 C88.316365,16.9349034 88.4309482,16.1614677 88.4882396,15.1015742 C88.5168855,14.4713671 88.5312082,13.5833489 88.5312082,12.437518 L88.5312082,11.0625213 C88.5312082,9.88804516 88.5168855,9.00002623 88.4882396,8.39846516 C88.4309482,7.30992631 88.316365,6.53649065 88.1444904,6.07815819 C87.8007412,5.19013926 87.1848575,4.57425553 86.2968385,4.23050635 C85.8385061,4.05863176 85.0650704,3.94404848 83.9765316,3.88675717 C83.3463245,3.85811118 82.4583062,3.84378852 81.3124754,3.84378852 L79.9374787,3.84378852 C78.7916479,3.84378852 77.9036296,3.85811118 77.2734225,3.88675717 C76.213529,3.94404848 75.4400934,4.05863176 74.9531156,4.23050635 C74.0650966,4.57425553 73.4492129,5.19013926 73.1054637,6.07815819 C72.9335891,6.53649065 72.8190059,7.30992631 72.7617145,8.39846516 C72.7330686,9.02867221 72.7187459,9.91669049 72.7187459,11.0625213 L72.7187459,12.437518 C72.7187459,13.5833489 72.7330686,14.4713671 72.7617145,15.1015742 C72.8190059,16.1614677 72.9335891,16.9349034 73.1054637,17.4218811 C73.4778589,18.3099001 74.0937426,18.9257838 74.9531156,19.269533 C75.4400934,19.4414076 76.213529,19.5559909 77.2734225,19.6132822 C77.9036296,19.6419282 78.7916479,19.6562508 79.9374787,19.6562508 L81.3124754,19.6562508 C82.4869516,19.6562508 83.3749705,19.6419282 83.9765316,19.6132822 C85.0650704,19.5559909 85.8385061,19.4414076 86.2968385,19.269533 C87.1848575,18.8971378 87.8007412,18.2812541 88.1444904,17.4218811 Z" id=""></path>
            </g>
        </g>
    </g>
</svg>