<svg width="20" height="20" viewBox="0 0 20 20" version="1.1" xmlns="http://www.w3.org/2000/svg"><g id="Vendors" stroke="none" stroke-width="1" fill="none" fill-rule="evenodd"><g id="Vendor-Profile" transform="translate(-355 -563)" fill="#7F9DC6" fill-rule="nonzero"><g id="Group-7" transform="translate(284 561.5)"><path d="M80.625 6.809c.888 0 1.712.222 2.47.666A4.956 4.956 0 0 1 84.9 9.279c.444.76.666 1.583.666 2.471 0 .888-.222 1.712-.666 2.47a4.956 4.956 0 0 1-1.804 1.805 4.808 4.808 0 0 1-2.471.666 4.808 4.808 0 0 1-2.47-.666 4.956 4.956 0 0 1-1.805-1.804 4.808 4.808 0 0 1-.666-2.471c0-.888.222-1.712.666-2.47a4.956 4.956 0 0 1 1.804-1.805 4.808 4.808 0 0 1 2.471-.666zm0 8.164a3.1 3.1 0 0 0 2.277-.946c.63-.63.946-1.389.946-2.277a3.1 3.1 0 0 0-.946-2.277 3.104 3.104 0 0 0-2.277-.946 3.1 3.1 0 0 0-2.277.946 3.104 3.104 0 0 0-.946 2.277 3.1 3.1 0 0 0 .946 2.277c.63.63 1.389.946 2.277.946zm6.316-8.38c-.028.316-.15.588-.365.817-.215.23-.48.344-.795.344-.315 0-.587-.115-.816-.344a1.115 1.115 0 0 1-.344-.816c0-.315.115-.587.344-.817.229-.229.501-.343.816-.343.315 0 .587.114.817.343.229.23.343.502.343.817zm3.266 1.16c.029.803.043 2.135.043 3.997s-.022 3.201-.064 4.018c-.043.816-.165 1.525-.366 2.127a5.008 5.008 0 0 1-1.181 1.869c-.53.53-1.153.923-1.87 1.181-.601.2-1.31.323-2.126.366-.817.043-2.156.064-4.018.064-1.862 0-3.201-.021-4.018-.064-.816-.043-1.525-.18-2.127-.409a4.58 4.58 0 0 1-1.869-1.138 5.008 5.008 0 0 1-1.181-1.87c-.2-.601-.323-1.31-.366-2.126-.043-.817-.064-2.156-.064-4.018 0-1.862.021-3.201.064-4.018.043-.816.165-1.525.366-2.126a5.008 5.008 0 0 1 1.181-1.87 5.008 5.008 0 0 1 1.87-1.181c.601-.2 1.31-.323 2.126-.366.817-.042 2.156-.064 4.018-.064 1.862 0 3.201.022 4.018.064.816.043 1.525.165 2.126.366.717.258 1.34.651 1.87 1.181s.923 1.153 1.181 1.87c.2.601.33 1.317.387 2.148zm-2.063 9.669c.172-.487.287-1.26.344-2.32.029-.63.043-1.519.043-2.664v-1.375c0-1.175-.014-2.063-.043-2.665-.057-1.088-.172-1.862-.344-2.32-.343-.888-.96-1.504-1.847-1.847-.458-.172-1.232-.287-2.32-.344a62.69 62.69 0 0 0-2.665-.043h-1.375a62.69 62.69 0 0 0-2.664.043c-1.06.057-1.833.172-2.32.344-.888.343-1.504.96-1.848 1.847-.171.458-.286 1.232-.343 2.32a62.69 62.69 0 0 0-.043 2.665v1.375c0 1.145.014 2.033.043 2.664.057 1.06.172 1.833.343 2.32.373.888.989 1.504 1.848 1.848.487.171 1.26.286 2.32.343.63.029 1.519.043 2.664.043h1.375c1.175 0 2.063-.014 2.665-.043 1.088-.057 1.862-.172 2.32-.343.888-.373 1.504-.989 1.847-1.848z" id=""/></g></g></g></svg>