<svg width="22" height="19" viewBox="0 0 22 19" version="1.1" xmlns="http://www.w3.org/2000/svg"><g id="Vendors" stroke="none" stroke-width="1" fill="none" fill-rule="evenodd"><g id="Vendor-Profile" transform="translate(-284 -564)" fill="#7F9DC6" fill-rule="nonzero"><g id="Group-7" transform="translate(284 561.5)"><path d="M19.723 7.281c.028.115.043.301.043.559 0 2.062-.502 4.053-1.504 5.973-1.032 2.033-2.478 3.652-4.34 4.855-2.034 1.346-4.369 2.02-7.004 2.02-2.52 0-4.827-.674-6.918-2.02.315.029.673.043 1.074.043 2.091 0 3.968-.645 5.63-1.934-1.003 0-1.884-.293-2.643-.88a4.487 4.487 0 0 1-1.569-2.213c.287.028.559.043.817.043.4 0 .802-.043 1.203-.13a4.546 4.546 0 0 1-2.578-1.59c-.688-.83-1.032-1.775-1.032-2.835v-.086c.63.372 1.304.573 2.02.602A5.005 5.005 0 0 1 1.46 8.055a4.334 4.334 0 0 1-.559-2.17c0-.788.215-1.54.645-2.256A12.441 12.441 0 0 0 5.65 6.98a12.49 12.49 0 0 0 5.178 1.375 6.263 6.263 0 0 1-.086-1.03c0-.803.2-1.555.602-2.257a4.416 4.416 0 0 1 1.633-1.654 4.358 4.358 0 0 1 2.234-.601c.659 0 1.267.128 1.826.386a5.103 5.103 0 0 1 1.482 1.032 9.18 9.18 0 0 0 2.88-1.075c-.344 1.06-1.003 1.89-1.977 2.492A9.692 9.692 0 0 0 22 4.918a9.918 9.918 0 0 1-2.277 2.363z" id=""/></g></g></g></svg>