<svg xmlns="http://www.w3.org/2000/svg" viewBox="0 0 579.95 501.85"><defs><style>.cls-1{fill:#92bc5b;}</style></defs><title>Asset 2</title><g id="Layer_2" data-name="Layer 2"><g id="Layer_1-2" data-name="Layer 1"><path class="cls-1" d="M113.48,456.89l19.06,40.58-1.92,4-17.3-36.86-1.09,24.95q-.08,3.76-.08,3.09,0,7.31,5.64,8.06v.75l-1.17-.12q-4.68-.38-6.18-.38-2,0-7.23.5v-.75q5.31-1.38,5.77-10.87l1.21-28.54a12.06,12.06,0,0,0-7-4.14v-.75q3.39.38,7.23.42ZM134.17,486l13.37-29.13h3.22l2,44h-1.63q-1.76,0-4.6.25l-2.76.25v-.75q5-1.38,5-9,0,.13-.08-2.8l-1.09-24.36-13.37,29.29-17.3-36.94h3.55Zm21.65,14.92-2-44h1.42q3,0,8.57-.5v.75a6.57,6.57,0,0,0-4.43,2.67,8.53,8.53,0,0,0-1.63,5.27l.08,4.47.92,20q.25,5.47,1.71,8.06a5.84,5.84,0,0,0,4.6,3.05v.75Q158.86,500.94,155.81,500.94Zm47.72-10.11L199.82,483H184.06l-4,7.77-.21.54s-.24.43-.63,1.21a8,8,0,0,0-.88,3.59q0,3.18,3.51,4.51v.75a24.44,24.44,0,0,1-2.47-.21,37.93,37.93,0,0,0-4.43-.29,41.2,41.2,0,0,0-4.43.29q-1.8.21-2.38.21v-.75q4.6-2.34,8.36-9.65l13.87-27a12,12,0,0,0-4.37-5,13,13,0,0,0-6.5-1.92v-.75H181q2,0,5.39.25,3.59.25,4.68.25l21.1,44q-4.05.08-9.74.5v-.75q3.18-.54,3.18-3.43Q205.63,495.13,203.54,490.82Zm-17.84-10.91h12.62l-6.06-12.7Zm29.84,21-21.1-44h4.1q.84,2.17,2.34,5.47,1.67,3.55,1.88,4.22a5.22,5.22,0,0,1,.38.88l9.82,20.35q5.14,10.61,10.95,12.87v.75Q218.2,500.94,215.53,500.94Zm21.35-44v44h-1.8q-1,0-3.3.25a35.44,35.44,0,0,1-4.51.25v-.75a6.23,6.23,0,0,0,4.43-2.63q1.75-2.34,1.75-9V467.55q0-9.11-6.18-10.41v-.75Q229.95,456.68,236.88,456.89Zm4.26,44h-1.21v-44q2.51,0,5.35-.21,3.26-.29,5.31-.29,5.72,0,8.52,3.51a13.2,13.2,0,0,1,2.8,8.57q0,8.65-7.31,11.07a14.17,14.17,0,0,1,6.1,2.17,64.93,64.93,0,0,1,8,7.19q8.15,8.27,13.29,8.27a3.88,3.88,0,0,0,2.13-.71l.17.75a5.52,5.52,0,0,1-4.64,2.17A11.83,11.83,0,0,1,273,497a79.37,79.37,0,0,1-9.74-8.86q-7.77-8-15.13-8,4.55,1.42,12.33,9.57a93.56,93.56,0,0,0,8.78,8.27,10.59,10.59,0,0,0,6.39,2.59v.38a8.38,8.38,0,0,1-2.8.5,12.05,12.05,0,0,1-7-2,39.7,39.7,0,0,1-4-3.45q-2.44-2.32-5.87-6a81.41,81.41,0,0,0-7.44-7.27,17.24,17.24,0,0,0-5.06-2.76v9.9q0,10,6,10.87v.75Q244.41,500.94,241.15,500.94Zm2.26-32.55v9.07a21.66,21.66,0,0,0,5.35.63q9.4,0,9.4-9.78,0-9.15-9.32-9.15a7.85,7.85,0,0,0-4.68,1.21Q243.4,462,243.4,468.38Zm18.93,9a17.42,17.42,0,0,0,2.72-9.49,17.17,17.17,0,0,0-3.13-9.49q7.19,3.05,7.19,9.61T262.33,477.41Zm33.1-20.52v44q-2.13,0-8.48.5v-.75q5.06-1,5.06-7.77V465.25a11.32,11.32,0,0,0-1-5.52,6.43,6.43,0,0,0-4-2.59v-.75Q291,456.81,295.43,456.89Zm8.4,18.55L327,500.94h-4.6L302,478.2v14.71a9.54,9.54,0,0,0,1.13,5.18,6.62,6.62,0,0,0,4.05,2.59v.75q-5.52-.5-8.65-.5v-44q5.72-.21,8.65-.5v.75q-3.13.71-4.14,2.8t-1,9.24v7.69Zm29,25.49h-1.76l-24.91-27.41,9.57-7.65q4.93-3.93,4.93-6,0-1.63-2.72-2.72v-.75q1.88,0,5.06.29,2.84.21,4.18.21t3.26-.17q2.8-.21,5.31-.33v.75Q329.9,458.65,323,464l-2.8,2.17a3.89,3.89,0,0,0-.54.42l-8.78,7.06,16.63,18.43q7.56,8.44,11.41,8.57v.75Q333.08,500.94,332.87,500.94Zm16.71-44H351v44h-2.76q-1.46,0-6.18.5v-.75a6,6,0,0,0,3.43-2.13,8.82,8.82,0,0,0,1.63-3.64,56.35,56.35,0,0,0,.46-9.19V468.21q0-6.06-1.63-8.32a6.53,6.53,0,0,0-3.89-2.76v-.75Zm21.1,44H354v-44h12.16q3.42,0,13-.5-.08,1.25-.08,1.88,0,.84.21,3.89.12,2,.13,2.21v1h-.71q-1.5-3.59-3.43-4.64t-7.23-1h-6.64a19.09,19.09,0,0,0-2.92.21q-.75,1.42-.88,6.77l-.08,2.84v6.81h9q5.1,0,6.77-.88t2.67-4.18h.92q-.33,3.76-.33,6.52,0,1.75.25,4.6.08.84.21,3.3H376q-.38-3.68-2.21-5.06t-5.89-1.38H357.44v9.11a64,64,0,0,0,.58,9.24,26.65,26.65,0,0,0,3.76.25h6.35a20.1,20.1,0,0,0,7.81-1.17q2.76-1.21,5.43-5.39h.84a40.62,40.62,0,0,1-1.38,4.43,47.93,47.93,0,0,0-1.63,5.64A82.4,82.4,0,0,0,370.69,500.94Zm24.86-44h13.79v44h-1.25q-2.72,0-8.11.5v-.75a6.77,6.77,0,0,0,4.76-3.55q1.25-2.63,1.25-8.78V459.82H395.34q-4.05,0-5.72,1.67t-2.8,6.31h-1c0-.36,0-.75,0-1.17a17.14,17.14,0,0,1,.17-2.13,73.4,73.4,0,0,0,.5-8.11,53.28,53.28,0,0,0,5.52.38Zm18,44h-1.09v-44h15a65.51,65.51,0,0,0,8.15-.5q0,.8-.13,2.88-.12,1.92-.13,4.81a33.77,33.77,0,0,1-.21,3.72h-1a9.9,9.9,0,0,0-1.71-5.68q-1.67-2.3-7.06-2.3h-9.49v29.92q0,5.14,1.46,7.73a6.4,6.4,0,0,0,4.51,3.22v.75Q414.48,500.94,413.52,500.94Zm27.66-14.5h1a12.07,12.07,0,0,0,4.3,8.82,13.33,13.33,0,0,0,9,3.43,9.2,9.2,0,0,0,6.39-2.21,6.89,6.89,0,0,0,2.46-5.31A6,6,0,0,0,462,486.1q-2.3-1.75-9.07-4a61.41,61.41,0,0,1-7.73-3,10.64,10.64,0,0,1-4.18-3.72,9.25,9.25,0,0,1-1.63-5.35,11.22,11.22,0,0,1,2.21-6.48,9.88,9.88,0,0,0-.5,2.84,10.55,10.55,0,0,0,1.55,5.73,10.78,10.78,0,0,0,3.93,3.84,43.05,43.05,0,0,0,7.81,3.05q7.15,2.17,10.32,4.81a8.47,8.47,0,0,1,3,6.85,11,11,0,0,1-3.18,7.65q-3.22,3.47-9.61,3.47a37.56,37.56,0,0,1-7.19-1,36.21,36.21,0,0,0-6-.88l-.29-.33q0-.71,0-1.84,0-1.34-.25-4.14t-.21-4.18A24.45,24.45,0,0,1,441.19,486.43ZM470.69,469h-.88a8,8,0,0,0-3.84-7.19,16.86,16.86,0,0,0-9-2.3,12.34,12.34,0,0,0-6.94,1.8q-2.76,1.8-2.76,4.3a4.91,4.91,0,0,0,2.17,4.22q2.26,1.67,8.9,4a64.64,64.64,0,0,1,8.65,3.47,12.33,12.33,0,0,1,4.39,4.18,11.49,11.49,0,0,1,1.75,6.23,9.77,9.77,0,0,1-3.84,8.19,9.29,9.29,0,0,0,1.42-5.52,11.36,11.36,0,0,0-1.55-5.93,13.11,13.11,0,0,0-4-4.18,35.73,35.73,0,0,0-7.9-3.38q-8.23-2.72-10.74-4.64t-2.51-6.1a8.67,8.67,0,0,1,3.84-7.48q3.84-2.63,10.91-2.63a51.61,51.61,0,0,1,11.74,1.67v.29l.08,1.59q0,1.25.08,3,.12,2.13.13,3.76Q470.77,467.38,470.69,469ZM431.24,269H398.8l24.74,23.77ZM179.76,228.35,174.94,219l-5.22,9.32Zm266.18,35.3V196.14a2.69,2.69,0,0,0-1.38-.33H308.86V67.45a1.47,1.47,0,0,0-1.58-1.26H287.12a1.47,1.47,0,0,0-1.58,1.26V195.81H141.93a2.73,2.73,0,0,0-1.4.33v67.5a2.72,2.72,0,0,0,1.4.33H444.56A2.67,2.67,0,0,0,445.94,263.65Zm-178.67-49a6.38,6.38,0,0,1,.3,8.46,7,7,0,0,1-3.55,2.45,8.86,8.86,0,0,0,2-5.83,10,10,0,0,0-1.13-4.78,6.41,6.41,0,0,0-2.69-2.91A8.82,8.82,0,0,1,267.26,214.64ZM183,244.14v-.55q2.52-.4,2.52-2.51a11.71,11.71,0,0,0-1.66-4.72l-3-5.7H168.43l-3.16,5.7-.17.4s-.19.32-.5.89a5.47,5.47,0,0,0-.7,2.64q0,2.33,2.79,3.31v.55q-.57,0-2-.15a32.62,32.62,0,0,0-3.52-.21q-1.43,0-3.52.21-1.43.15-1.89.15v-.55q3.65-1.72,6.64-7.08l11-19.81A9.08,9.08,0,0,0,170,213a11,11,0,0,0-5.17-1.41v-.55H166q1.56,0,4.29.18t3.72.18l16.78,32.32Q187.56,243.83,183,244.14Zm17,0q-4.52-.37-6.64-.37l-16.78-32.32h3.26q.66,1.59,1.86,4,1.33,2.61,1.49,3.1a3.7,3.7,0,0,1,.3.64l7.81,14.93q4.09,7.79,8.7,9.44Zm10.17-.37h-2.06a43.19,43.19,0,0,0-4.95.37v-.55a5.52,5.52,0,0,0,3.36-2.85,16.63,16.63,0,0,0,.9-6.38V219.7q0-4.69-1.33-6.19a5.52,5.52,0,0,0-2.92-1.87v-.55l7,.37Zm24.62-2.88a17.88,17.88,0,0,0-1.06,3.25,42.68,42.68,0,0,0-5.78-.37H212.65V211.45q2.26-.06,5-.25l2.39-.12v.55a5.4,5.4,0,0,0-3.62,2.42,11.49,11.49,0,0,0-1.06,5.55v13.34a38.86,38.86,0,0,0,.33,5.37,6.41,6.41,0,0,0,.7,2.85,3.1,3.1,0,0,0,1.93.37h7a15.14,15.14,0,0,0,6.11-1.07,9.64,9.64,0,0,0,4.25-4.23h.66A25.35,25.35,0,0,1,234.87,240.89Zm11.36,2.88q-2.89.09-7,.37v-.55q4.25-1.07,4.25-8.31v-16q0-6.38-4.25-7.67v-.55q3.45.31,7,.37Zm10,.37q-2,0-4.25-.21-2.06-.15-3.26-.15V211.45l5.68-.37a9.22,9.22,0,0,1,6.71,2.42,8.42,8.42,0,0,1,2.46,6.22,7,7,0,0,1-4.45,6.81q7.18,1.5,7.18,8.62a9.26,9.26,0,0,1-2.36,6.29Q261.52,244.14,256.2,244.14ZM270.09,240a8.29,8.29,0,0,1-4.42,2.88,10.15,10.15,0,0,0,3.06-7.6,10.64,10.64,0,0,0-3.19-8q6.31,2.12,6.31,7.79A7.68,7.68,0,0,1,270.09,240Zm13.29,3.74h-2.19q-1.16,0-4.92.37v-.55A4.84,4.84,0,0,0,279,242a6.23,6.23,0,0,0,1.3-2.67,38.25,38.25,0,0,0,.37-6.75V219.76q0-4.45-1.3-6.1a5.21,5.21,0,0,0-3.09-2v-.55l6,.37h1.1ZM307.13,240a33.22,33.22,0,0,0-1.3,4.14q-3.79-.37-6.78-.37H285.77V211.45h9.67q2.73,0,10.3-.37-.07.92-.07,1.38,0,.61.17,2.85.1,1.5.1,1.63v.77h-.56a6.7,6.7,0,0,0-2.72-3.4q-1.53-.74-5.75-.74h-5.28a16.43,16.43,0,0,0-2.32.15q-.6,1-.7,5l-.07,2.09v5h7.18q4.05,0,5.38-.64a4.88,4.88,0,0,0,2.13-3.07h.73q-.27,2.76-.27,4.78,0,1.29.2,3.37.07.61.17,2.42h-.73a4.91,4.91,0,0,0-1.76-3.71,8.51,8.51,0,0,0-4.68-1h-8.34v6.68a43.42,43.42,0,0,0,.47,6.78,23,23,0,0,0,3,.18h5a17.2,17.2,0,0,0,6.21-.86,10.45,10.45,0,0,0,4.32-4h.66A28,28,0,0,1,307.13,240Zm38-20.36q0,4.88-5.38,6.87a11.59,11.59,0,0,0-.33-13.92Q345.17,214.82,345.17,219.64Zm-25.61,24.13h-1.43q-.83,0-2.62.18a30.55,30.55,0,0,1-3.59.18v-.55a5,5,0,0,0,3.52-1.93q1.4-1.72,1.4-6.62V219.27q0-6.68-4.92-7.63v-.55q2.13.21,7.64.37Zm34-1.13a9.91,9.91,0,0,1-5.28-1.75,61.63,61.63,0,0,1-7.74-6.5q-6.18-5.89-12-5.89,3.62,1,9.8,7a72.34,72.34,0,0,0,7,6.07,8.82,8.82,0,0,0,5.08,1.9v.28a7.14,7.14,0,0,1-2.23.37,10.17,10.17,0,0,1-5.58-1.5,31,31,0,0,1-3.21-2.53q-1.94-1.7-4.67-4.4a62.68,62.68,0,0,0-5.91-5.34,14.1,14.1,0,0,0-4-2v7.27q0,7.33,4.78,8v.55q-4-.37-6.58-.37h-1V211.45q2,0,4.25-.15,2.59-.21,4.22-.21,4.55,0,6.78,2.58a9.21,9.21,0,0,1,2.23,6.29q0,6.35-5.81,8.13a11.88,11.88,0,0,1,4.85,1.59,50.51,50.51,0,0,1,6.35,5.27Q351.31,241,355.4,241a3.26,3.26,0,0,0,1.69-.52l.13.55A4.54,4.54,0,0,1,353.54,242.63Zm16.15,1.13h-1q-2.16,0-6.45.37v-.55A5.35,5.35,0,0,0,366,241q1-1.93,1-6.44V213.6h-8.47q-3.22,0-4.55,1.23a9.79,9.79,0,0,0-2.23,4.63H351q0-.4,0-.86a11.7,11.7,0,0,1,.13-1.56,49.72,49.72,0,0,0,.4-5.95q1.76.21,4.39.28l2.82.09h11Zm12.76-30.17H374.9v22a11,11,0,0,0,1.16,5.67,5.09,5.09,0,0,0,3.59,2.36v.55q-5.88-.37-6.64-.37h-.86V211.45h12a56.59,56.59,0,0,0,6.48-.37q0,.58-.1,2.12t-.1,3.53a22.83,22.83,0,0,1-.17,2.73h-.8a6.86,6.86,0,0,0-1.36-4.17Q386.73,213.6,382.44,213.6Zm33.26,30.54v-.55q2.52-.4,2.52-2.51a11.71,11.71,0,0,0-1.66-4.72l-3-5.7H401.08l-3.16,5.7-.17.4s-.19.32-.5.89a5.47,5.47,0,0,0-.7,2.64q0,2.33,2.79,3.31v.55q-.57,0-2-.15a32.63,32.63,0,0,0-3.52-.21q-1.43,0-3.52.21-1.43.15-1.89.15v-.55q3.66-1.72,6.64-7.08l11-19.81a9.08,9.08,0,0,0-3.47-3.65,11,11,0,0,0-5.17-1.41v-.55h1.16q1.56,0,4.29.18t3.72.18l16.78,32.32Q420.22,243.83,415.7,244.14Zm17,0q-4.52-.37-6.64-.37l-16.78-32.32h3.26q.66,1.59,1.86,4,1.33,2.61,1.49,3.1a3.71,3.71,0,0,1,.3.64L424,234.14q4.09,7.79,8.7,9.44Zm-25.24-80.7c10.34-6.78,21.85-6,33.61-3.49a37.63,37.63,0,0,0,.5-10.95c-13-.55-25.55,2.42-37,12.06ZM259.72,228.78a15.44,15.44,0,0,0-5-.61h-3.32v5.52q0,5.79,1.36,7.33a6,6,0,0,0,3.49.83q3.89,0,5.55-2.09a7.8,7.8,0,0,0,1.59-4.87,6.92,6.92,0,0,0-1-3.83A5.72,5.72,0,0,0,259.72,228.78Zm-.83-4.39a7,7,0,0,0-.13-9.32,6.62,6.62,0,0,0-4.45-1.59,3.75,3.75,0,0,0-2.29.64,18.79,18.79,0,0,0-.6,5.7V226H254A7,7,0,0,0,258.89,224.39Zm153.52,4L407.59,219l-5.22,9.32Zm-75.94-8.52q0-6.72-7.41-6.72a6.64,6.64,0,0,0-3.72.89q-.6,1.23-.6,5.89v6.65A18.61,18.61,0,0,0,329,227Q336.46,227,336.47,219.82ZM256.73,100.77c-3.2,9.72-6.52,20.57-7.29,30.81,8.87-11.9,21.46-21.9,11.15-43.68-14.15,9.49-21.19,23.82-14.49,43.29C248.84,120.63,251.35,110,256.73,100.77ZM198.13,269l-29.2,28.27,25.35,24.35,30.41-29.21L200.31,269ZM155,269l8.53,22.91.92.08,23.94-23Zm8.79,23.62a.85.85,0,0,1,0,.1h0l0-.1ZM338.1,269l19.71,18.93L377.51,269Zm48.76,0-24.38,23.42,30.92,29.7,25.3-24.31.07-.67L389.47,269ZM138,155.3c.29.88,14.25,17.48,30.65,35.5h64.18A38.33,38.33,0,0,1,225,149.13c-.46,5.8-1.36,13.08.76,20.77a58.29,58.29,0,0,0,10.61,20.91h44.18V133.92c-5.35-6.22-12.13-9.24-19-8.29-10,1.38-9.47,10.72-17.85,13.42-5.44,1.75-10.64-2.4-17.1,1.61-4.82,3-8,8.34-9.43,12.2-3,8.1-1.69,17.35,1.64,25.95-15.76-14.74-34.3-31-48.38-43.8,0,0,4.64,7.8,10.64,18.42l-25.45-23,5.92,10.9c-4.42-2.8-7.8-4.79-9.54-5.63-6-2.9-11.91,2.44-12.48,8.3-.23,2.4,4.73,9.29,11.73,17.76q-5.25-3.08-10.65-6.14Zm105.29-17.6,3-1.32a51.93,51.93,0,0,0-29.77-22.64,38.27,38.27,0,0,0-1.76,10.39C225.46,125.43,235.63,128.19,243.26,137.7Zm181.17,43.5a42.19,42.19,0,0,1,.68,9.61h7.08a26.9,26.9,0,0,0-.26-3.17,29.5,29.5,0,0,0-7.29-15.43c-6-6.25-12.51-3.94-17.93-7.59-8.34-5.61-5.59-14.7-16-19.59-13-6.14-29,1.06-37.55,20a67.77,67.77,0,0,0-5,15.83c.38-3.08.82-6.48,1.2-9.43l0-.23a56.26,56.26,0,0,0,.93-7.32h0s11.28-20.71.9-34.08a10.89,10.89,0,0,0-1.24-1.46h0c.24-.57-.33-1.55-.65-1.87.29-.48.18.21.63,0,1,.05,1.52.81,2.22,1.3.51-.23-.52-.6,0-.77.71-.22,1.05,1.31,1.59.68.35-.22.92.23,1-.27-.6,0-.19,0-.7-.28.43-.08.74-.23.8-.53,0-.7-.88.23-1-.21l-.08-.29a1.6,1.6,0,0,1-1.15-.8c-.06-.33.42.09.74-.19,1.31-.45,1.8,1.56,2.77,1-.22-.4-.66-.43-.75-1.06.66-.35.81.17,1.29.13.19.4.83,1.12,1.22.46-.6.09-.08-.51-.63-.62l.59-.15.59-.15c.83.78,1.75,2.54,2.9,2.06-.23,0-.79-.45-.49-.66.12.29.47.19.71.29.38.56,1.06.6,1.84.46.09,0,.18,0,.19.11-.15,0-.14.17-.26.22.86.52,1.36,1.65,2.49,1.7.71-.3-.3-.75-.63-.62,0-1,2,.88,2.8-.11,0-.15-.17-.14-.23-.25.47.13.56-.55.18-.52a1.27,1.27,0,0,0-1.44-.09c-.2-.57-1.22.25-1.58-.05-.46.08-.68-.26-1-.36,0-.21-.47-.06-.22-.25l.15,0c.58.09,0-.52.33-.56,0,.27.24.31.52.18a.7.7,0,0,0,.4-.26c0,.37.35.25.34.7l.44-.12c-.08-.21-.09-.55-.3-.55-.08-.57-.47-.62-.71-.91,0-.09-.07-.17-.19-.11.1-.42.71,0,1.07-.12.53-.06.62.64,1.11.65s.63.91,1.19.94c.17-.93-.94-1.51-1.46-2l.59-.15a.75.75,0,0,0,1.07-.12.6.6,0,0,0-.89-.4c-1,.19-2.23.84-2.76.25l1.76-.46.88-.23c-.06-.4-.33-.43-.7-.29l-1.76.46c-.86-.24-2.05.11-2.77-.37.87-.54,2.63.23,2.6-.84l0-.15c.16-.07.1-.27,0-.48s.1-.27.22-.37c.91,1,2.25,1.26,3.34,1.95,1.16,1.7,2.71,2.74,3.84,4.48.41-.17-.42-1.08,0-1.25,1,0,1.24,1.43,2.26,1.45.33-.29-.32-.68,0-.77.52-.12.77.25,1.29.13.11.4.79.17.92-.08,0-.48-.48-.32-.74-.43l-.44.12c-.29-.42.14-.42.14-.66-.22,0-.31-.18-.52-.18a5.92,5.92,0,0,1-3.58-.47c-.09,0-.18,0-.19-.11-.1-.75.59.24,1.07-.12.12.41,1.17.34,1.07-.12a1.56,1.56,0,0,0-.37-.22h0c-.15.24,0,.42.1.42-.15,0-.24-.18-.1-.42-1.2-.51-3.07.14-3.66-1.39.29,0,.45.22.81.1a.41.41,0,0,0,.52.18c.39.4,1.17.11,1.77.16.32.38,1.12-.07,1.59.05.23,0,.5-.15.51.18a.87.87,0,0,0,1,.21c.12.29.47.19.7.29a2.77,2.77,0,0,0,1.18.32c.79.49,1.3,1.46,2.19,1.78.26-.66-.61-.85-.82-1.35l.44-.12c1,.77,1.65-.73.18-.52a4.84,4.84,0,0,1-2.29-.34c-.19,0-.25-.13-.48,0a.41.41,0,0,0-.52-.18c.07-.49.55,0,.88-.23.2.22.54.2,1,.06s.79.06,1.36-.2l.74-.19c-.06-.48-1-.53-.71-.91.31,0,.39.32.7.29.45.29,1,.42,1.33.9.44.31.79.78,1.45.72-.14-.41.48-.52-.16-.59-.43-.39-1-.47-1.37-1.05,1.43,0,2.3,1,3.62,1.25.57-.19,1,.69,1-.27l0-.15a3.51,3.51,0,0,0-1-.06l-.15,0c-.07-.23-.4,0-.41-.36.94-.33,1.28.36,2.32-.14l0,.15c.27.17.79-.07,1.21-.16a.71.71,0,0,1,0-.48c-.33,0-.51-.25-1-.06-.79.36-1-.26-1.84.17,0-.46,1.25-.18,1.25-.64,1.08-.46,2.8.52,3.12-.66-1.87,0-3.68-.08-5-1l.73-.19.15,0a3.37,3.37,0,0,0,1.29.13c.77-.18.9.73,1.7.49.57-.13.81.32,1.44.1-.15-.74-.94-.37-1.41-.57,0-.57.74-.18,1.18-.31a.86.86,0,0,0,.55-.3c0-.29-.25-.28-.3-.55-.75.29-1.18,0-1.95.35-.71-.35-2,.25-2.91.29l-.15,0c-.09-.2-.31-.18-.41-.36l.29-.08c1.88-.46,3.35-.2,5.18-.58.15,0,.14-.17.25-.22-.21-.78-1.36.05-1.92-.12l-.59.15c.7-.73,2.25-.21,2.71-1-.05-.27-.24-.3-.52-.18s-.5.15-.52-.18l0-.15c-.32-.39-1.14,0-1.51.24s-1.32.14-1.25.64c-1.25.27-1.64,1-3,1.25a13.13,13.13,0,0,1-3.34,1c-1.22.32-1.94-.22-3.24.22l-.3.08c-.32-.38-1-.09-1.58-.06.35-.36-.21-.56.29-.7.38,0,1.67-.08,1-.56l-.15,0c0-.48-.7.07-.85-.25.18-.06.34-.14.22-.37s-.74.13-1.07.12c-.15-.37-.79.06-1-.21l.15,0c1-.47,3-.4,3.45-1.22-.16-.28-.7.15-.41-.36l.15,0a10.07,10.07,0,0,1,1.83-.79l.15,0c.36-.63-.52-.37-.78-.58.54-.06.72-.32.77-.67l-.29.08a.73.73,0,0,0-.26-.4c.17-.07.42-.08.4-.26.43,0,.22-.37.51-.45l.42,1.62c.35,0,1.19.08,1.14-.46l0-.15a.84.84,0,0,0-.31-1.17l-.08-.29c-.19-.36-.08-.54.33-.56a3,3,0,0,1,2.61,2.77l.88-.23,0-.15c.48-.17-.1-1,.32-1.18.09.2.37.08.52.18.2.37.12,1.21.5,1.28.36.5-.33.39-.1.81-.33.43.64.44,1.14.17.1-.23,0-.58.1-.81s-.4-.82-.08-.92c1.52,0,3.27,1.68,4.68.5-.45-.22-1.19,0-1.51-.39l0-.15c-.08-.06-.77,0-.37-.22l.44-.12,0,.15c.18.09,1.38.08,1.14-.46a.87.87,0,0,0-1-.21c-.23-.32-.69-.23-1.14-.17l-.15,0,0-.15a2.47,2.47,0,0,0-1.1,0c-.68.24-.9-.3-1.58-.06-.07-.33.61-.22.84-.38.35.19,1-.15,1.51-.24l.44-.12c.22.33,1.51.14,1.47-.38.17-.06.33-.14.22-.37-.39-.26-1.23.27-1.8.32-.38-.27-1.05,0-1.69.13s-.81,0-1.36.2L385,113c-.4-.46-1.47.25-2,.06-.59.38-.51-.4-1-.21-.22-.14-.72-.64-.11-.44l.29-.08,0,.15c.35-.09.5.14.92-.08a3.8,3.8,0,0,0,1.51-.24l.59-.15a3.67,3.67,0,0,0,2.94-.77c.43-.08.81-.19.62-.63l-1.32.35-2.2.58-.59.16c-.24-.18-1.19-.22-1.36.2a1.71,1.71,0,0,1-1.25,0c.14-.42,1.25-.26,1.21-.79.33-.43,2-.74,1.75-1.09a.63.63,0,0,0-1,.27c-.32.39-1.26.42-1.87.65-.21-.49-1,0-1.55.09.21-.5,1.26-.51,1.46-1l.15,0c.25-.37,1.07-.42,1.47-.38,1,0,3.23,0,3.75-.67a4.32,4.32,0,0,0-1.69.13l-.15,0c.57-.57,2.48-.62,2.9-.92.29.28,1-.21,1.51-.24l.29-.08c.4.1.8.19,1.18.32.4,1-.68,1.09-.6,1.88,1.44-.07,1.48-1,2.12-1.5.8.62,1.65,1.14,2.49,1.7.4.57.94.06,1.55-.09,0-.35-.18-.54-.45-.51s-.39-.19-.74-.43c0-.46.35.06.59-.15.86-.23,2,.56,2.76.21-14.2,17.36-3.45,31.34,3.13,45.87,1.53-10.44.46-22.39-.73-33.17,3.65,11,3.88,22.5,4.4,34,11.62-17,7.38-33.68-5.55-48.06a2.82,2.82,0,0,0,1.46-.71c-.44-.29-.16-.49-.52-.8l-.15,0c-.06-.24.38-.19.36-.41.57-.33.66.16,1.11,0,.48.61,1.16-.26,1.06-.75-.64.17-1-.18-1.58-.06-.23,0-.5.15-.52-.18l.59-.15c.75.23,1.66-.52,2.31-.76-.16-.24.27-.72-.19-.74-.1.35-.68,0-.8.53l-.44.12-1.32.35c-.42.21-1.31.14-1.43.53l-1.76.46c-.66.07-1.61.63-2.09.39.43-.16.41-.59,1.1-.6.39.26,1.3-.23,1.43-.53l.88-.23,2.64-.69c.56,0,1.22-.52.76-.67a8.62,8.62,0,0,0-4.85,1.27l-.44.12-.08-.29c-.06-.11-.17-.14-.33-.07.16-.4,1.11-.35,1.58-.57.67-.15,1.36-.28,1.17-.93a.72.72,0,0,1-.48,0c-.38.15.24-.67-.41-.37l-1.47.39c-.48.09-.55.42-1.14.46-.71.21-.76.48-.7-.29a4.12,4.12,0,0,1,.25-.85c-.27-.36-1.26-.1-1.32.35-.76.72-.21,2.2-1.7,2.49-.59.09-.83.63-1.21.16-.07-.24-.13-.49-.19-.73l-1.17.31c-.47.37.62,1.37-.16,1.77-.48,0-.36.37-.84.38,0,.4-1.19.13-.91.71l-.14,0a47.72,47.72,0,0,1-4.81,1.42c-.85-.15.63-.29.91-.71-.68-.19-1.82.42-2.68.55.09-.58-.52,0-.56-.33.6-.19,1.51-.19,1.35-.83-.53,0-1.51.74-1.69.13-.11-.31.51-.2.7-.34l1.32-.35,1.76-.46c.5-.12,1-.22,1.1-.6-.28-1-3.77,1-4.41.53l.73-.19a9.16,9.16,0,0,1,1.73-.61c2-.7,4.73-.94,6.37-1.83a.4.4,0,0,0,.28-.17l.17-.1c-.13-.42-.68-.11-1.11,0,.12-.3.65-.36.58-.78l.74-.19a5.76,5.76,0,0,0,1.69-.75c-.24-.76-2.22,0-2.39.47l-.74.19c-.9.13-1.41.76-2.2.58-.23,0-.53.19-.62,0,.64-.41,1.4-.75,2-1.17,0,.09.07.17.18.11,1.71-.08,3.88-1,5.77-1.36.43-.08.74-.23.8-.53.09,0,.17-.07.11-.19-1.2-.49-3.58,1-5,.83l.44-.12a12.6,12.6,0,0,1,2.9-.92c.64-.09,1.84-.49,1.35-.83-.08-.42-.87.36-1-.06.72-.28,1.1-.77,1.75-1.09-.24,0-.43-.12-.67-.14-.51.32-1.53.35-1.65.9-.68.11-1-.49-1.88,0a.73.73,0,0,1,0,.48c-.51.2-.51.7-.84,1-.48,0-.45.4-1,.42-.36.19-.54.08-.55-.33l-.08-.29.15,0a1,1,0,0,0,0-.77c-.51-.16-1.25-.05-1.43.53a1.28,1.28,0,0,0,.08.92c.23.42-.14.5.09.92-.27.3-1.1.27-1.06.75l-.29.08c-.57,0-.89.71-1.14.46-.22-.42,0-.57-.08-.92l0-.15c.72-1.15-1-.36-1.23-1.09.37-.24,1-.32,1.24-.64l.15,0c.19-.14.81,0,.7-.34.15-1.11,1.64-1.45,2.77-2,.44.25,1.33-.29,1.95-.35a12.94,12.94,0,0,1,2.68-.55l.59-.15A4.17,4.17,0,0,0,398,95.5c.17-.08,0-.19-.08-.29-.11-.44,1.14-.08.77-.67-.29-.28-1,.21-1.51.24s-.45.4-1,.42c-.22,0-.53.19-.62,0l.15,0c.27-.3,1.1-.27,1.06-.75.28-.17,1.08,0,.8-.53-1.46.14-2.59,1.55-4,2.15-.42-.35-1.57.56-2,.21l.29-.08c.28-.38,1.39-.27,1.35-.83l.29-.08c.28-.38,1.39-.27,1.35-.83l.29-.08c0-.4,1.19-.13.91-.71l.29-.08c.42-.17.87-.32.91-.71a14.69,14.69,0,0,0,2.41-2.2c.39-.06.62-.22.47-.59-.11-.06-.79-.16-.73.19-.47.51-.58,1.24-1.49,1.49a.72.72,0,0,0-1.24.64.79.79,0,0,1-.73.82c-.19.26-.95.19-.76.67l-.44.12c0-.22.18-.31.18-.52.23-.7,1-1.09,1.64-1.53-.2-.6-1.26.18-1.28.49-.92.71-1.19,1.79-2.18,2.46-.22.37-1.19.3-1.21.79-.39-.11-.45.52-.59.15a9,9,0,0,1,.76-1.3c.35-.25.77-.46.69-1a5.27,5.27,0,0,1,2-1.46c.11-.06.29-.08.25-.22-.4-.36-1.41.08-1.58.57-.69.88-1.6.88-3.12,1.29-.12,0-.29.07-.33-.07.17-.07.42-.08.4-.26.19-.1.23-.28.55-.3.27-.3,1.1-.27,1.06-.75.57-.65-.71.24-1.32.35-.31-.14-.07-.76-.67-.76-.82.42-1.09-.11-1.73,0,.09-.6,1-.37,1.76-.46,1.15-.33,1.76.26,3.05-.33l-.16-.59c-.47-.19-1.32.26-1.84.17-.18,0-.41.14-.48,0,1.15-.69,3-1,3.18-2.25-.2-.62-1.15.16-1.14.46a10,10,0,0,0-1.79.94c.34-.79,1-1.42,1.3-2.22l.15,0a2.18,2.18,0,0,0,1.86-1.27c-.27-.5-.46,0-.92.08a6.89,6.89,0,0,1-2.93.77,5.53,5.53,0,0,1-1.73,0c1-.59,1.85-1.41,3.41-1.37l0,.15c.44.13,1.64-.14,1.72-.61l.15,0,.44-.12c.19-.06.16-.24.4-.26-.19-.44,0-.76.32-.56-.12-.24.12-.43-.12-.44-.06-.1-.08-.29-.22-.25-.05-.4.71-.33.76-.67l.88-.23.73-.19-.12-.44c-.55-.43-2.45.24-2.79.73l-1,.27c-.08-.23-.11-.51-.41-.37a.76.76,0,0,1-.56-.32.78.78,0,0,0-.56-.33c-.37.33-.6-.54-.12-.44.31-.15-.2-.78.06-1l.44-.12c.32-.2.94-.56,1.32-.35.86.24,1.29,1.2,2.22,1.3.2-.25.5-.46.39-.89a13,13,0,0,1-1.82-1.56l.73-.19c.63-.2,1.12-.62,1.76-.46.36,0,.61.09,1.07-.12.37-.49-.2-.88-.12-1.07.6-.23.64-.79,1.5-.86a1.14,1.14,0,0,0,.5-1.07c-.16-.05-.93-.45-.73.19l-.15,0c-.27,0-.62.6-.88.23.21-.08,0-.39,0-.63-1.85.62-1.76,3-3.9,3.07,1.12-.84,1.6-2,2.5-3,.36-.13.8-.85.36-1-1.08.2-1.11,1-1.64,1.53-.35.25-.77.46-.69,1a9.47,9.47,0,0,0-1.92,2.86l-.59.15c-.39.31-1.32.31-1.35.83l-.3.08c-.45,0,.16-.29,0-.48,1-1.64,3.17-2.62,3.85-4.46A23,23,0,0,0,390,79.4c-.18,0-.41.13-.48,0A10.57,10.57,0,0,0,391,77.25l.15,0c.42-.82-1.08-.57-.92.08-1.6,2-2.81,4.25-5.42,5.66-.07.14-.74.54-.88.23,1.46-1.3,2.94-2.59,3.56-4.39-.55-.28-1.26.42-1.17.93-1.16,1-1.56,2.49-3.24,3.2-.12.34-1,.22-.91.71-.08.29-.31.48-.8.53-.22-.4-1.18.45-1.4.05,1.71-1.08,3.88-1.88,4.19-3.77-.93.2-.76,1-1.72,1.24-.29.2-.77.29-.76.67l-.29.08c-.34.26-1,.35-1.06.75l-.15,0c-.56.05-1,.8-1.25,0l-.15,0c0-.6.93-.83.61-1.26,2.63-1.32,4.08-4.41,6.33-6.37.31-.4,1.36-.36,1.5-.86a3.57,3.57,0,0,1,1.83-.79c.33.57.8.89,1.16,1.42a.86.86,0,0,0,.84-1,7.45,7.45,0,0,1-.9-1c1.12-2.32,3,.28,4.71-.61-.11-.27.08-.37,0-.62-.51-.4-1.41-.13-1.78-.79.12-.3.88-.23.77-.67.29-.66,1.73-.65,1.45-1.64.34-.14-.27-.36-.41-.36.12-.22.35-.38.1-.81a6.4,6.4,0,0,0-1.93,1.61L393,69.2l-.08-.29c-.05-.19-.29-.07-.37-.22,1.23-1.15,2.72-2.14,3.09-3.79-.12-.44-1.15-.15-.84.38-1.21,1.43-2.59,3.43-4.34,3.81.64-1.66,2.4-2.66,3.49-4.05a5.81,5.81,0,0,1,1.68-1.38l.15,0c0-.38.49-.46.21-1-.3,0-.38-.35-.81-.1,0,.48-.79.53-.84,1,0,.64-1.06.7-1.24,1.27-.15-.71.19-1.13.16-1.77,0-.31,0-.64.25-.85.06-.38.38-.61.17-1.14a1,1,0,0,0-1.05,1.37c0,.19-.13.25,0,.48-.11.06-.29.08-.26.22l-.15,0c0,.87-.3,0-.4.26.37.42.09.67,0,1.1l0,.15c-.56,0,.24-1.08-.52-.8l-.29.08a1,1,0,0,0,0-.77c-.48-.08-.88.1-1,.56a21,21,0,0,1-1.87,3.63c-.23-.38.11-.43,0-.77.34-.18.18-.64.21-1-.27-.78.35-1,0-1.88l-.88.23a8.06,8.06,0,0,1-.51,3.43l-.5-1.91c-.48-.57-1.34.35-1,1,.2,1.15.89,2.59.78,3.56-.06-.1-.17-.14-.33-.07l-.15,0c-.11-.43-1.29-.12-1.17.31-.22.2-.2.55-.06,1a1.43,1.43,0,0,1,1.62.2c.09.2.31.18.41.36a1.23,1.23,0,0,0-.06,1,3.34,3.34,0,0,1-1.12,2.33c-1.77,2.08-3.77,4.11-5.45,6.14a32.77,32.77,0,0,0-2.55,2.24c-.07-2.77,1.9-4.36,3.76-6,.7-.17,1.41-.34,1.13-1.08-.26-.35-1.19.05-1.28.49l-.15,0c-.42.17-.87.32-.91.71a2.3,2.3,0,0,1-1.31,1,13.21,13.21,0,0,1,4.09-5.94c.58,0,.06-.85-.08-.92-.3.2-.77.29-.77.67a16.06,16.06,0,0,0-2,2.42,1.94,1.94,0,0,0-.87,1.48,5.69,5.69,0,0,0-.9,2c-.5-.11,0-.68-.27-1a3.12,3.12,0,0,1,.09-1.44,1.22,1.22,0,0,0,.5-1.08c.11-.39.5-.62.5-1.07a6.82,6.82,0,0,0,1.45-2.26c.27-.13,0-.6.47-.59a.82.82,0,0,0,.69-1l-.08-.29c-.28-.52-1.17.05-1.14.46a11.75,11.75,0,0,1-.76,1.3,3.59,3.59,0,0,0-1.19,2c-.26.13,0,.6-.47.6,0-1.11.58-1.9.63-3,.45-.11.49-.46.77-.67,0-.48-.37-.37-.38-.84.16-.36.11-.85.32-1.18.42-.09.33-.47.25-.85-.27-.11-.75-.35-.73.19a8.93,8.93,0,0,0-.71,2.07c-.22-.42,0-.57-.08-.92l-.12-.44c.44-.2,0-.91.13-1.29-.23-.38.11-.43,0-.77-.36-.21-.55.31-1,.42l.12.44-.15,0c-.26.18.25.81-.06,1-1.16.2-1.74.72-2.9.92l-1.91.5.08.29c-.28,0-.82.4-.92.08a26.83,26.83,0,0,0,3-2.83l-.27-1-.88.23c-.28,1.41-1.48,2.28-2.8,3.09-.64.43-1.05.36-1.54.72-.65.4-.71-.21-1.25,0,0-.3-.28-.24-.41-.36,2-1.21,4.26-2.89,3.66-5.2-1.32,1.51-2,4-4.48,4.47.49-.71.43-1.74.74-2.55.28-.13.23-1.49-.35-1.32-1.6.18-.75,1.8-1.74,2.34-.27,0-.32.32-.44.12a21.2,21.2,0,0,1,.59-3.14,2.12,2.12,0,0,0,.54-.92,8.16,8.16,0,0,1,1.59-2.3,3.32,3.32,0,0,1,1.91-.5c.26.26.66.28.82.73s.39,1,.79,1.21l.12.44.88-.23-.27-1c-.09-.35-.37-.36-.38-.84.19,0,.25.13.48,0,1.19.3,2.4.58,3.55,1a.57.57,0,0,0,.43-.74,6.87,6.87,0,0,0-2.07-.71c.32-.54,1.11-.07,1.76-.46l.88-.23-.23-.88-.44.12c-.63-.33-1.8.24-2.61.21-.12,0-.29.07-.33-.07.83-.55,1.28-1.33,2.56-1.61.13-1.2-1.09-1.59-1.9-1.86.33-.43,1.27-.5,1.65-.9-.21-.22-.6-.1-.63-.62a3.83,3.83,0,0,1-1.51.24c0-.15-.17-.14-.22-.25.52-.07.33-.56.58-.78-.19-.33-.81-1-1.08-.5a10.19,10.19,0,0,1-2,3.81c-.23,0-.11-.88-.16-1.21.28-1.12.43-2.32,1.59-2.93l-.23-.88c-1.39.56-1.75,1.71-2.07,2.9-.15,0-.21-.07-.33-.07-.06-.17-.13-.34-.37-.22-.05-.19-.29-.07-.37-.22a1.45,1.45,0,0,0,.39-.89c.15,0,.14-.16.25-.22-.28-.52-1.91.16-2.24.43-.12.18.1.55-.32.56-.2-.81-1.13-.34-1.59-.68.35-.16-.33-.25-.52-.18.14.33.32.59.63.62.73.74,2.06,2,1.14,3.15a8.58,8.58,0,0,0-1.82-.94c-.43,0-.22.37-.51.45.49.79,1.33,1,2,1.52.42.48,0,1,.32,1.8l.12.44c-.23.37,0,1-.09,1.44s-.75.64-.8,1.15a4.85,4.85,0,0,0-1.23,1.89c-.29.12-.18.47-.47.6,0-.19.13-.25,0-.48l0-.15.15,0a2.37,2.37,0,0,0,0-1.25c0-.15-.17-.14-.23-.26-.44.33-.35,1-.39,1.51-.42.09-.14-1-.56-1,0-.09-.07-.17-.18-.11s-.13-.14-.08-.29l-.16-.59-.88.23-.15,0c0,.28-.47.22-.51.45.12.36.22.71-.1.81-.06-.11-.08-.29-.22-.26-.23-1.67.85-2.57,1.72-3.59.51.09.17-1.21-.23-.88l-.44.12c-.23,0-.21-.34-.52-.18-.88.48-.59,1.64-1.3,2.23,0-2.3,1.33-3.78,2.88-5.15l-.19-.74c-1.92.75-2.27,2.41-3.27,3.68-.52.05-.45-1.2.08-1.43l.16,0a13.86,13.86,0,0,0,2.74-5.11l0-.15c-.42.23-.39-.33-.81-.1-.12.08-.54.57-.18.52.12.28-.12.34-.18.52-.49.21-.5.7-.65,1.11,0,.56-.44.82-.61,1.26-.42,0-.52.85-.8.53-.79-2.58,1.62-3.28,2.48-4.89-.28,0-.22-.47-.45-.51a15.44,15.44,0,0,0-1.64,1.53c-.54-1.29,1-1.93.7-2.7,0-.64-.42-.69-.49-1.28s-.15-1.45-.68-1.39c.25.33-.5.68,0,.77a1,1,0,0,1-.36,1,.64.64,0,0,0-1.1,0c.66.69,1.63,2.8.59,3.45-.33-.84-1.1-.94-1.53-1.64s-1-.62-1.44-.1c.05.48.34.55.63.62a19.9,19.9,0,0,0,2,1.82,3.85,3.85,0,0,1,.24,1.51l0,.15c-.44.39.13,1.31-.73.82s-1.32-2.14-2.71-2c-.19.35.15,1,.24,1.51-.31.23.09.88-.17,1.14l-.59.16a1,1,0,0,0,0,.77c-.68.23.26.64.16,1.21,0,.27.34.7-.14.66-.18,0-.41.14-.48,0,.22-.2.2-.54.06-1-1,.07-.61,1-.68,1.59-.51.24.08,1.13.13,1.69.2.37.3.9.6,1.1a7.15,7.15,0,0,1-.48,3c-.35,0-.05.47-.33.56-.27-1.26-.83-2.6-1-3.34a2.83,2.83,0,0,1-.16-1.21l-.08-.29.15,0a3.4,3.4,0,0,0,.06-1c-.28-.54.58-.41.21-1-.82-.14-1,.82-1,1.52l-.14,0a3.4,3.4,0,0,0,.09,1.55c-.84.17-.62,1-1.24,1.26l-.15,0-.29.08c-.36-.38.35-1.2.12-1.91-.2-.53.49-.54.17-1.14-1.5.78-1,2.71-1.24,4.25a.71.71,0,0,1-.48,0,12.19,12.19,0,0,1-.51-2.53c-.21.08-.55.09-.55.3l-.15,0c0,.56.19,2.31.8,2.46a8.46,8.46,0,0,1-.54,1.55c-.5-.56-.21-1.52-.76-1.69l-.73.19.08.29-.15,0a2.06,2.06,0,0,1,0,1.25,1.24,1.24,0,0,1-.67-.77,1.33,1.33,0,0,0-1.09.6c.11.45.33.71.67.77.37.22.82.3,1.11.65a2.86,2.86,0,0,1,.46,1.14c-.25.35.5,1.29-.09,1.44-.29-.35-.74-.43-1.11-.65-.34-.57.07-.71,0-1.1-.88-.31-.17.73-.87.86-.33-.53-.69-.53-1.29-.13-.15-.31-.44-.39-.63-.62l-.19-.74,0-.15c-.24-.4-.45.21-.73.19a5.35,5.35,0,0,1,.24,1.51c.13.57-.32.81-.09,1.44-.73-.67-.62-3.89-1.55-3.52-.57,0-.05.63-.06,1,.2.73.39,1.47.58,2.2l.16.59c-.31.48.1,1.39-.31,1.81.22.42-.14.5.08.92l-.15,0a5.72,5.72,0,0,0,.05,1.4c0,.18,0,.36-.22.37-.33-.35-.56-.88-1.26-.61l0,.15a2.06,2.06,0,0,1-.5-1.91c.2-.8,0-1.81.26-2.58.53-.61-.08-1.87-.29-2.91-.06-.4-.33-.43-.7-.28-.29.49.56,1.65.25,2.13-.16-.65-.35-1.24-1-1,.34-.51-.78-1-.7-.29.21.58.28,1.07-.13,1.29-.08-.23-.12-.51-.41-.36s.13.74.13,1.07l0,.15c-.19,0-.25-.14-.48,0-.05-.48-.34-.55-.63-.62l0-.15L333,68.62l-.08-.3c-.33-.69.51-1.35-.17-1.84-.25.44-.61.81-.39,1.51,0,.33.44.92.13,1.07-.49,0-.5-.85-.68-1.39l0-.15c-1,0-.61,1.43-.05,1.58,0,.48.37.37.38.84L332,70c-.63-.2-.7-1.36-1.45-1.35-.39,1.52,1.77,2,2.72,2.58a1,1,0,0,0-.7.34c.15.61.29,1.21.68,1.39.11.66.62.65.79,1.21-.37.35-1.05-.61-1.59-.68-.3-.18-.49-.58-.82-.73,0,.25-.43.25-.14.67l-.15,0c-.36-.57.14-1.28-.5-1.28-.93-.32-.77.92-.68,1.59l-.15,0c-.12.34.08.88,0,1.25a3.58,3.58,0,0,1-.53,2.18c-.27.09,0,.51-.33.56,0-.19.14-.25,0-.48s-.08-.29-.12-.44l.15,0c.19-.35-.15-1-.24-1.51l-.15-.59a1.62,1.62,0,0,0-.39-1.47c-.22-.34,0-1.34-.6-1.1-.07-.16-.27-.1-.48,0-.77.78.74,2.5.53,3.78l.19.73a17.3,17.3,0,0,1-.2,5.23c-.27,0-.4-.17-.45-.51-.31-.18-.34-.83-.49-1.28l-.77-2.94c.17-.07.1-.27,0-.48l.15,0c.17-.4-.22-1.12-.09-1.54l0-.15.15,0c.12-.34-.08-.88,0-1.25l-.08-.29c.25-.56.81-.94.83-1.63.4-1.71,1.13-3.23.78-5.38.42-.09.1-1.25-.2-1.36,0-.53-.52-.11-.81-.1.07.46-.32.64,0,1.25.09.35-.14.5.08.92a13,13,0,0,1-.09,2.06c-.18.08-.24.31-.33-.07l-.08-.3a4.76,4.76,0,0,0-.52-3.16c.06-1.2-1.5-1.58-1.37-.43l0,.15c.12.93.95,1.78.69,2.64-.3-.12-.23-.88-.67-.77a25.65,25.65,0,0,0-2.05-2.44l0-.15a.65.65,0,1,0-.13,1.29c.9,1.37,2.08,2.25,2.77,4-.14.75.43,1.3.25,2.13l0,.15-.15,0c-.12.34.08.88,0,1.25l0,.15c-.58-.09,0,.52-.32.55l-.62-2.35c-.34.09-.5-.14-.92.08,0,.38.46,1,.16,1.21a.41.41,0,0,1-.41-.36c-.17-.43-.32-.87-.71-.91a.62.62,0,0,0-.93-.54c-.18.31.11.89.2,1.36,0,.31-.64.21-.47.6-.57.54.55,2.07.25,2.76-.06-.11-.08-.29-.22-.25a1,1,0,0,1-.34-.7c0-.5-.28-.66-.42-1s-.08-1.57-.68-1.39c-.22.08-.56.09-.55.3-.09,0-.17.07-.11.19a1.63,1.63,0,0,0,.39,1.47c.12.5.22,1,.6,1.1,1.65,2.78,4.29,3.87,6.19,6.22a5.43,5.43,0,0,0,1,3.19l.27,1a9.19,9.19,0,0,0,.61,1.72c-.68,0-.91-.86-1.52-1a1.22,1.22,0,0,0-1-.69c-1.52-1.22-3.26-2.08-4.35-4-.17-.35-.23-.89-.67-.76l-.11-.44c-.25-.28-.28-.94-.71-.91-.49-.36-.67-1.26-1-1.94s-.37-1.49-.9-1.65c-.33-.44-.46-1.19-1.08-1.13-.5.52.25,1,.32,1.8.23.67.43,1.39.9,1.65l.08.29c.38.27.27,1.38.83,1.35.32.51.81.75.9,1.65l-.29.08c-1-.74-2.1-1.22-2.72-2.58-.2-.3-.29-.77-.67-.77-.05-.55-.55-.33-1-.21l.23.88c.17.35.23.89.67.76,1.74,2.85,5.08,2.94,7.06,5.37-2.18-.67-4.53-1-6-3-.71-.45-1.13.93-.36,1,.27.32.71.34.86.87a3,3,0,0,0,1.11.65c2.92,1,6,1.78,8.58,3.4.25.35.46.77,1,.69s.71.92.9,1.65.48.75.53,1.43c.14.53.22,1.18.64,1.24l.08.29c.37.71.46,1.9,1.06,2.23l.08.29c.38.41.32,1.58.9,1.65l.12.44c.38.27.27,1.38.83,1.35l.16.59a9.48,9.48,0,0,1-2.34-1.74c-.63-.69-.58-1.63-.69-2.64-.2-.75,0-1.22-.57-1.58-.91.25-.16,1.48-.38,2.14-.07-.23-.12-.51-.41-.36l0-.15c-.31-.32-.24-1.29-.79-1.2a1.07,1.07,0,0,0-.88.23,13.1,13.1,0,0,0,2.51,3.58c.11.26.82,1.2.2,1.36-1-.39-2.19-.51-3-1.25,0-.18.19-.22.4-.26.48-.33-.25-1.5-.61-1.72l-.12-.44c-.24-.93-.49-1.86-.73-2.79l-.23-.88c.09-.51-1.21-.17-.88.23l.12.44a5.5,5.5,0,0,0,1,3.82c0,.23.19.53,0,.63-1.74-.64-2-2.5-1.93-4.36a3.09,3.09,0,0,0-.73-2.79c-.31-.45-.55-1-.86-1.5-.28-.7-.8.27-.8.52.34.27.27,1.25.79,1.21l.15.59.39,1.47c0,.23.37.71,0,.77a.42.42,0,0,0-.41-.36c-.22-.41-.82-.16-1.07-.5a.82.82,0,0,0-1.11-.65c-.06,1.6,1.44,2.15,2.21,3,.34.34.34,1.26.83,1.35.07.26.62.75.27,1a7.9,7.9,0,0,1-2.85-1.29c0-.48-.48-.17-.49-.66-.26.14-.94,0-.66.49.46,1.69,2.94,1.77,4.3,2.64,2.41.07,3.71,2,6.07,2.17,0,.31,1.18.22.45.51-1,.59-2.2.39-3,1-.57.33-.65-.16-1.11,0-.12-.58-1,.09-1.29-.13l-.44.12a1.31,1.31,0,0,0,.08.92l.3-.08c.14.47.75.14,1.14.17.48-.25.62.07,1.07-.12a1.54,1.54,0,0,0,1.25,0l.11.44,0,.14.08.3-1.76.46.08.29-.15,0c-.17.35.06.18.16.59-.49,0-.85.73-.58.78a.45.45,0,0,0,.37.22c0,.24-.3.19-.44.11-.41.13-.46-.35-.85-.25,0-.57-1.06-.08-.88.23.77,1.16,2.18,1.23,3.52,1.43.47.68,1.48.45,2.11.86l-.73.19-.29.08c-.18-.39-.78-.08-1.14-.17a6.32,6.32,0,0,1-2.55-.74,3.05,3.05,0,0,0-1.11-.65c-.38-.05-.51-.54-.82-.73-.45-.75-.86.42-1.1.6a.42.42,0,0,0-.52-.18c-1.54-.13-2.11-1.93-3.78-1.83,1.06,2.45,3.47,2.58,5.56,3.25a7.71,7.71,0,0,0,1.55.54c.67,0,.93.67,1.7.49-.26.42-1.35.48-1.76.46l-.15,0c-.28-.92-1.3.84-.59.16,0,.48.29.5.38.84.42-.22.5.14.92-.08l0,.15a1.29,1.29,0,0,0,.92-.08l.88-.23c-.64.55-1.26.5-2.17.73l0,.15c-.65.33-.7-.36-1.4.05.08.29.16.59.23.88l.44-.12c.22.47.89.18,1.44.09,2.63-.65,3.59-3.3,6.52-2.65.45.76.09.55-.25.85-.36.12-.52-.1-.7-.29-.4-.7-1.27.79-.43.74.54.56,1.49.43,2.43.3.06.19.24.15.26.4.62.93,1.64,1.16,2.16,2.26-.27.09-.46.22-.51.45l0,.15c-.36,0-.41-.44-.85-.25-.66.58.78,1,1.12,1.28.66,1.07-.41,0-.92.08a2.38,2.38,0,0,1-1.12-1.28.84.84,0,0,0-.55.3c-.7-.37-.94-1.51-1.82-1.56l.12.44c.1.53.33.85.71.91.89.81,2,1.18,2.89,2.06-.38,0-.88.24-1-.21s-.64-.2-.77,0,.52.45.15.59l-.15,0-.25.06-.19.05c.13.5.52.57.93.59l.32,0c.11.59,1-.23,1.29.13-.4.14-.42.51-.52.83a.88.88,0,0,1-.13.28.35.35,0,0,0-.25.21l.28.26c-.1.25-.31.43-.17.83a1.67,1.67,0,0,1,.31-.69l.52.51a6.41,6.41,0,0,1-.53.72c0,.14.21.07.33.07.14-.2.26-.4.39-.6l.32-.52c.32-.5.64-1,.95-1.52.4,0,.56.32,1,.21a8.59,8.59,0,0,1-1.55,1.74l-.43.39c-.21.19-.41.38-.61.58a3.13,3.13,0,0,0,.46.56c-.26,0-.52.05-.76.1l-.12-.13a2.59,2.59,0,0,1-.48.25c-.33.08-.65.17-1,.26a5.76,5.76,0,0,0-1.43.38A7.92,7.92,0,0,0,330,124.5c-1.19.12-2.13,1.27-3.18,2l-.24.39c-.32.21-.56.73-.9.87l-.13-.08-.48.77c-2.94,1.57-6.23,26.83-6.23,26.83v0c-1.37,4.13-2.45,8.29-3.66,12.39-.18.61-.34,1.21-.51,1.82l-.33,1.16c-.14.49-.29,1.07-.46,1.7v18.48h109C423.62,187.4,424,184.1,424.42,181.2Zm-24.07-73.28c-.29.33-.55.65-.82,1-.9.05-1.5-.42-2.36-.46-.07-.33.61-.22.84-.38a3.28,3.28,0,0,0,1.36-.2l.44-.12A.62.62,0,0,0,400.35,107.92Zm-1.91-1.23,0,.15c.33.15.86-.06,1.14.17l-.88.23c-.52.26-.75,0-1.22.16l-.44.11c-.52-.38-1.6.18-2.32.14l-.15,0,0-.15c-.45,0-1,.07-1.4.05-.2.07-.41.13-.48,0s-.86.13-.37-.22l.73-.19,0,.15c.72-.23,1.84,0,2.35-.62C396.84,106,397.16,107.18,398.44,106.7Zm-7.66.13c.59-.51,1.29-.25,1.87-.65,1.17-.08,2.65-1.1,3.27-.7a8.08,8.08,0,0,1-3.41,1.37c-.5-.29-1.48.26-2,.06Zm1.54-22.22c.55-.32.82-.16,1.62-.43.23,0,.08.24-.07.33a7,7,0,0,1-2.35.62A1.23,1.23,0,0,1,392.33,84.6Zm-1.19-.94.73-.19c0,.15.17.14.23.25a12.1,12.1,0,0,1-2,1.31c-.06-.12,0-.15.11-.19l.15,0-.12-.44C390.41,84.06,391.32,84.18,391.14,83.66Zm-.82-.73.3-.08c.26-.09.38.05.41.36l-.88.23c-.09,0-.18,0-.18-.11A.42.42,0,0,0,390.32,82.93Zm-.86-16.41a3.08,3.08,0,0,0,.65-1.11c-.16-.3.23-.28.18-.52.21,0,.22.33.3.55-.45.11-.23.61-.21,1a11.36,11.36,0,0,1-2.48,4.89.71.71,0,0,1-.4.26A11,11,0,0,1,389.46,66.52Zm1.77,3.15c.07.16.27.09.48,0A23.43,23.43,0,0,1,388.66,73c-.22.29-1,.26-1.1.6-.14,0-.16-.15-.23-.25C388.57,72.09,388.87,70.28,391.23,69.67ZM371.65,57.23l1.17-.31c.44-.25.51.11.81.1,0,.14-.15.16-.25.22-.35.17-.89.23-.77.67l-.15,0c-.27.3-1.1.27-1.06.75l-.15,0c-.27.34-1.25.27-1.21.79-.67.29-1.05.1-1.66.28A4.32,4.32,0,0,1,371.65,57.23Zm-3.19-2c.09,0,.18,0,.19.11.12.61-.35.87-.05,1.58-.26.22-.17.65,0,1.11-.63.59-1.05,1.29-1.71,1.86-.2,0-.18-1-.2-1.36A34.94,34.94,0,0,1,368.45,55.24ZM322.9,76c.2-.63-.4-1.72-.51-2.54,0-.09,0-.18.11-.18.74,1,2,1.15,2.21,3,.22,1.11.81,2.73.89,3.38A10.53,10.53,0,0,1,322.9,76Zm25.82,51.13c.16-.05.3-.09.33.08a1.82,1.82,0,0,1,.17.41Zm2.94-3.74c-.14-.12-.38-.06-.41-.36.15-.08,0-.32.22-.37.38-.15.08.86.59.47,0,.14.21.07.33.07.56-.26-.17-.69.06-1,.18,0,.25-.1.26-.22.38-.23.43.11.77,0,0,.37.35.25.34.7.47.65-.38.52-.21,1l-.29.08C352.45,124.15,352.23,123.46,351.66,123.37Zm2.68-47.16c.42,0,1.12-.49,1.36-.2-.41.67-.18,1.72-.82,2.25-.37.21-.08-.72-.45-.51-.18,0-.19-.24-.26-.4l.15,0C354.43,77,354.12,76.45,354.34,76.21Zm1.13-1.08-.88.23-.08-.29c0-.09,0-.18.11-.19.29-.29.63-1.72.94-1.19a.85.85,0,0,1,0,.62c0,.22-.18.31-.18.52Zm4,6.47a.49.49,0,0,1,.53.8c-.2.09-.08.37-.18.52-.64.28-.56.33-.56-.32C359.1,82.1,359.74,82.1,359.52,81.6Zm1.92-2.86c.24-.34,1-.77,1.32-.35a1.83,1.83,0,0,1-1.2.79c-.18.08-.24.31-.33-.07C361.4,79,361.56,79,361.44,78.74ZM364,75.4l.11.44c-.33.14-.14.58-.62.63,0-.24.12-.43.14-.66C363.46,75.22,363.62,75.46,364,75.4Zm.37,3.2,0,.15c0,.18.14.41,0,.48-.38.78-1.63.55-2.13.25.3-.24.34-.63.91-.71l.15,0C363.46,78.46,364.27,78.17,364.39,78.6Zm5.33,6c-.21.13,0,.5-.51.45-.12-.36.11-.51.1-.81C369.9,84,369.66,84.17,369.72,84.57Zm2,7.64c-.27-.07-1.62.29-1.69.76-.4.18-.32.64-.91.71,0-.64.52-.94.72-1.44.73,0,.33-.72,1.06-.75l0,.15c.23,0,.71-.37.77,0C371.41,91.87,372.1,92,371.72,92.21Zm3-1.58c-.33-.21-.34.22-.88.23l.27,1-1,.27c.31-.58-.43-.68-.49-1.28.44-.55,1.24-1.58,2-1.17A1.29,1.29,0,0,0,374.76,90.62ZM376.24,107c0-.43,1.12-.82,1.11,0C376.78,107.38,376.69,106.89,376.24,107Zm1.13,1.9c0,.44-.54.51-.54.93-.25-.21-.6-.25-.67-.77C376.43,109.26,376.94,109,377.37,108.93Zm-1.08-1.13a.57.57,0,0,1-.73.19l-1,.27c-.15-.34.69-.09.32-.56.17-.07.42-.08.4-.26C375.83,107.17,375.92,107.73,376.29,107.8Zm-9.8,8.69-.29.08a3.52,3.52,0,0,1,2.2-.58c-.62.26-1,1.29-1.94,1C367.24,117,367.35,116,366.49,116.5Zm-1-15.75c.18-.27.22-.62.76-.67.44-.54,1.25-.25,1.91-.5l.59-.15c.19.44-.65.29-.62.63a1.87,1.87,0,0,0-1.24.64c-.44-.76-.74.4-1.14.46C365.58,101.17,365.53,101,365.49,100.75Zm-.38,2.14-.08-.29c-.05-.36.43.06.62,0C365.86,103.17,365.38,102.75,365.11,102.89Zm.75-7.89c.48-.05.21-.54.8-.53.09.47.38,1.05.2,1.36-.2.09-.18.31-.36.41a1740.21,1740.21,0,0,1-.82-.73C365.74,95.34,366,95.28,365.87,95Zm4.82,8.78c.06.19.24.16.26.4s-.07.21-.07.33c-.34-.08-1-.12-.78-.58C370,103.56,370.58,103.76,370.68,103.78Zm1.68-4.36-.44.12c0-.29-.25-.28-.3-.55a1,1,0,0,0,.77,0C372.43,99.13,372.26,99.19,372.36,99.42Zm-.44,9.69c0,.66-1.38,1.39-1.94,1-.29-.42.14-.42.14-.66.21-.37.81-.31,1.17-.31S371.84,108.89,371.92,109.1Zm-1.31-1.39h0a4.25,4.25,0,0,1-.94-.21A4.18,4.18,0,0,0,370.62,107.71ZM367.86,111c-.33.13-.53.45-.88.23-.27,0-.7.34-.67-.14a2.28,2.28,0,0,0,1-.27c.46.47.08-.85.7-.34a1.25,1.25,0,0,1,1.14.17c0,.67-.58,1-1.24,1.27l-.15,0c-.5,0,.21-.26.4-.26C368.15,111.3,368.34,110.94,367.86,111Zm-1.94-5c.65.18.63-.35,1.28-.49,0,.18.14.41,0,.48C366.86,106.15,366,106.69,365.92,106Zm3.07,3.9c0-.17.27-.18.22-.37s-.16-.14-.22-.26l.44-.12c.34,0,.32.75.23.88C369.28,110.23,369.28,109.8,369,109.88Zm-.15-3.57-.12-.44c-.09-.41-.32-.23-.15-.59.23-.2.31-.48.62-.63s.69.09.78.58A6.17,6.17,0,0,1,368.83,106.31Zm-1.49,8.08-.15,0a3.24,3.24,0,0,1-1.28.5l0-.15C366.05,114.54,367.07,114.15,367.35,114.39Zm.32-.56c-.17-.62-1.26.32-1.58-.06.19-.14.8,0,.69-.34.34,0,.88.13.84-.38.27,0,.26-.26.55-.3a1.08,1.08,0,0,0-.52-.18c0-.18.23-.19.4-.26.34-.3,1.12-.34,1.21-.79l.15,0a4.18,4.18,0,0,0,2.26-1.54l.15,0c.58,0,.66-.36,1.14-.45-.6.6-.7,1.5-1.52,2-.11.12-.21.25-.29.08C369.72,111.63,369,113.23,367.67,113.83Zm6.19-6.33,0-.15.29-.08c0,.21-.13.34,0,.63-.42.09-.16.57-.8.53-.05-.19-.29-.07-.37-.22C373,107.81,374.13,108.08,373.86,107.5Zm-1.71,7.83a5.46,5.46,0,0,0,1.51-.24l.73-.19c.35.4.86.52,1.19.94-.73,0-1.59.31-2.28.28-.82.21-1.23-.3-2-.27C371.62,115.68,371.66,115.38,372.14,115.33Zm2.22-2.31c-.48,0-.37.37-.84.38-.24,0-.54.22-.62,0a3.7,3.7,0,0,1,2.71-1C375.82,113,374.73,112.78,374.36,113Zm.42-2c.37-.12.44-.4.62-.63.18,0,.19.24.26.4C375.25,110.73,375.08,111.42,374.78,111Zm-.61-8.31c.17-.29.77-.25,1.07-.12-.47.1-.89.23-1,.57l-.15,0-.44.12A2.5,2.5,0,0,1,374.17,102.71Zm-.52-3.16c-.66.2-1.32.4-.85-.25.21-.35.37-.11.74-.19l.15,0C373.79,99.29,373.61,99.36,373.65,99.55Zm1.8,3.29c.13,0,.13-.09.11-.19.19-.34.44,0,.77,0a1.73,1.73,0,0,1-.83,1.63c-.1-.69-.89-.19-1-.83C374.92,103.27,375.55,103.27,375.46,102.84Zm-.53-1.43c.28-.55,1-.95,1.36-.2l.12.44C375.92,102.27,375.52,101.28,374.92,101.41Zm-1.67-4.58c-.09.13-.34.33-.44.12a1.8,1.8,0,0,0,.94-1.19c.41,0,.8-.67,1.17-.31C374.16,95.78,374.13,96.55,373.25,96.83Zm-.49,8.29c.49,0,1.74.11,1.58-.57l.58-.16a.54.54,0,0,1,.23.88c.25.44-.3.4-.29.7-.42,0-1.12.49-1.36.2a.42.42,0,0,0,.36-.41c-.15-.67-.82-.44-1.47-.24C372.31,105.27,372.45,105.15,372.76,105.12Zm-2.08-7.3c-.06-.33-.54.07-.77,0,.08-.49,1.2-.38,1.17-.93.63,0,.69-.42,1.28-.49l0,.15A4,4,0,0,1,370.69,97.81Zm-1.33-3.26c.13,0,.12-.09.11-.19.65-.58,1.76-.88,2.08-1.64.11-.06.29-.08.25-.22a1.23,1.23,0,0,1,.53.8C371.34,93.64,370.33,94.62,369.36,94.55Zm0-8.47c.12,0,.29-.07.33.07l-.15,0c.07.52-.38.67-.48,0Zm.12,13.62c0-.23.32-.23.55-.3.36.63-.08.78-.17,1.14-.45,0-.33.31-.69.34-.18,0-.41.13-.48,0C369,100.49,369.37,100.2,369.46,99.71Zm-.74-10c-.13,0-.19-.11-.33-.07l-.15,0c-.29-.57-.81-1.15-.65-1.87l-.29.08-.08-.29c.52,0,.88.2,1.44.09C369.24,88.33,368.85,89.1,368.71,89.7Zm-1.19,2c.23.38-.11.43,0,.77l0,.15c-.63,0-.17.56-.81.52-.1-.18-.32-.16-.41-.36l.15,0a1,1,0,0,0,0-.77ZM366.7,91c-.11-.32,0-.5.33-.56l.16.59C367,91.11,366.77,91.18,366.7,91Zm-.29-2.28c-.68.38-.74-.29-1.29-.13,0-.32.66-.28.62-.63.46-.08.45-.62.84-.38S366.31,88.26,366.42,88.73Zm.07,8.62c-.16.57-.16,1.23-.87,1.48l-.15,0a2.28,2.28,0,0,0-1.58-.06l-.29.08c-.27-.4-1-.06-1.44-.09,0-.22.18-.31.18-.52.23-.2,0-.65.62-.63.68-.42,1.65.08,1.72-.61-.16-.23-.51-.12-.7-.29C364.54,96.61,366.06,96.55,366.48,97.35Zm-3.87,12.16c-.18-.06-.83-.4-.92.08,0,.26-1,.53-1.17.31a13.8,13.8,0,0,1,1.86-1.28,1.25,1.25,0,0,1,1.44.09l-.88.23Q363.22,109.49,362.61,109.51Zm-.37,5.75-.74.19-.59.15c-.26-.67.73-.62,1.1-.6C362.07,115.11,362.2,115.11,362.24,115.26Zm-5.49-3a.71.71,0,0,1-.4.26c0-.35-.47-.05-.56-.32l.15,0c.07-.14.73-.54.88-.23C356.72,112,356.69,112.14,356.75,112.3ZM354.2,99c.38.13.85.11,1,.69-.62.22-.23,1-.95,1.19A9.92,9.92,0,0,1,354.2,99Zm.4-.26a2.57,2.57,0,0,1,.71-2.07c1.28.33.21,1.08.21,2C355.11,98.88,355,98.52,354.6,98.74Zm2,11.39c-.13-.33.38-.28.33-.56.25-.54,1.56-1.49,2.16-.72-.48,0-.37.37-.84.38-.19.26-.95.19-.77.67Zm7.12-5.16a11.6,11.6,0,0,1-1.26-.61c.07-.44.77-.2,1-.27l.29-.08C364,104.45,363.47,104.46,363.77,105Zm-1.46,1a.41.41,0,0,1-.52-.18c.54-.14.33-.72.5-1.07.44.17.91.29,1.15.8C363.43,105.88,362.64,105.8,362.31,106Zm1,.83c0,.22-.42.17-.36.41-.18,0-.41.14-.48,0C362.8,106.84,362.81,106.46,363.32,106.81Zm-1.77-3.15a.85.85,0,0,1-.55.3l-.27-1c.65-.26,1.83-1.56,2.5-.66C362.33,102.55,362.59,103.49,361.55,103.67Zm-.94,1.82c.19-.06.15-.24.4-.26.27-.17.5-.67.74-.19,0,.24-.12.43-.14.67-.39.1-.83.28-1.07.12C360.54,105.69,360.65,105.63,360.61,105.48ZM361,101l.29-.08.15,0c.23.31.88-.09,1.14.17a3.78,3.78,0,0,0-1.79.94l-.15,0C360.41,101.47,361,101.38,361,101Zm1.95-.35c-.18,0-.41.13-.48,0,.35-.34-.81.14-.85-.25.48,0,.37-.37.84-.38l.15,0C363,99.59,363.2,100.59,363,100.63Zm-1.06-2.86c-.42.14-.58.77-1,.56.18-.14-.12-.57.14-.66S361.91,97.24,361.89,97.77Zm-.09-.92c.22-.12,0-.5.51-.45.15.31.8-.23.85.25l-.15,0C362.64,96.69,362,97.16,361.8,96.85Zm-1.53-5.25-.08-.29c0-.27.2,0,.44-.12l0,.15c.09.35.37.37.38.84C360.5,92.48,360.77,91.38,360.27,91.6Zm-1.09,13.79c-.37.28-.62.19-1.07.12,0-.41,1.11-.18.91-.71,0-.13-.09-.12-.18-.11a.74.74,0,0,1-.26-.4c.76,0,.52-.53,1.1-.6.08-.07.47-.51.59-.15-.28.21.36,1,.2,1.36C360.16,105.63,359.58,104.79,359.18,105.39Zm1.2,1.57a.45.45,0,0,0-.21.37c-.2.09-.18.31-.36.41-.24-.22-.8.09-1.1,0,0-.12.11-.18.07-.33.19-.06.15-.24.4-.26C359.58,106.72,359.86,106.63,360.37,107Zm-2.47-6.42c.31-.36.36-.87,1.17-.93.18,0,.41-.14.48,0C359.33,100.13,358.42,100.22,357.9,100.54Zm1.92.75a.41.41,0,0,1-.18.52l-.44.12c-.26.09-.38-.05-.41-.36l.3-.08Zm.08-5.67a.42.42,0,0,0-.41-.36c-.54-.14.69-.61.1-.81-.18-.5-.58.44-.62,0,.07-.25.1-.52.47-.59s.28.38.55.32A1.1,1.1,0,0,1,359.91,95.62Zm-.57-11.15c-.27.18-.34,1.12-.73.82a9.84,9.84,0,0,1,.42-2c.17,0,.18.27.37.22C359.5,83.9,359.71,84.36,359.34,84.47Zm-.51-2.54c-.33.06-.41-.29-.49-.66l.15,0c.06.11.17.14.33.07C358.93,81.58,358.74,81.68,358.83,81.94Zm-.37,9.36c.24,0,.54-.22.63,0,.28.45-.39.35-.66.49A.71.71,0,0,0,358.46,91.29Zm.1,5.15-.15,0a3.42,3.42,0,0,1-.8.52c-.06-.11-.19-.11-.23-.25.71,0,.16-.74.91-.71C358.72,95.51,358.8,96.13,358.56,96.45Zm-1.68-5.21c.33-.18,1.11-.1,1.13-.46C358.62,91,357,92.18,356.88,91.24Zm1.06,21.38c.37,0,.25-.35.69-.34-.12.3-.65.37-.58.78l-.59.15C357.54,113,357.56,112.69,357.94,112.62Zm.42-2c.2.44.91,0,1.29.13l.15,0c-.05.8.83.65.49,1.28-.33,0-.23.28-.18.52C359.48,112.2,358,111.23,358.35,110.63Zm2,9.22a.86.86,0,0,1,0,.63l-.44.12c-.13-.27-.6,0-.6-.47C359.78,120.19,359.69,120,360.3,119.84ZM359.12,110c-.23,0-.53.19-.63,0a12.87,12.87,0,0,0,1.53-1.34,1.14,1.14,0,0,0,.69-1c0-.12-.07-.29.07-.33.2.22.47.33.63.62-.15.49-.79.7-.94,1.19C360.13,109.47,359.21,109.47,359.12,110Zm4.14-2.19c.31-.15.38-.44.62-.63.8-.4,1.33-.09,1.11.65a.76.76,0,0,1-.32.56C364.37,107.85,363.59,108.18,363.26,107.77Zm.36-16.57c-.64,0-1.48-.17-1.33-.91.28-.25.24-.68.54-.93a5.73,5.73,0,0,1,1.11,0l.15,0,0,.15c.26.12.65,0,.85.25C364.45,90.2,364.07,90.72,363.61,91.2Zm.35-5.27a1.29,1.29,0,0,1-.94,1.82,12.25,12.25,0,0,1,.46-1.85c.29-.08.08-.45.51-.45C364,85.64,363.85,85.7,364,85.93Zm-1.18-3.3,0-.15c.42-.08-.43-.92.25-.85.36-.12.71-.22.81.1A1.12,1.12,0,0,1,362.78,82.63Zm.68-1.59c-.38.23-.43-.11-.77,0-.09-.2-.31-.18-.41-.36l.29-.08c.1.32.64-.1.92-.08a.72.72,0,0,0,.26.4Zm-1.07,6.09c-.16.49,0,1.13-.57,1.41l-.23-.88c-.08-.37-.17-.71-.38-.84a1.24,1.24,0,0,1,.91-.71C362.56,86.17,362.32,86.86,362.38,87.12ZM361.1,84c0,.1.05.2.08.29-.13.22-.47.3-.84.38-.13-.49-.26-1,.36-1,.19-.1.23-.28.55-.3C361.31,83.64,360.89,83.64,361.1,84Zm-.4,3.87c.05.2.1.39.15.59.47.58-.79.77-.95.56.14,0,.07-.21.07-.33C360.31,88.48,360.11,87.95,360.7,87.88Zm-1.41-7.16c-.18,0-.41.13-.48,0s-.43,0-.52-.18c.48-.05.45-.4,1-.42l0,.15C359.16,80.31,359.27,80.54,359.29,80.72Zm-1-1c.18-.43.25-.93.43-1.37.22,0,.36.24.45.51C358.53,79,358.84,79.62,358.25,79.74Zm.12,4c-.2.47-.23,1-.39,1.52-.06-.19-.24-.15-.26-.4-.1-.43-.1-1.55-.54-2.05a.94.94,0,0,1,.17-1.14l.15,0,.15,0,.08.29A4.58,4.58,0,0,1,358.37,83.78Zm-1.9-8.45c-.08-.27,0-.34.25-.22.3.33.76.39,1,.83C357.27,76.53,356.57,76,356.47,75.34ZM357.64,78a18.53,18.53,0,0,1-.78,2.4l-.15,0c-.16.07-.27,0-.33-.07s-.09-.42-.26-.4c-.07-.33-1.06-.15-.63-.62S357,78,357.64,78Zm-1.5,6.83.44-.12.12.44c-.16.4-.76.35-.52-.18Zm-1-4-.23-.88c.45-.12.5.42.67.76l0,.15C355.91,82.5,355.64,81.07,355.1,80.88Zm.05,1.4c.36,1,.61,1.54-.36,1-.66-.35-.93-1.39-1.46-2A5.41,5.41,0,0,1,355.15,82.28Zm.42,4.6c0-.15.07-.21.07-.33-.26-.95.43-.15.84-.38.41.09.5-.59.74-.19a5.65,5.65,0,0,0,0,1.1l.08.29c-.48.17-.46.64-.5,1.07l-.15,0c-.3.2-.77.29-.77.67l-.15,0c-.19.1-.23.29-.55.3l0-.15c.56-.46.48-1.3.94-1.81S355.82,87.05,355.57,86.87Zm-.34,5.27c.72.76,1.93,3.46.6,4.08l-.23-.88c-.52-.08-.5.09-1,.27l-.08-.29c.09,0,.17-.07.11-.19.56,0,.09-.7,0-.77-.67.11-1.07.37-.84,1-.59.38-.53-.38-.67-.77.72-.25-.17-.44-.19-.73a4,4,0,0,0,.25-.85c.49-.29,1.79-.11,1.69-.75ZM353,99.31l-.58.15-.12-.44C352.7,98.88,353,98.91,353,99.31Zm-.26,3.21.08.29-.33.55c-.39.07.14-.3-.15-.59l-.12-.44C352.46,102.34,352.55,102.54,352.77,102.52Zm-.18,13.07c.18.19.53.09.81.1.5-.3.51.25,1,.06.07.33-.61.23-.84.38-.4-.23-1.22.25-1.58-.05l.15,0C352.51,116,352.3,115.67,352.6,115.59Zm1.39,8.89-.59.15c-.22-.5.32-.56.77-.67s.36-.37.84-.38a1,1,0,0,1,.34.7C354.78,124.54,354.47,124.36,354,124.49Zm1.18-9.25c-.4,0-.56-.32-1-.21-.05-.48-.7.07-.85-.25.11-.1.23-.2.21-.37a5,5,0,0,1,1.86-1.9c.05.19.29.07.37.22C355.06,113.26,355.06,114.21,355.17,115.23Zm.5-1.07a.74.74,0,0,0,0-.48c-.16-.47.34-.54.4-.89,0,.09.07.17.18.11,0,.25-.43.25-.14.67C355.75,113.62,356.18,114.16,355.67,114.16Zm1.26.61.11.44c-.28,0-.82.4-.92.08C355.85,114.8,356.65,114.94,356.93,114.77Zm.88,8.72-.12-.44-.44.11c-.24,0-.54.22-.63,0s-.45-.08-.45-.51a9,9,0,0,1,1.72-.61,10.54,10.54,0,0,1,1.34,1.53l.15,0c0,.47-.35-.06-.59.16A.87.87,0,0,1,357.81,123.48Zm4.54,1.16a1,1,0,0,1-.34-.7l.15,0c.47.55.89,1.16,1.38,1.68.07.08.51.47.15.59a3.15,3.15,0,0,0-2.14-.38c-.56-.33-1.23-.46-1.78-.79-.42,0-1.16-.55-1-.83a3.55,3.55,0,0,1,1.7.49l.08.29c.58,0,.4-.87,0-.77a4.08,4.08,0,0,1-.85-.25c0-.22.18-.31.18-.52.12-.64-1.52-1.22-1.2-2.2.2.16.47.19.6.47.4.24.67.69,1.15.79a4.84,4.84,0,0,0,1.57,2.41l.08.29C362.36,125.75,362.69,125.18,362.35,124.65Zm-1.09-4.74c-.06-.33.29-.41.66-.49,0,.13.09.12.19.11C362.17,119.86,361.5,119.76,361.26,119.91Zm.77,2.94c.18-.06.34-.14.22-.37l-.15,0c0-.7,1-.11,1.21-.79-.27.1-.37-.08-.63,0s.1-.5.14-.67l.29-.08.15,0c.33.21.36.94.53,1.43C363.33,122.53,362.53,123.12,362,122.84Zm2.13-3.86c-.05-.27-.24-.31-.52-.18.07-.37.91-.3,1.28-.49l.44-.12c0,.34-.81.19-.62.63l-.44.11Zm.38,1.47-.12-.44,0-.15.88-.23a1.05,1.05,0,0,0,.41.36c.09,0,.18,0,.19.11C365.88,121,365.12,120,364.55,120.46Zm2.34,1.74c-.7-.36-1.37-.78-2-1.19.44-.19.59.13,1.06-.12l.15,0c.07.17.3.05.48,0C366.68,121.16,367.19,121.87,366.89,122.2Zm1-1.67c0-.09-.07-.17-.18-.11-.19-.58-.18-.6.32-.55.28-.06.23.46.56.32C368.66,120.5,368.05,120.39,367.86,120.53Zm1.22.46a.67.67,0,0,1,.66.14c.06.19.24.15.26.4l-.73.19a7,7,0,0,1-.93-.54C368.36,120.72,368.84,121.15,369.08,121Zm2,.9-1.76.46A2.29,2.29,0,0,1,371,121.89Zm11.88-.77c1.08-.07,1.76.52,2.7.71-.91.65-1.82.61-3,1a.74.74,0,0,1-.81-.1c.66-.2,2.49,0,2.42-1l-.29.08-1,.27c-.59-.26-1.59.17-2.32.14l-.44.12c.36-.57,2.69-.39,1.86-1.27A3.48,3.48,0,0,0,382.93,121.12Zm-3.61,0,0,.15c.24.15.68,0,1.07-.12a3.77,3.77,0,0,0,1.51-.24c-.12.39-1,.32-1.43.53-1,0-2.09.31-2.84,0C378.34,121.11,378.67,121.39,379.32,121.13Zm-3.9.08.15,0c.73.38,1.72.33,2.19,1.15l0,.15c.17.35.23.89.67.77,0,0,.05.13,0,.15-1,.74-3.94.05-5.55.36-.62.22-.91-.14-1.44-.09-.18-.33-.64-.18-1-.21a3.76,3.76,0,0,1-1.55-.53c1.78-.84,3,.45,4.2-.16-.19,0-.13-.14-.08-.29s.25-.1.26-.22a.41.41,0,0,0-.41-.36c-.41.14-.8.23-.85-.25l.15,0c.17-.07.1-.27,0-.48C373.28,121.18,374.36,121.18,375.42,121.21Zm-2.28-2.7c-1.54.37-3.34,1.17-4,.12l.73-.19c.57,0,.56-.42,1.14-.46s.72-.32.77-.67c-.48-.15-1.91.21-2,.69-.23,0-.53.2-.62,0,.35-.25.77-.46.69-1,0-.78-1.18.46-1.18-.32a3,3,0,0,1,1.68-.76,3.71,3.71,0,0,0,.74.43.83.83,0,0,0,.93.54c0,.09.07.17.19.11a.82.82,0,0,0,.93.54c.74-.1.55.29,1.14.17C374.35,118.31,373.66,118.36,373.14,118.52Zm3.15-1.77a3.25,3.25,0,0,1-1.76.46c.09-.58-.52,0-.56-.33l.44-.11c.08.29,1.54.21,1.62-.42.17-.07.1-.27,0-.48l.15,0c.27-.11.37.08.62,0C377.31,116.14,376.27,116.32,376.28,116.75Zm1.3-2.22c-.5,0-.2.46-.47.59s-.7.21-.81-.1c0-.14-.21-.07-.33-.07-.13-.41.94-.12.8-.52.18-.06.34-.13.22-.37s-.57-.16-1-.06l-.88.23c0-.36.6-.31.62-.63l.73-.19a2.61,2.61,0,0,1,1.62-.42l.12.44A3.08,3.08,0,0,0,377.58,114.52Zm.95-7.15c-.19-.65.27-.92.8-1.15.55.12.59-.79.46-1.22.38,0,1-.46,1.21-.16-.1.06-.14.17-.07.33A2.64,2.64,0,0,1,378.53,107.37Zm1.21,2.82-.44.12c.07-.14.5-.63-.11-.44,0-.21.2-.3.18-.52.85-.39,1.12.2,1.88,0C381,109.74,379.92,109.72,379.74,110.19Zm1.14-6.42a.42.42,0,0,1-.59.15c0-.13.11-.18.07-.33.29,0,.28-.25.55-.3s.62-.6.88-.23C381.71,103.43,381.24,103.56,380.88,103.77Zm-2.06.54c-2,0-1.78,1.94-3.48,1.7.29-.79.45-1.41,1.31-1.6a10.44,10.44,0,0,1,2.16-.72c.55-.13,1.22-.2.87-.86-.61.06-1.51.6-1.95.35l.29-.08.29-.08.15,0a2,2,0,0,0,1.1-.6c.48,0,.37-.37.84-.38.51-.22,1.39-.78,1.58.05C380.82,102.74,380.08,103.67,378.82,104.31Zm-1.62-3.81c.29,0,.28-.25.55-.3.2.23.51.26.53.8a2.17,2.17,0,0,0-1,.9c-.17.22-.32.25-.48,0l0-.15A1.38,1.38,0,0,0,377.2,100.5Zm1.34.91c0,.34.18.54.45.51l.08.29c-.35.09-.37.37-.84.38-.12-.29-.47-.18-.6-.47a.42.42,0,0,1,.36-.41C378.27,101.67,378.27,101.46,378.53,101.41ZM382,97.2c0,.09,0,.18-.11.19s-.29.08-.26.22C380.95,97.56,381.84,96.41,382,97.2Zm.13,7.66c-.25-.77,1.07-.62,1.65-.9.13.41-.25.52-.62.63C382.63,104.52,382.44,105.24,382.11,104.86ZM382,101l.44-.12c.33,0,1-.5,1,.06a1.23,1.23,0,0,1-.8.53C382.5,101.14,382.23,101.12,382,101Zm3.1,3.42.29-.08c0,.44-1.14.16-1.1.6-.23,0-.71.37-.77,0l.15,0A3.8,3.8,0,0,1,385.12,104.38Zm-.39-2.09c-.5.12.15.92-.36,1-.33,0-.92.43-1.07.12.18,0,.25-.1.25-.22a1.24,1.24,0,0,0,.81-.53c-.61,0-1.22.6-1.47.39a2.12,2.12,0,0,1,.36-1,.84.84,0,0,1,0-.63c.29,0,.28-.25.55-.3a.78.78,0,0,1,.9,1Zm.36-4c-.37.41-1.27.5-1.46,1-.8.44-.86-.37-1.58-.06l-.29.08c.26-.3.83-.43.5-1.08a18.46,18.46,0,0,1,2.85-1.69C385.11,97.12,384.76,97.5,385.09,98.27Zm-3.1-.44c.07-.46.83-.51.83-1,.33,0,1-.5,1,.06l-.15,0c-.27.3-1.1.27-1.06.75l-.15,0C382.26,97.78,382.17,98.06,382,97.83Zm6.51-.3-.3.08c-.34.3-1.11.34-1.21.79l-.15,0c-.27.3-1.1.27-1.06.75-.27,0-.32.31-.44.12a.77.77,0,0,1,.33-.56c.29-.2.77-.3.76-.67l.15,0c.58-.2,1.14-.41,1.35-.83l.3-.08C388.92,96.88,388.56,97.24,388.51,97.53Zm-3-1.25c.6-.2.64,0,.6.47l.08.29c-.09.16-.38.19-.36.41C385.17,97.45,385.76,96.79,385.51,96.28Zm1.15.8.15,0c.35-.09.37-.37.84-.38,0,.27-.17.4-.51.45l-.44.12Zm4.09-3c.42,0,1.12-.49,1.36-.2-.77,1-1.18,2.13-2.4,2.82a8.66,8.66,0,0,1-1.44-.72c.17-.07.42-.08.4-.26.18-.39,2.7-.61,1.46-1-.63,0-.69.42-1.28.49-.08-.5.89-.39.88-.86ZM389.52,93l.73-.19c0,.15-.07.21-.07.33-.29,0-.28.25-.55.3-.09,0-.17.07-.11.19-.23,0,0-.2-.12-.44S389.43,93.06,389.52,93Zm-.37-.21a2.14,2.14,0,0,0-.54.93,7.12,7.12,0,0,1-.4.89c-.13.21-.48.3-.84.38-.1-.23.07-.29,0-.48s.12-.43.14-.66c-.46-.21-.68.52-.69,1-.11.1-.23.2-.21.37l-1.62.42-.15,0c-.09-.27-.51,0-.56-.33a1.24,1.24,0,0,0,.8-.52c.18,0,.25-.1.26-.22.93-.33,1.77-.71,1.6-1.67a1.65,1.65,0,0,1-1.59-.68A8,8,0,0,1,389.15,92.81Zm.13-4.9c.36.31,1,.05,1.58.05.12,0,.48-.13.48,0,0,.82-2,2.38-3,2.83l0,.15-.15,0c.28-1,1.47-1.37,1.74-2.34-1.55.21-2,2-3.91,2.44-.18,0-.41.13-.48,0,.35,0,.54-.18.51-.45.52-.53,1.66-.68,1.27-1.75-1.17.69-1.85,1.65-3.18,2.25-.23,0-.71.37-.77,0,0,0-.06-.13,0-.15a10.65,10.65,0,0,1,1.82-1.42c-1.39-.24-3.14,1.38-4.77,2.06,1.63-.68,3.38-2.3,4.77-2.06h0A13,13,0,0,1,389.27,87.91Zm-4,.12.88-.23c.09,0,.18,0,.18.11-.61.18-.72.65-1,1-.37,0-.25.35-.7.34s-.54-.36-.78-.58c-.07-.23-.4,0-.41-.36C383.85,88.54,384.63,88.13,385.22,88Zm.65-1.11c0,.18-.19.22-.4.26s-.5-.14-.92.08C384,86.32,385.38,87.09,385.87,86.92Zm3.7-1.44c-.38.19-.52.53-.91.71a.84.84,0,0,1-.55.3c-.08-.29.35-.29.14-.66a.77.77,0,0,0,.32-.56C388.88,85.4,389.5,85,389.58,85.48Zm-.83-5c.17-.07.26-.35.44-.12-.79.37-.17,1.56-1.45,1.64-.08-.15-.32,0-.37-.22C387.88,81.42,388.15,80.87,388.75,80.52Zm-1.37,2.56c.47-.1.89-.23.95-.56.21-.08.56-.09.55-.3.57.19-.21,1.46-.79,1.78-.49,0-.83-.28-1.33-.28C386.32,83.46,386.91,83.16,387.38,83.07Zm-4.54,1.82c.28-.17,1-.07,1-.42a2.85,2.85,0,0,1,1.21-.16c1.17-.15,1.72.74,2.84.67.14.67-.83.67-1.13,1.08-.44.25-.59,0-.81-.1-.44-.17-.84-.41-1.26-.61l-.44.12a1,1,0,0,0-.7.34C383.53,85.25,382.58,85.2,382.83,84.9ZM382,86.53c.29-.14.42,0,.63,0l.12.44c-.35,0-.54.18-.51.45-.35.17-.89.23-.76.67l-.15,0-.29.08-.19-.73a.71.71,0,0,1,.4-.26C381.59,87,382.13,87,382,86.53ZM380.6,86c.45-.23-.11-.85.62-.63,0,.6.7.07.67.77-.79.16-1.2,1.3-2,.69C379.69,86.25,380.43,86.27,380.6,86Zm-1.79,4.55c.57-.19,1.13.1,1.28-.49.13-1,2-.39,2.94-.77l0,.15c.09,0,.18,0,.19.11-.48.09-.55.42-1.14.46a3.34,3.34,0,0,0-1.83.79l-1.76.46a.45.45,0,0,0-.37-.22Q378.26,90.62,378.81,90.5Zm-1.19-.94a6.34,6.34,0,0,1,.73-.82c.44.24.32.47.42,1l-.15,0c-.57,0-.56.42-1.14.46C377.5,90,377.6,89.8,377.62,89.56Zm0,4.24.15,0a2.45,2.45,0,0,0,1.4-.05l.15,0c-.16-.71.4-1,1.28-1.12.79.12,1.65,1.09,2.58.27-.09-.42-.51-.26-.74-.43s-.31-.24.07-.33c1.41-.21,2.1.81,3.15,1.21.68.43-.66.44-.54.92l-.15,0c-.51.2-1.13.34-1.21.79-.12,0-.29.07-.33-.07.27-.15.22-1.1-.16-1.21-.48.34-.2,1.13-.35,1.66-.51.49-1.22-.24-1.76.46-.24,0-.54.22-.62,0l.14,0c.3-.2.77-.29.77-.67.44-.15.46-.56.72-.82a.42.42,0,0,0-.52-.18c-.35.17-.89.23-.76.67l-.15,0c-.38,0-.5.68-.7.34-.19-.61.82-.52.65-1.11-.17-.28-1,.07-.84.38a10.23,10.23,0,0,1-1.4.05c-.42-.16-1.39.42-1.69.76-.35-.21-.11-.37-.19-.73l.15,0C376.92,94.2,377.61,94.2,377.63,93.79ZM377,87.21c0,.24.37.71,0,.77a8.49,8.49,0,0,0-1.76.14l-.1,0a2.12,2.12,0,0,0-1.33.82c-.12-.18-.17-.37-.81-.1-.06-.28.46-.23.32-.56,1.06-.87,1.68-2,3.06-2.69A5.84,5.84,0,0,1,377,87.21Zm-.28-17.82c0,.62-.85.37-1.28.49l-.15,0C375.41,69.54,376.3,69.6,376.72,69.39Zm-9.44,1.7a2.66,2.66,0,0,1,2.25.19c-.13.43-.89,1.13-1.13,1.08s-.47-.47-.89-.39c-.2-.37-.57-.45-.82-.73Zm1.45,4.33c-.65-.53-1.92.41-2.36,0l-.08-.29c.45-.08.36-.67.84-.38l.15.59c.48,0,.52-.36.8-.52L368,74.5l-.19-.73c.36-.11.38-.39.73-.19a6.39,6.39,0,0,0,1.71,1.12c.27-.09.46-.23.51-.45-.17-.35-.52-.39-.67-.76s-1-.46-.75-1.06a5.82,5.82,0,0,1,.87-.86c.26.12.47.33.85.25a6.09,6.09,0,0,1,2,1.67c.45,0,.33-.31.7-.34-.37-1.15-1.27-1.37-1.94-2,.42-.22.57,0,.92-.08a5.6,5.6,0,0,1,2.9,2.06c0,.19-.14.13-.29.08-.42-.25-.56.2-1,.27l.19.73a1.64,1.64,0,0,0,1.07.5l.08.29c.34.26.36,1.08.79,1.21a5.24,5.24,0,0,1,.11,3.42c-.8-1.18-1.56-2.43-2.79-2.87-.16.28-.6.39-.39.89.52.46,1.19.66,1.49,1.49,0,.18,0,.36-.22.37l-.15,0c-.35-.63-2,.37-1.39.68l.12.44c1.16-.14,2.28-.22,2.74.85a1.85,1.85,0,0,1,.42,1.62l.08.29c-.39.19-.09.78-.17,1.14a40,40,0,0,1-3.39,3.24c-.11-.2-.24-.2-.11-.44.54-.63,1.41-1.08,1.7-1.86-1.21-.78-1.4,2.14-2.63,1.32.53.33.19-.44-.23-.26-.21-.37.72-.08.51-.45.26-.14.94,0,.66-.49l.29-.08c.13-.38,1.19-.22,1.06-.75l.29-.08c.43-.17.87-.32.91-.71.18-.06.34-.13.21-.37-.65-.42-1.67,1.06-1.91-.12.7-.13,1.2-.38,1.17-.93a.42.42,0,0,0-.52-.18c0-.36.44-.41.25-.85-1-.35-.89,1-2.13.87l-.23-.88c-1.5.28-.78,1.86-2.44,2.05-.09,0-.18,0-.19-.11.35-.21.39-.6.17-1.14a1.29,1.29,0,0,0-.92.08c-.28.63-.19,1.47-.57,2a1.34,1.34,0,0,0-.65,1.11c-.54.35-.43,1.08-1.42,1.16-.06-.32-.54.07-.77,0l0-.15c.66-.15.62-.71,1.35-.83a1.15,1.15,0,0,0,.95-1.19c-.28-.23-.78-.08-1.14-.17s-.7.34-.67-.14c0-.23.32-.23.55-.3,0-.29-.25-.28-.3-.55.14-.37.56-.58.69-1,.92-.62,1.85-1.24,1.89-2.38-.85.42-1,1.25-1.75,1.71-.13-.2-.31-.31-.45-.51l-.88.23a18.25,18.25,0,0,1,1-1.52c.47-.16.95-1.14.32-1.18-.16.2-.5.29-.66.49s-.21.25-.29.08.08-.21.07-.33c.26-.14.29-.41.65-.49l-.15-.59a.85.85,0,0,0,0-.62c-.23.07-.58.08-.55.3-.42.23-.5-.14-.92.09l-.15,0c-.1-.18-.32-.16-.41-.36.54-.18.73-.57,1.21-.79l.14,0,2.06-.54c.39-.1.88-.15.8-.53Zm-3.86,1.38-.07.06h0l.07-.06A2.24,2.24,0,0,1,366.1,76,2.25,2.25,0,0,0,364.87,76.8Zm.42-9.11c.24,0,.19.3.12.44-.16,1.07-1.07,1.7-2.26,2.16C363.46,69.19,364.89,68.74,365.29,67.69Zm-2.6.84c.53-.19.39-.77.65-1.11.2-.5.25-1.62.87-1.48-.65,1.41-.6,4.53-2.45,4.41l.15,0c.14-.38.65-.54.5-1.07C362.36,68.92,362.72,68.84,362.68,68.53Zm-1.77-3.15c-.26-.77.59-.9.54-1.55.22,0,.23.32.3.55a4.15,4.15,0,0,1-.88,3.21,1,1,0,0,0,0-.77C361.38,66.64,360.63,65.71,360.92,65.38Zm1.27,1.24c.18,0,.22.19.26.4a1.38,1.38,0,0,0-.43.74,1.21,1.21,0,0,0-.5,1.07c-.37.33-.17,1-.8,1.15C360.61,68.52,361.66,67.72,362.18,66.62Zm-1.68,11a.42.42,0,0,0,.18-.52,3.85,3.85,0,0,0,.46-1.85.87.87,0,0,0,.21-1c0-.3-.72,0-.4.26-.37.07-.17-.49-.15-.59.37-2.77,3.76-3.14,5.22-1.05l0,.15a1.07,1.07,0,0,0-.18.52l-.44.12c-.59-.26-.22,1.11-1.13,1.08l-.12-.44a3,3,0,0,0-.1-2.17c-.57.21-.69.68-.61,1.26l0,.15c-.33.18-.18.64-.21,1-.5.07-.55-.62-.75-1.06s-.45.21-.73.19a6.86,6.86,0,0,1,.66,3.12c.19.44-.29.49-.25.85-.14,0-.16-.15-.22-.26.16-.36.11-.85.32-1.18-.93-.17-.45,1.23-1,1.67a.87.87,0,0,1-.91.71A1.25,1.25,0,0,1,360.51,77.57Zm.14,2.94a1.27,1.27,0,0,0,.93.54c.06.18.24.15.26.4-.09,0-.17.07-.11.19-.24.07,0,.43-.18.52-.37-.7-1.17-.69-1.7-1.12A1.24,1.24,0,0,1,360.65,80.52Zm-.76-14.87c.3.43-.45.24-.14.66-.33.26-.26.76-.13,1.29-.42-.29-.52-1.46-.5-1.91l0-.15C359.45,64.46,359.3,64.57,359.89,65.65Zm-2.64-2.29c0,.33.44.92.12,1.07a.71.71,0,0,0-.48,0C356.38,64.06,356.94,63.6,357.25,63.36Zm-.73,3.18c.08-.46-.62-.61-.56-.33-.58-.09,0,.52-.32.55-.39-1-2,.22-.95.56.09.27.51,0,.56.33-.23.32-.19,0-.59.15-.74.11-.87-.62-1.58-.05l-.15,0c0-.41.33-.63.91-.71s.2-.46.47-.6a2.24,2.24,0,0,0,.94-1.19c.33-.14.14-.58.62-.63.19.45.69.37.85.87C356.19,65.61,356.84,66.36,356.51,66.54Zm-.38-3.83c-.2.05-.07.29-.22.37l-.08-.29c.08-.53-.35-1.36.39-1.51.06.19.24.15.26.4C356.57,62.14,355.83,62.12,356.14,62.71ZM355,55.47c.57,1.08,1.7,1.21,2.09,2.59-.35.29-.17.9-.09,1.44s.25.89-.21,1l-.08-.29c-.17-.35-.23-.89-.67-.77q-.11-.56-.49-.66c0-.37-.35-.25-.34-.7a2.58,2.58,0,0,1-.42-1.62C354.69,56,354.47,55.53,355,55.47Zm-.25,3.83c.1.25,0,.78.45.51.11.36.4.38.19.74-.45.11-.23.61-.21,1a2.63,2.63,0,0,1-.6-.47l0-.15C354.4,60.25,354.73,59.86,354.77,59.3Zm-1.57,1.2c.08.37.16.71.38.84,0,.19-.13.25,0,.48-.43-.32-.45-.72-.5-1.28Zm-.33,5.9a1.68,1.68,0,0,0,.42-1.37c.38-.4,0-1.27.53-1.55.32.09.46.49.78.58a.84.84,0,0,0,0,.62A20.53,20.53,0,0,0,353,66.84l-.15,0C352.81,66.7,352.7,66.46,352.87,66.4Zm0,2.5c.32-.51.17-.49.84-.38.93.11,1.56.73,2.55.74.11.45.61.23,1,.21l.29-.08a6,6,0,0,0,1.55.53c.09,0,.18,0,.18.11.3.27.27,1.1.75,1.06.34.74-.08,1-.24,1.48a1,1,0,0,0-.34-.7.57.57,0,0,0-.43.74,11.34,11.34,0,0,0-.42,2,.77.77,0,0,0-.33.56c-.34,0-.37-.87-.27-1,.22-.83.56-1.58.78-2.4.5-.21.24-.78,0-1.11-.48.05-.62.3-.43.74-.38.73-.26,1.76-1,2.3-.44-.67-.5-2-1-2.57l-.29.08c-.35.72.22,1.37.43,2.24,0,.28.4.82.08.92-.06-.1-.08-.29-.22-.25-.21-.49-.15-1.45-.68-1.39-.2.09-.18.31-.36.41-.53-.07-.86.52-1.17.93.23-.94-.1-2.22.11-3.17.46-.17.09-1.06-.27-1-.1.19-.53.19-.33.56-.14,1.41-.06,2.95-.28,4.31l.11.44,0,.15a.74.74,0,0,0-.1.81l-.15,0-.15-.59a9.37,9.37,0,0,0-1-1.94l0-.15-.08-.29C352.26,71.68,352.77,70.4,352.89,68.9Zm-.83,7.59.15,0c.15-.28,0-.74.21-1a4.9,4.9,0,0,1,.68,1.39l.08.29c.26.34.35,1,.75,1.06l.16.59c-.65.12-1-.31-1.41-.57-.18-.4-.83,0-.82-.73C351.81,77.09,352.17,76.93,352.06,76.49Zm.44,6.48.29-.08a20,20,0,0,0,2.63,1.66c-.82.64-.53,1.92-1.18,2.66-.11.06-.11.19-.25.22.05-.92-1-.47-.77,0-.14.42-.14.91-.28,1.33-.56.05-.66-.71-.82-1.35-.31-.4.22-.93-.27-1l-.12-.44A4.54,4.54,0,0,0,352.51,83Zm-.41,18.16c-.61.05-.49.54-.36,1l.08.29c-.4.06-.3.41-.29.7-.3,0-.27-.54-.7-.28-.14-.29,0-.42,0-.63-.14-.54.24-.77.32-1.18.71-.6-.42-.53-.78-.58.16-.2.51-.28.47-.59.44-.12.4-.51.76-.67l.08.29Zm-2.35.62c.1-.23,0-.58.29-.7s.32-.32.44-.12a10.37,10.37,0,0,1-.39,1.51l-.15,0C349.6,102.54,350,102.06,349.75,101.74Zm1.15-24.31c-.45,0-.12-.63-.23-.88l0-.15c.17-.07.26-.35.44-.12A1.25,1.25,0,0,1,350.89,77.43Zm.52,6.77.11.44c-.29.12-.18.47-.47.59l-.12-.44C351.23,84.67,351.26,84.39,351.42,84.2Zm0,9.43c.19,0,.13.14.08.29s-.08.2-.26.22-.42.64-.55.3l0-.15C351,94.14,350.94,93.74,351.38,93.62Zm.22-18.89c-.29.12-.19.47-.29.7-.33,0-.1.82-.36.41l-.19-.74c.23-.2.26-.51.8-.52Zm-.37-9.16c-.3.19.16.84.16,1.21-.42,0-.2.38-.33.56a.86.86,0,0,1-.21,1,2.76,2.76,0,0,1-.1-2.17C351.1,66.14,350.9,65.18,351.23,65.57Zm-1.06-2.23c.28-.49.34.12.45.51l.19.74c-.17.07-.42.09-.4.26l0,.15C350.27,65.23,350.16,63.46,350.18,63.34Zm.28,29.75c-.51.45-.29,1.33-1.16,1.56-.46,0,.06-.35-.15-.59.15-.45.9-.55,1-1C350.24,93,350.41,92.94,350.46,93.08Zm-1.24,7.23-.15,0c.12.55-.12.42-.51.45,0,.64-.49,1-.49,1.7-.46-.16-.12.72-.4.26l0-.15a.87.87,0,0,0,.21-1c.11-.81.8-1.27.3-2.43l-.08-.3a1.05,1.05,0,0,1,1.27,1.24C349.19,100.13,349.2,100.22,349.21,100.31ZM345.34,94c-.23,0,0-.13-.08-.3l0-.14a1,1,0,0,0,0-.77c.59.22.22-1,.05-1.58.16-.06.29.15.29-.08-.18,0-.13-.14-.08-.29.52-.52.17-1.55.34-2.29.46.06.19,1.38.79,1.2l.08.3.16.59c-.34.18-.18.64-.21,1-.62.14-.43.74-.65,1.11a1.22,1.22,0,0,0-.5,1.08C345.32,93.77,345.33,93.86,345.34,94Zm.13-13.84c-.17.06-.34.13-.22.37-.22,0-.23-.32-.3-.55l-.08-.29.15,0c.19,0,.25.13.48,0C345.55,79.82,345.37,79.88,345.48,80.11Zm.6.47,0-.15c.22,0,.17.42.41.36.47,1.77-.26,2.83-.65,4.09l-.29.08a9.08,9.08,0,0,1-.4-2.72l0-.15A5.22,5.22,0,0,0,346.07,80.58Zm3.11,4.68c-.37.11-.16.57-.06,1-.21,0-.3-.2-.52-.18-1.48-.52-.49-1.95.08-2.69.31-.17.29.23.52.18C349.55,84.31,349.09,84.62,349.18,85.25Zm-.62-2.35c-.75.06-.55.67-1,.89a.77.77,0,0,1-.55-.32c.42-.5.45-1.23.79-1.78l.15,0c.07-.6.1-.42.44-.12l.12.44C348.46,82.27,348.88,82.8,348.57,82.91Zm-1.38,10.88c.47,0,.36,1.67-.68,1.59a1.3,1.3,0,0,1,.32-1.18C347.13,94.17,347.27,94,347.18,93.78Zm.29,5.26c-.33.14,0,.68-.25.85a1.08,1.08,0,0,0-.41-.36l-.12-.44C346.93,99.12,347.41,98.72,347.47,99Zm.34,7.29a.74.74,0,0,0,.81.1c0,.12-.08.2-.25.23l-1,.27-.12-.44C347.63,106.39,347.45,106.16,347.81,106.33Zm-.51-18.7.15,0c.26.53-.31.56-.21,1-.25,0-.21.21-.4.26l-.15-.59C346.34,87.74,346.91,87.74,347.3,87.63ZM346.69,108l0-.15c.19,0,.25.13.48,0l0,.15-.15,0a2.54,2.54,0,0,0,0,1.11c0,.09,0,.18-.11.18-.14-.46-.62-.36-.82-.73l-.08-.29C346.44,108.39,346.32,108.07,346.69,108Zm0,10.83c.29-.14.42,0,.63,0,.23.38-.11.43,0,.77l-.15,0c-.37.21-1,.66-.81-.1C346.41,119.27,346.31,118.92,346.71,118.86Zm2.16,2.26-1,.27c-.18,0-.41.13-.48,0l-.19-.73C348,120.39,348.72,120.24,348.87,121.12Zm-.39-11.67-.12-.44a.71.71,0,0,0,.4-.26c0,.15.08.29.12.44C348.64,109.17,348.67,109.86,348.47,109.45Zm.07-1.48c.21,0,0-.42.52-.4C348.55,107.55,348.76,108,348.54,108Zm.16-10.2-.08-.29c.38-.23.43.11.77,0l.15,0a1.25,1.25,0,0,1-.06,1C349.08,98.41,348.89,98.1,348.7,97.78Zm1.13-22.59c.35.83,0,1.27,0,1.88l-.44.12.19.73c.32.23,0,.19.16.59-.42.22-.5-.14-.92.08,0,.78.62.51.75,1.06l0,.15,0,.14c-.51.08-.08.7-.21,1l0,.15c-.68-.54-.41-2.71-1.25-3l-.08-.29a14.71,14.71,0,0,0,.82-2.25c.11-.06.11-.19.26-.22Zm-.5-10.85.29-.08c.19.44-.36.45-.06,1-.31.11-.2-.5-.34-.7C349.32,64.49,349.4,64.46,349.34,64.34Zm-.13,4.9c.76-.12.07.58.23.88l0,.14c-.66,0,.07.87-.54.93-.09-.47-.13-.9.36-1C349.32,69.88,348.9,69.34,349.22,69.24Zm-.73-2.79a.73.73,0,0,0,.48,0c.22.5-.43.5-.21,1A1.14,1.14,0,0,1,348.48,66.45Zm-.37,6.37a1,1,0,0,1,.34.69l0,.15.11.44c.1.39-.38.44-.25.85a.77.77,0,0,0-.32.56c-.06.59-.46.65-.52-.18l-.31-1.17a1.37,1.37,0,0,1,.43-.74C347.91,73.28,347.61,72.82,348.12,72.82Zm-.55-2.68,0,.15.15.59c-.31-.07-.37.57-.59.16s0-.57-.08-.92l0-.15C347.27,69.94,347.36,70.14,347.57,70.14Zm-1.51,3.22.08.29c0,.22-.28.25-.36.41C345.54,73.71,345.9,73.08,346.06,73.36Zm.17,1.84c.14,1.22.93,2.07.81,3.08l-.15,0-.12-.44-.11-.44-.44.12a.73.73,0,0,0-.4.26c-.06-.11-.17-.14-.33-.07s-.15,0-.19-.11a.76.76,0,0,1-.26-.4c.14,0,.07-.21.07-.33.22-.2.13-.58.25-.85C345.51,75.61,345.45,75,346.23,75.2Zm-1.78-3.77c.4.22,1,.06.82.72l0,.15c-.51.3.08,2.31-.94,1.19C344.15,72.71,343.69,71.24,344.45,71.43Zm-1.94,9.93-.12-.44c.2-.09.19-.31.37-.41l.12.44c0,.42.49,1.12.2,1.36-.62.21-.54-.43-.53-.8Zm.49-1.7c.44-.19.59.13,1.07-.12,0,.21-.14.34,0,.63l0,.14c-.59,0,0,.74,0,1.1A8.89,8.89,0,0,1,343,79.66Zm1.21,11.77c-.34-.09-.46-1.09-.35-1.32l0-.15,0-.15a.72.72,0,0,0,.4-.26l.08.29C344,90.23,344.37,91,344.21,91.43Zm.06,11,.19.73.12.44c-.38.15-.08-.86-.59-.47-.12,0-.29.07-.33-.07C344.07,102.95,343.87,102.5,344.26,102.4Zm-2.34-30.46c.46-.15,0-.84.54-.93.07.73.7.51.79,1.21-.29.24.19.94.2,1.36l-.15,0c0-.35-.33-.13-.41-.36-.09.16-.38.19-.37.41-.32.06.07.54,0,.77.24.51,1,.14,1.26.61a2.74,2.74,0,0,1-.13,1.92c-.06-.11-.17-.14-.33-.07.37-.61-.37-.27-.59-.47.35-.45-.26.38-.22-.25l-.19-.73c-.52.07-.83.26-.58.78a3.66,3.66,0,0,0,.57,1.58c-1,.39-.4,1.75-.56,2.66l.08.29-.44.12-.08-.29c0-.37-.35-.25-.34-.7.28-.29-.21-1-.24-1.51l-.12-.44c-.19-.57.39-.68.13-1.29.33-.18.18-.64.21-1l-.12-.44c.4-.24-.21-.45-.19-.73A9.82,9.82,0,0,0,341.92,71.94Zm-6.74,28.14c-.32,0-.28-.66-.63-.62-.1-.46-.57-.74-.31-1.17l.29-.08c.53.36,1.34.25,2,.42-.11.06-.14.16-.07.33-.13.66.3,2.18.91,2.27.12.44.51.4.67.76.08.15.32,0,.37.22s.34.7-.14.66c-.38-.34-1-.24-1.19-.94,0-.37-.35-.25-.34-.7-.56-.18-.61-1.23-1.16-1.42C335.57,99.51,334.86,99.77,335.18,100.07Zm1.67-11.58c-.64,0-.35-.94-.16-1.21.07.17.09.42.26.4.1.23-.07.29,0,.48S336.85,88.37,336.85,88.49Zm-.52-3.16-.23-.88c.26-.09.38.06.41.36S336.66,85.32,336.33,85.33Zm0,5.82c-.21.57.43.86.2,1.36l0,.15c.06.12,0,.15-.11.19l-.29.08c-.28.06-.23-.46-.56-.33l0-.15C335.43,91.81,336.13,91.63,336.29,91.15Zm0,4.09c.2.3.3.77.67.76l0,.15.31,1.17-.15,0c-.18-.18-.34-.41-.7-.29-.12.06-.16,0-.19-.11a8.19,8.19,0,0,0-1.11-.65l-.08-.3a.78.78,0,0,1,.32-.55C335.62,95,335.81,95.1,336.26,95.24Zm1-5.61c.29-.2.23-.61.4-.89.1-.06.14-.17.07-.33.4,0-.06.62.27,1-.2.55-.6,1-.5,1.7l-.15,0c-.2-.66-.37-.69-.16-1.21C337.19,89.82,337.31,89.75,337.3,89.63Zm.74-3.18c.1-.37,1.09-.46,1.11,0,.25.42.79.35,1.11.65l.15,0a27.61,27.61,0,0,1,.62,3c-.59-.27-.8-1.18-1.34-1.53a2,2,0,0,0-1.37-1.05c-.32.14,0,.64-.25.85-.25-.52.09-.7-.16-1.21.15,0,.21.07.33.07Zm3,5.34c-.3-.83-1.17-.69-1.38-1.68,0-.36-.87-.94-.27-1a1.24,1.24,0,0,1,.71.91c.17.35.23.89.67.77,0,.14.08.29.12.44S341.37,91.68,341,91.79Zm-3.65-6.73,0-.15-.08-.29c.2-.07.28.38.33.07.19-.05.2.22.37.21C338.12,85.12,337.32,85.33,337.36,85.06Zm.54,14.61c-.24.13-.43-.12-.44.12-.22,0-.66-1.12-.12-1.07l.29-.08C338,98.88,337.64,99.18,337.9,99.67Zm-.37,3.39c.17.48.76.25,1,.69,0,.09.07.17.19.11,0,.33.43.92.12,1.07a6.06,6.06,0,0,1-1.42-1.82Zm1-11.72a1.21,1.21,0,0,1,.5-1.08c.58,1.35,1.66,1.84,2.36,3l0,.15c0,.21-.2.3-.18.52-.38.08-.36-.52-.74-.43,0-.33-.28-.23-.52-.18,0-.59-.47-.32-.53-.8-.21.12,0,.49-.51.45A2.9,2.9,0,0,1,338.54,91.34Zm1.4-9c-.1-.39-.21-.78-.31-1.18l-.27-1c1.28.65,3.55,3.36,1.86,4.69.09.27.22.47.45.51l0,.15c.35.21,0,.29.19.73l0,.15C340.33,86,341,83.7,339.94,82.34Zm.08-8.65c.37-.33.1-1,.61-1.26l-.12-.44a4.8,4.8,0,0,0,.49-1.7c.18-.06.34-.13.22-.37l.15,0s0,.1,0,.15.1.39.15.59a6.53,6.53,0,0,1-1.65,3.88C339.91,74.21,340.14,74,340,73.69ZM339.27,78c.27,0,.56,1.15.35,1.32a.76.76,0,0,0-.55-.33C339,78.57,339.38,78.41,339.27,78Zm-.49-1.28c.41.44,0,.6,0,1.11-.39.17-.28-.51-.59-.47l0-.15-.19-.73-.12-.44C338.47,75.65,338.24,76.82,338.77,76.69Zm-3.14-7.18c.37.14.33,1,.75,1.06l.12.44c-.25.52.21,1.45.06,2l0,.15c-.43,0-.18-1.25-.75-1.06l-.39-1.47,0-.15C335.49,70.17,335.57,69.85,335.63,69.51Zm-2.3,2c0-.18.19-.22.4-.26s.17.14.33.07c.06.18.24.15.26.4l.08.29c.22,0,.31.18.52.18.28.38.78.37.79,1.21a9.16,9.16,0,0,1,.61,1.72c-.31,0-.39-.32-.7-.29,0-.09-.07-.17-.19-.11a.42.42,0,0,0-.41-.36A5.12,5.12,0,0,1,333.33,71.52Zm.62,3c-.11,0-.23.15-.35.25C333.73,74.63,333.84,74.48,334,74.47Zm-1,20.69a.42.42,0,0,0-.18.52l-.15,0-.08-.29-.15-.59c.1-.5.68,0,1-.27,0-.12.08-.2.26-.22a1.46,1.46,0,0,0,0,.15l0,.15C333.68,94.93,333.38,95.08,333,95.17Zm.85-5.72c-.21,0-.42.09-.4.26l0,.15c-.38.15-.08-.86-.59-.47l-.08-.29c-.61-.66-.89-1.88-1.58-2.41,0-.56-.46-.5-.89-.39s.13.74.12,1.07c.3.34.34,1.12.79,1.21.21.13.49.15.48.66-.26.38.49.85.64,1.24s0,.77.45.51l0,.15,0,.15c.42.69-.8-.16-1.25,0-.26.18-.29.49-.25.85.42.13.75.42,1.33.28l0,.15c.24.36.87.07.86.87-.59,0-1.28.2-1.84.17,0-.21-.09-.42-.26-.4l-.11-.44c-.5-.77-.53-2.36-1.21-2.82l-.15-.59c-.16-.73-.55-1-.65-1.87a20.51,20.51,0,0,0-.88-2.75c-.14-1.57.8-2.51,1.21-3.77a1.22,1.22,0,0,0,.5-1.08c.71-1.5,2.5-2.35,3-3.94.19-.06.15-.24.4-.26.27.24.74.16,1.14.17a4,4,0,0,1,.85.25c.15.38.69.1.89.39a.77.77,0,0,0,.55.33l0,.15a1.74,1.74,0,0,1,.38,1.47c0,.31.15.45.41.36.06.18.25.15.26.4.54,2,1,2.84,1.57,4.77-.49-.25-.93-.07-1,.56-.14,0-.16-.15-.22-.25-.24-.38-.63-.48-.75-1.06-.31-1,.15-1.57-.21-2.61l-.19-.73-.35-1.32c-.31,0-.45.15-.36.41-.41,1.13.59,3.08.34,4.3-.33.13-.27-.38-.56-.33l-.15,0-.19-.73,0-.15c.54-.1,0-.83.17-1.14l-.15-.59.15,0a6.87,6.87,0,0,0-.13-1.69L336,78l0-.15-.59.15-.15,0c.27.58,0,.81.2,1.36l.15.59c-.34.3,0,1-.09,1.44l.15.59c-.31.11-.5,0-.56-.33s-.35-.4-.6-.47c-.23-.52-.78-.51-.82-1.35-.06-.11-.19-.11-.22-.26-.5,0-.4.35-.66.49.17.34.23.89.67.76.07.66.47.76.75,1.06s.22.62.59.47c0,.48.47.49.23.88-.48,0-.57-.59-1.08-.5l0-.15c-.05-.48-.34-.55-.63-.62-1,.69.52,1.37.69,2l-.59.15c.12.72.45,1.07.93,1.17.33-.13.27.38.56.33.09.63.45,1.42,0,1.73-.58-.24.39-1-.42-1-.07-.17-.3-.05-.48,0-.58-.09,0,.52-.33.56-.09-.69-.72-.47-.79-1.21-.17-.42-.32-.87-.71-.91-.22-.33-.58-.42-.6-1.1-.19.14-.8,0-.7.34-.11.06-.11.19-.25.22.25.28.28.94.71.91l0,.15c.3.27.27,1.1.75,1.06a3.16,3.16,0,0,0,1.3,1.38c-.4.23.23.75.56,1,.18,0,.19.23.26.4.43.32.48.67.49,1.28C334.13,90.61,334.18,89.66,333.8,89.45Zm1.27-4.73-.3.08a1.07,1.07,0,0,1-.41-.36c.07-.31-.57-.37-.15-.59C334.38,84.36,335,84,335.08,84.72Zm-2.22,17.84c.18.33.1,1.11.46,1.14l.46,1.76C333.06,105.42,332.09,103.08,332.85,102.57Zm-1.46,1,.29-.08c.37.07.3.91.5,1.28-.34.15-.1-.69-.56-.33C331.47,103.92,331.35,104.08,331.39,103.58Zm2.38,5.49c-.35-.37-.48.06-.81-.1-.16-.58-.8-.34-.89-1a1.37,1.37,0,0,0-1.11-.65,7.53,7.53,0,0,0-2.74-1.48c0-.35.72-.32.77-.67l.44-.12.15,0c.12,0,.29-.07.33.07.11.45.33.71.67.77.21.22.21.79.63.62a8.48,8.48,0,0,0,2.08,1.34,3.24,3.24,0,0,1,.79,1.21Zm.26-6.19c-.34,0-.25-.71-.42-1,.15,0,.21.07.33.07l.29-.08c.15.53.73.31,1,.69C335.06,103.46,334.35,102.22,334,102.88Zm.79,7.8-.29.08c-.07-.17-.09-.42-.27-.4.14-.55.64,0,.81.1l0,.15Zm.53.81.29-.08c.09.35.37.37.38.84C335.76,112.06,335.37,112.09,335.35,111.49Zm.3-2.44c-.32-.39-.07-.54-.31-1.17l.44-.12c.17.59,1,.78.83,1.35A3.42,3.42,0,0,0,335.65,109.05Zm1.51,3.37c-.31-.3-1-1.09-.53-1.43l.59-.15c.19.44-.13.59.12,1.07C337.08,112,337,112.14,337.17,112.42Zm.34-5.27-.44.11c-.2-.22-.2-.79-.63-.62a2,2,0,0,1-.82-1.35.74.74,0,0,0-.26-.4c0-.42-.49-1.12-.2-1.36a1.25,1.25,0,0,0,.53.8l.15,0c.59.76,1.4,1.16,1.83,2.19l.11.44C337.59,106.95,337.51,107,337.51,107.15Zm.35,1.32-.08-.29a4,4,0,0,1,.25-.85c.45,0,.12.63.23.88s-.2.3-.18.52C337.94,108.76,337.92,108.58,337.86,108.47Zm.71,4.52-.44.12c-.34-.53.4-.43.06-1l.29-.08c.05.48.54.21.52.8Zm.61-1.26c-.37.21-.37-.23-.56-.33,0-.43.19-.71.17-1.14.28-.13.47-.09.52.18C339.69,110.72,339.54,111.5,339.18,111.74Zm.25-9.8-.15,0c0-.28-.41-.82-.09-.92.06.1.08.29.22.26-.07-.29.35-.29.14-.66,0-.09,0-.18.11-.19.23.42,0,.57.09.92S339.54,101.75,339.44,101.94Zm.45,20.31a.43.43,0,0,1,.45.09ZM340.61,95l-.15,0c-.31,0-.28-.51-.59-.47l-.23-.88c.14,0,.2.07.33.07.2.29.59.26.67.77A.7.7,0,0,0,340.61,95Zm1.48,26c-.32.2-.94.55-1.32.35-.15-.34.69-.09.33-.56.4-.19.79-1,1.2-.79C342.4,120.45,341.83,120.49,342.09,121Zm.67-30.31c-.27.09,0,.52-.14.66s-.11.47-.25.23-.11-.39-.15-.59l.15,0c-.2-.57,0-.88-.24-1.51a3.65,3.65,0,0,1,.43-.74c.31.11.07.94.39,1.47A.42.42,0,0,0,342.77,90.71Zm.08-5.67c-.23-.55.07-.79-.2-1.36.31,0,.21.64.59.47l.08.29.16.59-.44.12C343,85.06,343,85,342.85,85Zm.38,26-.12-.44c0-.14.15-.16.26-.22a.42.42,0,0,1,.59-.15l0,.15C343.45,110.37,343.77,110.93,343.23,111Zm.72,8.13a.72.72,0,0,0-.26-.4l.29-.08a6.56,6.56,0,0,1,.82.73C344.78,120,343.93,119.77,343.95,119.12Zm.64-17.28,0-.15c.13-.42.69-.59.65-1.11l.15,0c-.28-.45.39-.35.66-.49l0,.15c-.11.06-.14.17-.07.33a.42.42,0,0,0-.18.52c-.18.19-.41.34-.29.7s-.19.47-.29.7-.23.2-.22.37C344.66,102.85,344.76,102.12,344.59,101.84Zm.66,18.66c-.29-.84.3-1.15.87-1.48A1.46,1.46,0,0,1,345.25,120.5Zm.9-2-.29.08c-.24,0-.19-.3-.12-.44l.44-.11C346.29,118.29,346.11,118.35,346.15,118.54Zm.25,2.76c.2-.07.41-.13.48,0s.18.11.22.25l-.88.23C346.18,121.58,346.57,121.6,346.4,121.3Zm.35,1.32.15,0c.5-.08,0-.76.77-.67C348.11,122.51,347.07,122.87,346.75,122.62Zm2,2.29a2.49,2.49,0,0,1,2,.57c.09.4.32.23.16.59-.48.25-.66,0-1-.06-.11-.37-.61-.09-.85-.25a3.85,3.85,0,0,1-1.7-.5C347.6,124.81,348.26,125.27,348.77,124.91Zm-1.21.79c.44.1.92.11,1.11.65C348.12,126.45,347.65,126.4,347.56,125.7ZM258.4,269,234,292.39l29.2,28,25.68-24.67L261,269Zm67.73,0-27.88,26.78,25.69,24.67,29.2-28L328.76,269Zm-116.47,0,19.7,18.92L249.06,269Zm60.7,0,23.22,22.3L316.8,269Zm-82.63,104.6c-3.42,1.62-8.14,3.44-11.14,6a12.67,12.67,0,0,0-4,8.76c0,2.94,2,4.13,4.5,4.46,3.34.45,5.44-1.21,7.74-3.05a12.13,12.13,0,0,1-1.28-4.81C183.46,379.64,188.14,373.83,187.73,373.58ZM365,397.42c-2.58,4.76-4.16,8.58-4.52,12a14,14,0,0,0,2.15,8.76c6.24-4.87,10.7-13.36,9.69-20.82C369.06,397.95,367.44,398,365,397.42ZM124.93,362.83l-5.53,5c-1.28,1.14-3.45,2.89-3.42,5,.05,4.37,8,7.3,11.18,7.94,8.91,1.76,22.72-2.39,22.67-6.47C149.74,369.14,129,363.79,124.93,362.83ZM62.31,324.38C14.87,333.3,0,354.8,0,354.8c2.51,7.3,26.66,24.26,26.66,24.26C17.93,400.64,13,436,13,436c40.71-32,70.66-27.57,70.66-27.57L50.23,396.54ZM501.76,294.2q-5.63,2.33-11.28,4.49a213.41,213.41,0,0,0,17.14-84C507.62,96.31,411.31,0,292.93,0S78.25,96.31,78.25,214.68A213.36,213.36,0,0,0,96.83,302C82.18,297.42,74,294.2,74,294.2L59,390.59c246.88,102.21,460.54,0,460.54,0ZM91.86,214.68c0-110.87,90.2-201.07,201.07-201.07S494,103.81,494,214.68a199.75,199.75,0,0,1-21.58,90.52c-3.24,1.1-6.47,2.14-9.7,3.16a191.86,191.86,0,0,0,24-93c0-106.5-86.65-193.14-193.15-193.14S100.39,108.83,100.39,215.33a191.89,191.89,0,0,0,24.91,94.76q-5.7-1.48-10.83-2.91A199.74,199.74,0,0,1,91.86,214.68ZM401.21,323.53q-6.67,1.21-13.31,2.25l-30.1-28.91-29.2,28,6.79,6.52q-4.44.27-8.85.48l-2.62-2.51-2.86,2.74q-4.84.18-9.63.28l7.82-7.51-25.69-24.68-25.68,24.67,7.56,7.26q-4.92-.17-9.77-.41l-2.46-2.36-2.19,2.1q-4.41-.25-8.75-.56l6.28-6-29.2-28-29.51,28.34q-7.2-1.06-14.08-2.23l-16.54-15.71,5.1,13.69q-7.9-1.45-15.3-3c-9.62-2-18.58-4.08-26.79-6.13a186.82,186.82,0,0,1-26.75-96.53c0-103.68,84.35-188,188-188s188,84.35,188,188a186.81,186.81,0,0,1-26,95.22l-3.76,1.12q-16.24,4.69-32.35,8.2c-1.7.37-3.4.72-5.11,1.08l4.74-14.64Zm-38.82,31.79c.05,4-3.64,9.43-8,9.89-2.44.25-4.09-1.51-4.13-3.93-.06-4.14,4.78-8.26,8.74-8.71A2.86,2.86,0,0,1,362.39,355.32ZM122.1,391.19c-7.21-1.09-17.21-5.86-17.33-15.11,0-3.27-.56-3.82,10.83-16.76-2.8-.81-9.19-2.59-9.24-6-.06-4.33,13.92-1.38,16.92-1.71,6.43-5,12.93-12.23,23-10.44-.68,1.59-1.37,2.82-9.58,11.09,22.68,1.07,28-5.32,27.73-8-.13-2.27-3-6.17-14.69-7.33-2.31-.21-13-.68-28.12,1.68.6.43,1.41,1,1.42,1.82,0,1.52-2.28,1.65-3.57,1.57-6.19-.33-8.07.15-13.83.73a9,9,0,0,1-3.08,0,3.15,3.15,0,0,1-2.53-3.34c0-.71,1.44-4,4.47-7.43,2.06-2.35,4.9-5.53,8.28-6.09,9.63-1.51,28.34-1.75,38.83,0,17.34,2.87,21.6,10.17,21.66,15.69.2,16.58-30.33,16-42,15.79l-2,1.43c7.12,2.9,31.82,9.14,32,18.76C161.33,383.11,149,395.25,122.1,391.19Zm350.82-70.1c-.58,9.7-3,19.54-24.45,45.94a12.11,12.11,0,0,0-.61,7.13c.93,2.11,2.36,3.8,5.06,3.15,5.51-1.32,13.11-9.74,17-14.44l1.43,2.65c-5.4,7.22-14.65,19.82-23.27,21.83-7.32,1.7-9-5.14-9.1-11.08,0,0,0,0,0,0-5.48,6.75-14.44,17.71-21,19-3.73.71-6-2-6-5.55,0-3,1-6.06,2-8.87l-.2-.16c-3.89,4.17-10.53,14.46-16.1,15.36-5,.81-7.77-4.44-7.83-8.78,0-.46,0-.93,0-1.4a56.44,56.44,0,0,1-10.2,8.65,20.36,20.36,0,0,1,.18,5.54c-.65,12.16-14.7,25.16-22.11,27-4.67,1.21-6.12-8.07-6.16-11.4-.09-6.57,4.18-15,6.85-21.06a16.94,16.94,0,0,1-1.64-1.69c-4.79,5.58-11.45,11.75-17.47,12.24s-8.85-6.19-8.92-11.35c0-.33,0-.66,0-1-6.16,6.18-15.77,15.57-23.58,15.87-4,.16-6.46-2.5-6.52-6.55,0-3.34,1.23-7.23,2.51-10.21l-.21-.19-3.81,3.19c-5.52,5.68-12.79,12.92-18.41,12.94-3.88,0-5.76-3.23-5.8-6.67-.08-6.07,5.34-12.74,8.54-17.43l-.21-.2A82.09,82.09,0,0,0,267.44,399c-1.5,1.91-5.21,6.81-8,6.74-4.49-.11-5.69-6.53-5.84-10a11.94,11.94,0,0,1,0-1.28c-5.61,5.39-14.16,13.31-20.51,12.92-3.77-.22-6-3.51-6.09-7.06,0-3,1-5.8,2-8.37l-.21-.22c-3.92,3.2-10.62,11.82-16.21,11.34-5-.43-7.8-6.38-7.85-10.73,0-.56,0-1.12.06-1.68-3.67,3.22-7.69,4.37-13.61,3.69-4.2,3.87-9.12,6.51-15.49,5.65-5.26-.71-10.18-6.72-10.7-16-.3-7.64,3.37-12.13,9-15.71a31.4,31.4,0,0,1,18.84-5.13c2.23.15,5.59,1.52,5.63,4.25,0,1.52-1.19,2-2.3,2.49,3.05,1.14,3.69,3.32,3.73,6.36.06,4.46-1.92,7.8-3.8,11.54,4.47,1.29,7.27-2.28,10.38-4.31l0,.17a30.83,30.83,0,0,1,12.05-14.31,7.26,7.26,0,0,1,4.46-.78c1.42.11,6.6-.46,6.23,2.54-.18,1.61-2.89,4.27-4,5.1-3.11,3.33-3.7,4.19-7.63,6.72-3.12,2-5.53,4-5.47,8.25,0,.51.12,1.53.83,1.59,1.83.16,7.38-2.32,12.11-6.25q5-4.16,10-8.39c2.11-1.78,12-10.94,14.51-10.87.82,0,1.94.37,2.42,5.65.24,2.44-2.48,4.67-4.1,6-3.22,2.82-10.35,10.47-10.28,15,0,1.62.95,2.28,2.58,2.36,3.7.2,11.79-6,15.13-8.58a38.78,38.78,0,0,1,10-13.89c1.31-1.09,2.23-1.18,4-1.17,6.12.25,5.63,1.65,5.64,2.26.05,4-12.66,14.07-12.63,16.46a1.17,1.17,0,0,0,1.14,1.13c.71,0,1.62-.88,2-1.38,8-10.12,26.62-22.78,29.58-22.92.41,0,1,.48,1.66,1.88a23.15,23.15,0,0,1,1.6,5.42c.05,4-12.39,11.93-12.3,18.88a1.89,1.89,0,0,0,1.86,1.8c2.45,0,6.89-3.67,8.7-5.24l6.05-5.25.16.8a49.33,49.33,0,0,0,8.78-11.09c-6.22.27-4.29-.21-9.68.8l1.1-1.86c5.39-9.12,6.18-10.72,17.08-11.73,3-4.33,5.18-9.21,11.09-9.63,1.33-.1,3.26.06,3.28,1.68,0,1.82-2.88,5.38-3.88,6.87l6.32,0c-4.66,10-5.42,13.83-16.64,13.81-3.41,4.66-9.1,13.23-9,19.3,0,2.22.76,3.51,3.11,3.39,3.25-.18,6.87-3.34,17.28-11.52,3.28-9.72,12.37-18.25,17.28-18.75,1.73-.17,4.48.16,4.51,2.38.07,5.07-9.88,15.06-14.12,18.32-.76,4.21.8,6.32,5.48,5.89,3.76-.34,7.43-3.31,10.67-6.22.35-3.34,2.87-4.67,5.55-6.46,6-3.92,9.14-9.08,12.21-15.25,2.57-5.26,15.33-31.14,20.49-32,2.23-.35,2.47,2.44,2.49,4.06.05,3.94-2.89,11.5-5.07,15q-9.29,14.64-18.6,29c3,1.34,4,4.53,5.38,7.28q6.57-5,13.14-10.14a43.51,43.51,0,0,1,12.55-18.91,8.73,8.73,0,0,1,4.43-1.89c1.41-.24,6.55-2.1,6.18,1-.18,1.65-2.87,5-4,6.09-3.08,4.1-3.68,5.11-7.58,8.62-3.1,2.75-5.5,5.37-5.44,9.61,0,.51.12,1.5.83,1.38,1.82-.29,7.34-4.15,12-9.26q4.94-5.39,9.87-10.85c2.09-2.31,11.83-13.91,14.34-14.47.8-.17,1.91-.11,2.38,5.05.23,2.38-2.45,5.29-4,7-3.18,3.62-10.22,13-10.16,17.57,0,1.61.94,2,2.55,1.72,3.47-.68,10.79-8,14.36-11.74a64.73,64.73,0,0,1,10.3-27c8.67-13.07,18-24.92,21.21-25.78C472.57,317.44,473,319.75,472.92,321.09Zm107,34.6s-16.27-21.47-63.73-30.4l13.49,72.16-33.47,11.92s30-4.39,70.69,27.56c0,0-4.92-35.39-13.66-57C553.28,379.95,577.43,363,579.95,355.69Zm-129.6,1.38.2.16c7-8.35,13.08-19.63,14.8-25.84C460.49,335.08,454.92,345.57,450.35,357.08Z"/></g></g></svg>