<?xml version="1.0" encoding="UTF-8"?>
<svg width="23px" height="17px" viewBox="0 0 23 17" version="1.1" xmlns="http://www.w3.org/2000/svg" xmlns:xlink="http://www.w3.org/1999/xlink">
    <!-- Generator: Sketch 56.3 (81716) - https://sketch.com -->
    <title></title>
    <desc>Created with Sketch.</desc>
    <g id="Vendors" stroke="none" stroke-width="1" fill="none" fill-rule="evenodd">
        <g id="Vendor-Profile" transform="translate(-392.000000, -565.000000)" fill="#7F9DC6" fill-rule="nonzero">
            <g id="Group-7" transform="translate(284.000000, 561.500000)">
                <path d="M128.437452,3.50003934 C129.010368,3.50003934 129.497346,3.70055991 129.898386,4.1016004 C130.299427,4.5026409 130.499948,4.98961934 130.499948,5.56253442 L130.499948,17.9375049 C130.499948,18.51042 130.299427,18.9973984 129.898386,19.3984389 C129.497346,19.7994794 129.010368,20 128.437452,20 L110.562495,20 C109.98958,20 109.502602,19.7994794 109.101561,19.3984389 C108.700521,18.9973984 108.5,18.51042 108.5,17.9375049 L108.5,5.56253442 C108.5,4.98961934 108.700521,4.5026409 109.101561,4.1016004 C109.502602,3.70055991 109.98958,3.50003934 110.562495,3.50003934 L128.437452,3.50003934 Z M128.437452,5.56253442 L110.562495,5.56253442 L110.562495,7.32424897 C111.565097,8.12633061 113.498686,9.64455594 116.363263,11.8789256 L116.74998,12.2226748 C117.322895,12.7096526 117.781228,13.0534018 118.124977,13.2539223 C118.669247,13.6263175 119.127579,13.8125148 119.499974,13.8125148 C119.872369,13.8125148 120.330701,13.6263175 120.87497,13.2539223 C121.21872,13.0534018 121.677052,12.7096526 122.249967,12.2226748 L122.636685,11.8789256 C125.501262,9.67320192 127.434851,8.15497594 128.437452,7.32424897 L128.437452,5.56253442 Z M110.562495,17.9375049 L128.437452,17.9375049 L128.437452,9.94533647 L123.453089,13.898452 C122.736945,14.5000131 122.149707,14.9296996 121.691375,15.1875115 C120.917939,15.6458439 120.187472,15.8750098 119.499974,15.8750098 C118.812475,15.8750098 118.067686,15.6458439 117.265604,15.1875115 C116.835918,14.9296996 116.248679,14.5000131 115.50389,13.898452 L110.562495,9.94533647 L110.562495,17.9375049 Z" id=""></path>
            </g>
        </g>
    </g>
</svg>