<?xml version="1.0" encoding="UTF-8"?>
<svg width="12px" height="23px" viewBox="0 0 12 23" version="1.1" xmlns="http://www.w3.org/2000/svg" xmlns:xlink="http://www.w3.org/1999/xlink">
    <!-- Generator: Sketch 56.3 (81716) - https://sketch.com -->
    <title></title>
    <desc>Created with Sketch.</desc>
    <g id="Vendors" stroke="none" stroke-width="1" fill="none" fill-rule="evenodd">
        <g id="Vendor-Profile" transform="translate(-324.000000, -562.000000)" fill="#7F9DC6" fill-rule="nonzero">
            <g id="Group-7" transform="translate(284.000000, 561.500000)">
                <path d="M43.3085859,22.7499934 L43.3085859,12.9101732 L40,12.9101732 L40,9.00002623 L43.3085859,9.00002623 L43.3085859,5.9062836 C43.3085859,4.273475 43.7669183,3.00589989 44.6835826,2.10355829 C45.6002468,1.20121669 46.8176923,0.750045896 48.3359176,0.750045896 C49.5676857,0.750045896 50.5702873,0.807337207 51.343723,0.921920486 L51.343723,4.40238094 L49.2812279,4.40238094 C48.5077922,4.40238094 47.9778458,4.57425553 47.6913879,4.91800471 C47.462222,5.20446258 47.3476387,5.66279438 47.3476387,6.29300143 L47.3476387,9.00002623 L50.9999738,9.00002623 L50.48435,12.9101732 L47.3476387,12.9101732 L47.3476387,22.7499934 L43.3085859,22.7499934 Z" id=""></path>
            </g>
        </g>
    </g>
</svg>